<mxfile host="app.diagrams.net" modified="2023-05-10T21:12:16.790Z" agent="Mozilla/5.0 (Macintosh; Intel Mac OS X 10_15_7) AppleWebKit/537.36 (KHTML, like Gecko) Chrome/113.0.0.0 Safari/537.36" etag="g1OJAmxXTsHFtO0w-BuZ" version="21.2.9" type="device">
  <diagram name="Page-1" id="03018318-947c-dd8e-b7a3-06fadd420f32">
    <mxGraphModel dx="1789" dy="1215" grid="1" gridSize="10" guides="1" tooltips="1" connect="1" arrows="1" fold="1" page="1" pageScale="1" pageWidth="1100" pageHeight="850" background="none" math="0" shadow="0">
      <root>
        <mxCell id="0" />
        <mxCell id="1" parent="0" />
        <mxCell id="677b7b8949515195-1" value="" style="whiteSpace=wrap;html=1;rounded=0;shadow=0;labelBackgroundColor=none;strokeColor=#000000;strokeWidth=1;fillColor=none;fontFamily=Verdana;fontSize=12;fontColor=#000000;align=center;comic=1;" parent="1" vertex="1">
          <mxGeometry x="20" y="20" width="1000" height="810" as="geometry" />
        </mxCell>
        <mxCell id="677b7b8949515195-2" value="Risk Unit Calculator" style="whiteSpace=wrap;html=1;rounded=0;shadow=0;labelBackgroundColor=none;strokeWidth=1;fontFamily=Verdana;fontSize=28;align=center;comic=1;" parent="1" vertex="1">
          <mxGeometry x="40" y="60" width="360" height="50" as="geometry" />
        </mxCell>
        <mxCell id="677b7b8949515195-4" value="For Options Trading" style="text;html=1;points=[];align=left;verticalAlign=top;spacingTop=-4;fontSize=14;fontFamily=Verdana" parent="1" vertex="1">
          <mxGeometry x="50" y="110" width="60" height="20" as="geometry" />
        </mxCell>
        <mxCell id="677b7b8949515195-8" value="" style="whiteSpace=wrap;html=1;rounded=0;shadow=0;labelBackgroundColor=none;strokeWidth=1;fillColor=none;fontFamily=Verdana;fontSize=12;align=center;comic=1;" parent="1" vertex="1">
          <mxGeometry x="40" y="170" width="200" height="330" as="geometry" />
        </mxCell>
        <mxCell id="677b7b8949515195-9" value="" style="line;strokeWidth=1;html=1;rounded=0;shadow=0;labelBackgroundColor=none;fillColor=none;fontFamily=Verdana;fontSize=14;fontColor=#000000;align=center;comic=1;" parent="1" vertex="1">
          <mxGeometry x="20" y="140" width="1000" height="10" as="geometry" />
        </mxCell>
        <mxCell id="677b7b8949515195-15" value="&lt;div style=&quot;&quot;&gt;&lt;div style=&quot;box-sizing: border-box; width: 704px; position: relative; color: rgb(250, 250, 250); font-family: &amp;quot;Source Sans Pro&amp;quot;, sans-serif; font-size: 16px; background-color: rgb(14, 17, 23);&quot; class=&quot;element-container css-1hynsf2 e1tzin5v2&quot; width=&quot;704&quot; data-stale=&quot;false&quot;&gt;&lt;div style=&quot;box-sizing: border-box; display: flex; visibility: visible; vertical-align: middle; flex-direction: row; -webkit-box-align: center; align-items: center; width: 704px;&quot; class=&quot;stTextLabelWrapper css-y4bq5x e1j25pv61&quot;&gt;&lt;div style=&quot;box-sizing: border-box; font-family: &amp;quot;Source Code Pro&amp;quot;, monospace; font-size: 14px; overflow-x: auto;&quot; class=&quot;css-183lzff eyqtai90&quot; data-testid=&quot;stText&quot;&gt;Assumptions:&lt;br&gt;    - Risk 1% of Portfolio&lt;br&gt;    - Expected Return: 2.4R&lt;br&gt;&lt;/div&gt;&lt;div style=&quot;box-sizing: border-box; font-family: &amp;quot;Source Code Pro&amp;quot;, monospace; font-size: 14px; overflow-x: auto;&quot; class=&quot;css-183lzff eyqtai90&quot; data-testid=&quot;stText&quot;&gt;&lt;br&gt;&lt;/div&gt;&lt;div style=&quot;box-sizing: border-box; font-family: &amp;quot;Source Code Pro&amp;quot;, monospace; font-size: 14px; overflow-x: auto;&quot; class=&quot;css-183lzff eyqtai90&quot; data-testid=&quot;stText&quot;&gt;&lt;br&gt;&lt;/div&gt;&lt;div style=&quot;box-sizing: border-box; font-family: &amp;quot;Source Code Pro&amp;quot;, monospace; font-size: 14px; overflow-x: auto;&quot; class=&quot;css-183lzff eyqtai90&quot; data-testid=&quot;stText&quot;&gt;&lt;br&gt;&lt;/div&gt;&lt;div style=&quot;box-sizing: border-box; font-family: &amp;quot;Source Code Pro&amp;quot;, monospace; font-size: 14px; overflow-x: auto;&quot; class=&quot;css-183lzff eyqtai90&quot; data-testid=&quot;stText&quot;&gt;&lt;br&gt;&lt;/div&gt;&lt;div style=&quot;box-sizing: border-box; font-family: &amp;quot;Source Code Pro&amp;quot;, monospace; font-size: 14px; overflow-x: auto;&quot; class=&quot;css-183lzff eyqtai90&quot; data-testid=&quot;stText&quot;&gt;&lt;br&gt;&lt;/div&gt;&lt;div style=&quot;box-sizing: border-box; font-family: &amp;quot;Source Code Pro&amp;quot;, monospace; font-size: 14px; overflow-x: auto;&quot; class=&quot;css-183lzff eyqtai90&quot; data-testid=&quot;stText&quot;&gt;&lt;br&gt;&lt;/div&gt;&lt;div style=&quot;box-sizing: border-box; font-family: &amp;quot;Source Code Pro&amp;quot;, monospace; font-size: 14px; overflow-x: auto;&quot; class=&quot;css-183lzff eyqtai90&quot; data-testid=&quot;stText&quot;&gt;&lt;br&gt;&lt;/div&gt;&lt;div style=&quot;box-sizing: border-box; font-family: &amp;quot;Source Code Pro&amp;quot;, monospace; font-size: 14px; overflow-x: auto;&quot; class=&quot;css-183lzff eyqtai90&quot; data-testid=&quot;stText&quot;&gt;&lt;br&gt;&lt;/div&gt;&lt;div style=&quot;box-sizing: border-box; font-family: &amp;quot;Source Code Pro&amp;quot;, monospace; font-size: 14px; overflow-x: auto;&quot; class=&quot;css-183lzff eyqtai90&quot; data-testid=&quot;stText&quot;&gt;&lt;br&gt;&lt;/div&gt;&lt;div style=&quot;box-sizing: border-box; font-family: &amp;quot;Source Code Pro&amp;quot;, monospace; font-size: 14px; overflow-x: auto;&quot; class=&quot;css-183lzff eyqtai90&quot; data-testid=&quot;stText&quot;&gt;&lt;br&gt;&lt;/div&gt;&lt;div style=&quot;box-sizing: border-box; font-family: &amp;quot;Source Code Pro&amp;quot;, monospace; font-size: 14px; overflow-x: auto;&quot; class=&quot;css-183lzff eyqtai90&quot; data-testid=&quot;stText&quot;&gt;&lt;br&gt;&lt;/div&gt;&lt;div style=&quot;box-sizing: border-box; font-family: &amp;quot;Source Code Pro&amp;quot;, monospace; font-size: 14px; overflow-x: auto;&quot; class=&quot;css-183lzff eyqtai90&quot; data-testid=&quot;stText&quot;&gt;&lt;br&gt;&lt;/div&gt;&lt;div style=&quot;box-sizing: border-box; font-family: &amp;quot;Source Code Pro&amp;quot;, monospace; font-size: 14px; overflow-x: auto;&quot; class=&quot;css-183lzff eyqtai90&quot; data-testid=&quot;stText&quot;&gt;&lt;br&gt;&lt;/div&gt;&lt;/div&gt;&lt;/div&gt;&lt;br&gt;&lt;div style=&quot;box-sizing: border-box; width: 704px; position: relative; color: rgb(250, 250, 250); font-family: &amp;quot;Source Sans Pro&amp;quot;, sans-serif; font-size: 16px; background-color: rgb(14, 17, 23);&quot; class=&quot;element-container css-1hynsf2 e1tzin5v2&quot; width=&quot;704&quot; data-stale=&quot;false&quot;&gt;&lt;div style=&quot;box-sizing: border-box; display: flex; visibility: visible; vertical-align: middle; flex-direction: row; -webkit-box-align: center; align-items: center; width: 704px;&quot; class=&quot;stTextLabelWrapper css-y4bq5x e1j25pv61&quot;&gt;&lt;div style=&quot;box-sizing: border-box; font-family: &amp;quot;Source Code Pro&amp;quot;, monospace; font-size: 14px; overflow-x: auto;&quot; class=&quot;css-183lzff eyqtai90&quot; data-testid=&quot;stText&quot;&gt;* Reference: RealLifeTrading - Jeremy&#39;s R units&lt;/div&gt;&lt;/div&gt;&lt;/div&gt;&lt;/div&gt;" style="whiteSpace=wrap;html=1;rounded=0;shadow=0;labelBackgroundColor=none;strokeWidth=1;fillColor=none;fontFamily=Verdana;fontSize=12;align=left;verticalAlign=top;spacing=10;comic=1;" parent="1" vertex="1">
          <mxGeometry x="40" y="520" width="940" height="290" as="geometry" />
        </mxCell>
        <mxCell id="677b7b8949515195-27" value="Risk amount" style="text;html=1;points=[];align=left;verticalAlign=top;spacingTop=-4;fontSize=14;fontFamily=Verdana" parent="1" vertex="1">
          <mxGeometry x="50" y="190" width="170" height="20" as="geometry" />
        </mxCell>
        <mxCell id="677b7b8949515195-28" value="Entry" style="text;html=1;points=[];align=left;verticalAlign=top;spacingTop=-4;fontSize=14;fontFamily=Verdana" parent="1" vertex="1">
          <mxGeometry x="50" y="260" width="170" height="20" as="geometry" />
        </mxCell>
        <mxCell id="677b7b8949515195-29" value="Stop Loss" style="text;html=1;points=[];align=left;verticalAlign=top;spacingTop=-4;fontSize=14;fontFamily=Verdana" parent="1" vertex="1">
          <mxGeometry x="50" y="340" width="170" height="20" as="geometry" />
        </mxCell>
        <mxCell id="OeKSBWPdTyhDDwN9-j8y-3" value="&lt;div&gt;Risk: $100&lt;/div&gt;&lt;div&gt;&lt;br&gt;&lt;/div&gt;&lt;div&gt;&amp;nbsp; &amp;nbsp; Entry: $0.5 / contract&lt;/div&gt;&lt;div&gt;&amp;nbsp; &amp;nbsp; StopLoss: $0.25 / contract&lt;/div&gt;&lt;div&gt;&amp;nbsp; &amp;nbsp; Qty: 4 contract(s)&lt;/div&gt;&lt;div&gt;&lt;br&gt;&lt;/div&gt;&lt;div&gt;&amp;nbsp; &amp;nbsp; _____________________&lt;/div&gt;&lt;div&gt;&amp;nbsp; &amp;nbsp; TP: $0.75 @1R | 1.0 @ 2Rs | 1.1 @ 2.4Rs&lt;/div&gt;" style="whiteSpace=wrap;html=1;rounded=0;shadow=0;labelBackgroundColor=none;strokeWidth=1;fillColor=none;fontFamily=Verdana;fontSize=12;align=left;comic=1;" vertex="1" parent="1">
          <mxGeometry x="280" y="170" width="740" height="330" as="geometry" />
        </mxCell>
        <mxCell id="OeKSBWPdTyhDDwN9-j8y-16" value="100" style="html=1;shadow=0;dashed=0;shape=mxgraph.bootstrap.rrect;rSize=5;strokeColor=#CED4DA;strokeWidth=1;fillColor=#E9ECEF;fontColor=#505050;whiteSpace=wrap;align=left;verticalAlign=middle;spacingLeft=10;fontSize=14;" vertex="1" parent="1">
          <mxGeometry x="50" y="210" width="170" height="40" as="geometry" />
        </mxCell>
        <mxCell id="OeKSBWPdTyhDDwN9-j8y-17" value="0.5" style="html=1;shadow=0;dashed=0;shape=mxgraph.bootstrap.rrect;rSize=5;strokeColor=#CED4DA;strokeWidth=1;fillColor=#E9ECEF;fontColor=#505050;whiteSpace=wrap;align=left;verticalAlign=middle;spacingLeft=10;fontSize=14;" vertex="1" parent="1">
          <mxGeometry x="50" y="281" width="170" height="40" as="geometry" />
        </mxCell>
        <mxCell id="OeKSBWPdTyhDDwN9-j8y-18" value="0.25" style="html=1;shadow=0;dashed=0;shape=mxgraph.bootstrap.rrect;rSize=5;strokeColor=#CED4DA;strokeWidth=1;fillColor=#E9ECEF;fontColor=#505050;whiteSpace=wrap;align=left;verticalAlign=middle;spacingLeft=10;fontSize=14;" vertex="1" parent="1">
          <mxGeometry x="50" y="360" width="170" height="40" as="geometry" />
        </mxCell>
        <mxCell id="OeKSBWPdTyhDDwN9-j8y-19" value="Calculate" style="labelPosition=center;verticalLabelPosition=middle;align=center;html=1;shape=mxgraph.basic.button;dx=10;whiteSpace=wrap;" vertex="1" parent="1">
          <mxGeometry x="50" y="420" width="100" height="60" as="geometry" />
        </mxCell>
        <mxCell id="OeKSBWPdTyhDDwN9-j8y-20" value="Result" style="text;html=1;strokeColor=none;fillColor=none;align=center;verticalAlign=middle;whiteSpace=wrap;rounded=0;" vertex="1" parent="1">
          <mxGeometry x="270" y="150" width="60" height="30" as="geometry" />
        </mxCell>
        <mxCell id="OeKSBWPdTyhDDwN9-j8y-22" style="edgeStyle=orthogonalEdgeStyle;rounded=0;orthogonalLoop=1;jettySize=auto;html=1;exitX=0.5;exitY=1;exitDx=0;exitDy=0;" edge="1" parent="1" source="677b7b8949515195-1" target="677b7b8949515195-1">
          <mxGeometry relative="1" as="geometry" />
        </mxCell>
        <mxCell id="OeKSBWPdTyhDDwN9-j8y-23" value="" style="shape=image;verticalLabelPosition=bottom;labelBackgroundColor=default;verticalAlign=top;aspect=fixed;imageAspect=0;image=data:image/png,iVBORw0KGgoAAAANSUhEUgAABMIAAAFkCAYAAADCCpf0AAAMPGlDQ1BJQ0MgUHJvZmlsZQAASImVVwdYU8kWnluSkEBoAQSkhN4EkRpASggt9N5shCRAKDEGgoodXVRw7SICNnRVRMFKsyN2FsXeFwsqyrpYsCtvUkDXfeV7k29m/vxz5j9nzp1bBgC14xyRKBdVByBPWCCODfanJ6ek0klPAQq04M8F2HG4+SJmdHQ4gGWo/3t5dx0g0v6KvVTrn+P/tWjw+PlcAJBoiNN5+dw8iA8AgFdzReICAIhS3mxqgUiKYQVaYhggxIukOFOOq6U4XY73yGziY1kQtwOgpMLhiDMBUL0EeXohNxNqqPZD7CjkCYQAqNEh9snLm8yDOA1ia2gjgliqz0j/QSfzb5rpw5ocTuYwlq9FVpQCBPmiXM70/zMd/7vk5UqGfFjCqpIlDomVrhnm7WbO5DApVoG4T5geGQWxJsQfBDyZPcQoJUsSkiC3Rw24+SyYM6ADsSOPExAGsQHEQcLcyHAFn54hCGJDDHcIOk1QwI6HWBfiRfz8wDiFzSbx5FiFL7QxQ8xiKvizHLHMr9TXfUlOAlOh/zqLz1boY6pFWfFJEFMgNi8UJEZCrAqxQ35OXJjCZmxRFityyEYsiZXGbw5xLF8Y7C/XxwozxEGxCvvSvPyh9WKbsgTsSAXeV5AVHyLPD9bO5cjih2vBLvGFzIQhHX5+cvjQWnj8gED52rFnfGFCnELng6jAP1Y+F6eIcqMV9rgpPzdYyptC7JJfGKeYiycWwA0p18czRAXR8fI48aJsTmi0PB58OQgHLBAA6EACazqYDLKBoLOvqQ/+k48EAQ4Qg0zAB/YKZmhGkmxECNs4UAT+hIgP8ofn+ctG+aAQ8l+HWXlrDzJko4WyGTngCcR5IAzkwv8S2SzhsLdE8Bgygn9458DKhfHmwiod//f8EPudYUImXMFIhjzS1YYsiYHEAGIIMYhog+vjPrgXHg5bP1idcAbuMbSO7/aEJ4QuwkPCNUI34dYkQbH4pygjQDfUD1LkIv3HXOCWUNMV98e9oTpUxnVwfWCPu0A/TNwXenaFLEsRtzQr9J+0/7aCH66Gwo7sSEbJI8h+ZOufZ6raqroOq0hz/WN+5LGmD+ebNTzys3/WD9nnwT7sZ0tsEbYfO4OdwM5hh7EmQMeOYc1YB3ZEiod312PZ7hryFiuLJwfqCP7hb+jKSjOZ71jn2Ov4RT5WwJ8mfUYD1mTRdLEgM6uAzoRvBD6dLeQ6jKI7OTo5AyB9v8gfX29iZO8NRKfjOzf/DwC8jw0ODh76zoUeA2CvO7z9W75z1gz46lAG4GwLVyIulHO4tCHAp4QavNP0gBEwA9ZwPU7ADXgBPxAIQkEUiAcpYCKMPgvuczGYCmaCeaAElIHlYA2oBBvBFrAD7Ab7QBM4DE6A0+ACuASugTtw9/SAF6AfvAOfEQQhIVSEhughxogFYoc4IQzEBwlEwpFYJAVJQzIRISJBZiLzkTJkJVKJbEZqkb1IC3ICOYd0IbeQB0gv8hr5hGKoCqqFGqKW6GiUgTLRMDQenYBmolPQInQBuhStQGvQXWgjegK9gF5Du9EX6AAGMGVMBzPB7DEGxsKisFQsAxNjs7FSrByrweqxVnidr2DdWB/2ESfiNJyO28MdHIIn4Fx8Cj4bX4JX4jvwRrwdv4I/wPvxbwQqwYBgR/AksAnJhEzCVEIJoZywjXCQcAreSz2Ed0QiUYdoRXSH92IKMZs4g7iEuJ7YQDxO7CI+Ig6QSCQ9kh3JmxRF4pAKSCWkdaRdpGOky6Qe0gclZSVjJSelIKVUJaFSsVK50k6lo0qXlZ4qfSarky3InuQoMo88nbyMvJXcSr5I7iF/pmhQrCjelHhKNmUepYJSTzlFuUt5o6ysbKrsoRyjLFCeq1yhvEf5rPID5Y8qmiq2KiyV8SoSlaUq21WOq9xSeUOlUi2pftRUagF1KbWWepJ6n/pBlabqoMpW5anOUa1SbVS9rPpSjaxmocZUm6hWpFautl/tolqfOlndUp2lzlGfrV6l3qJ+Q31Ag6YxRiNKI09jicZOjXMazzRJmpaagZo8zQWaWzRPaj6iYTQzGovGpc2nbaWdovVoEbWstNha2VplWru1OrX6tTW1XbQTtadpV2kf0e7WwXQsddg6uTrLdPbpXNf5NMJwBHMEf8TiEfUjLo94rztS10+Xr1uq26B7TfeTHl0vUC9Hb4Vek949fVzfVj9Gf6r+Bv1T+n0jtUZ6jeSOLB25b+RtA9TA1iDWYIbBFoMOgwFDI8NgQ5HhOsOThn1GOkZ+RtlGq42OGvUa04x9jAXGq42PGT+na9OZ9Fx6Bb2d3m9iYBJiIjHZbNJp8tnUyjTBtNi0wfSeGcWMYZZhttqszazf3Ng8wnymeZ35bQuyBcMiy2KtxRmL95ZWlkmWCy2bLJ9Z6VqxrYqs6qzuWlOtfa2nWNdYX7Uh2jBscmzW21yyRW1dbbNsq2wv2qF2bnYCu/V2XaMIozxGCUfVjLphr2LPtC+0r7N/4KDjEO5Q7NDk8HK0+ejU0StGnxn9zdHVMddxq+OdMZpjQscUj2kd89rJ1onrVOV01ZnqHOQ8x7nZ+ZWLnQvfZYPLTVeaa4TrQtc2169u7m5it3q3Xndz9zT3avcbDC1GNGMJ46wHwcPfY47HYY+Pnm6eBZ77PP/ysvfK8drp9Wys1Vj+2K1jH3mbenO8N3t3+9B90nw2+XT7mvhyfGt8H/qZ+fH8tvk9Zdows5m7mC/9Hf3F/gf937M8WbNYxwOwgOCA0oDOQM3AhMDKwPtBpkGZQXVB/cGuwTOCj4cQQsJCVoTcYBuyuexadn+oe+is0PYwlbC4sMqwh+G24eLw1gg0IjRiVcTdSItIYWRTFIhiR62KuhdtFT0l+lAMMSY6pirmSeyY2JmxZ+JocZPidsa9i/ePXxZ/J8E6QZLQlqiWOD6xNvF9UkDSyqTu5NHJs5IvpOinCFKaU0mpianbUgfGBY5bM65nvOv4kvHXJ1hNmDbh3ET9ibkTj0xSm8SZtD+NkJaUtjPtCyeKU8MZSGenV6f3c1nctdwXPD/eal4v35u/kv80wztjZcazTO/MVZm9Wb5Z5Vl9ApagUvAqOyR7Y/b7nKic7TmDuUm5DXlKeWl5LUJNYY6wfbLR5GmTu0R2ohJR9xTPKWum9IvDxNvykfwJ+c0FWvBDvkNiLflF8qDQp7Cq8MPUxKn7p2lME07rmG47ffH0p0VBRb/NwGdwZ7TNNJk5b+aDWcxZm2cjs9Nnt80xm7NgTs/c4Lk75lHm5cz7vdixeGXx2/lJ81sXGC6Yu+DRL8G/1JWolohLbiz0WrhxEb5IsKhzsfPidYu/lfJKz5c5lpWXfVnCXXL+1zG/Vvw6uDRjaecyt2UblhOXC5dfX+G7YsdKjZVFKx+tiljVuJq+unT12zWT1pwrdynfuJayVrK2uyK8onmd+brl675UZlVeq/Kvaqg2qF5c/X49b/3lDX4b6jcabizb+GmTYNPNzcGbG2ssa8q3ELcUbnmyNXHrmd8Yv9Vu099Wtu3rduH27h2xO9pr3WtrdxrsXFaH1knqeneN33Vpd8Du5nr7+s0NOg1le8AeyZ7ne9P2Xt8Xtq9tP2N//QGLA9UHaQdLG5HG6Y39TVlN3c0pzV0toS1trV6tBw85HNp+2ORw1RHtI8uOUo4uODp4rOjYwHHR8b4TmScetU1qu3My+eTV9pj2zlNhp86eDjp98gzzzLGz3mcPn/M813Kecb7pgtuFxg7XjoO/u/5+sNOts/Gi+8XmSx6XWrvGdh297Hv5xJWAK6evsq9euBZ5ret6wvWbN8bf6L7Ju/nsVu6tV7cLb3++M/cu4W7pPfV75fcN7tf8YfNHQ7db95EHAQ86HsY9vPOI++jF4/zHX3oWPKE+KX9q/LT2mdOzw71BvZeej3ve80L04nNfyZ8af1a/tH554C+/vzr6k/t7XolfDb5e8kbvzfa3Lm/bBqIH7r/Le/f5fekHvQ87PjI+nvmU9Onp56lfSF8qvtp8bf0W9u3uYN7goIgj5sg+BTBY0YwMAF5vB4CaAgANns8o4+TnP1lB5GdWGQL/CcvPiLLiBkA9/H6P6YNfNzcA2LMVHr+gvtp4AKKpAMR7ANTZebgOndVk50ppIcJzwKbYr+l56eDfFPmZ84e4f+6BVNUF/Nz/C9ENfJXxRn0rAAAAimVYSWZNTQAqAAAACAAEARoABQAAAAEAAAA+ARsABQAAAAEAAABGASgAAwAAAAEAAgAAh2kABAAAAAEAAABOAAAAAAAAAJAAAAABAAAAkAAAAAEAA5KGAAcAAAASAAAAeKACAAQAAAABAAAEwqADAAQAAAABAAABZAAAAABBU0NJSQAAAFNjcmVlbnNob3TR/EceAAAACXBIWXMAABYlAAAWJQFJUiTwAAAB12lUWHRYTUw6Y29tLmFkb2JlLnhtcAAAAAAAPHg6eG1wbWV0YSB4bWxuczp4PSJhZG9iZTpuczptZXRhLyIgeDp4bXB0az0iWE1QIENvcmUgNi4wLjAiPgogICA8cmRmOlJERiB4bWxuczpyZGY9Imh0dHA6Ly93d3cudzMub3JnLzE5OTkvMDIvMjItcmRmLXN5bnRheC1ucyMiPgogICAgICA8cmRmOkRlc2NyaXB0aW9uIHJkZjphYm91dD0iIgogICAgICAgICAgICB4bWxuczpleGlmPSJodHRwOi8vbnMuYWRvYmUuY29tL2V4aWYvMS4wLyI+CiAgICAgICAgIDxleGlmOlBpeGVsWURpbWVuc2lvbj4zNTY8L2V4aWY6UGl4ZWxZRGltZW5zaW9uPgogICAgICAgICA8ZXhpZjpQaXhlbFhEaW1lbnNpb24+MTIxODwvZXhpZjpQaXhlbFhEaW1lbnNpb24+CiAgICAgICAgIDxleGlmOlVzZXJDb21tZW50PlNjcmVlbnNob3Q8L2V4aWY6VXNlckNvbW1lbnQ+CiAgICAgIDwvcmRmOkRlc2NyaXB0aW9uPgogICA8L3JkZjpSREY+CjwveDp4bXBtZXRhPgrZ4mUDAAAAHGlET1QAAAACAAAAAAAAALIAAAAoAAAAsgAAALIAAG1Ftj9UJwAAQABJREFUeAHs3QV8FccWB+CDFy+UYiEQCA4hBIK7u7u7a3Et7u7uriW4ewgheHCXoKV4oUChb87yZrK790YIBJJ7//t+5c7Mztq3l77mZOZMhDjxEv1H2CAAAQhAAAIQgAAEIAABCEAAAhCAAAQgYOMCERAIs/E3jMeDAAQgAAEIQAACEIAABCAAAQhAAAIQ0AQQCMMXAQIQgAAEIAABCEAAAhCAAAQgAAEIQMAuBBAIs4vXjIeEAAQgAAEIQAACEIAABCAAAQhAAAIQQCAM3wEIQAACEIAABCAAAQhAAAIQgAAEIAABuxBAIMwuXjMeEgIQgAAEIAABCEAAAhCAAAQgAAEIQACBMHwHIAABCEAAAhCAAAQgAAEIQAACEIAABOxCAIEwu3jNeEgIQAACEIAABCAAAQhAAAIQgAAEIAABBMLwHYAABCAAAQhAAAIQgAAEIAABCEAAAhCwCwEEwuziNeMhIQABCEAAAhCAAAQgAAEIQAACEIAABBAI+8HfgapVKlLcOHGs3sUxnxN0/sJFq/vQCAEIQAACEIAABCAAAQhAAAIQgAAEIPBlAgiEfZnXN+99/+51iho1qtXzXrlylfIWKGp1HxohAAEIQAACEIAABCAAAQhAAAIQgAAEvkwgRIGwbG6utGD+7GBfafac+TRt+qxg97enjhfPnaIECX4xPHKECBG0OgJhBhZUIAABCEAAAhCAAAQgAAEIQAACEIDAVwmEKBBWqmRxWrZkQbAvvHzFKurYuVuw+9t7xyeP7moECITZ+zcBzw8BCEAAAhCAAAQgAAEIQAACEIDAtxT46kDY+/fv6fLlK4He05hxE2nrth2B9sFOfwEEwvwtUIIABCAAAQhAAAIQgAAEIAABCEAAAt9K4KsDYTt37qa6DZp8q/vBeYQAAmH4GkAAAhCAAAQgAAEIQAACEIAABCAAgW8vECYCYREjRqCsrlkoY8YM5H3Mh65evf7VT5oieTLK5uZGMWLGoGvXbmjnDeykjo4O5J4tG23cvIU+fvykurqJ+3JySkG7du+h13+/Ue2hWfjaQFi0aFGFpyulSuVEr169Ji+vo/TX02dfdMvZs2WlgQP6UaJEiWjatBm0aMnyLzoenSEAAQhAAAIQgAAEIAABCEAAAhCAQFgT+KGBsDRpnGn50oXklCIFyQTxDPTp0yctcFVPjDR7+fJVgGYN69ehcWNHicDVR0rskFLr17J5U+rR/Tf6+eefDce9fv03OTmn19rixIlN16+c/9y/VTsaMngAJU6cSKvzuVq36UC3bt2m9etXUexYsbR2vqemzVvT5i3btDr/MXniWKpTu6ZWL122Ip04eVrt0xfOnTkuAkoJ6dmzZ5Q2g6t+l9VySANhTRs3oHbtWlNyR0eDJ1/k7du31LVbb1q9dp3Va5obzatZVqhUjbyOHjN3Qx0CEIAABCAAAQhAAAIQgAAEIAABCIQbgR8WCOvcsR317dPTImCjl/vw4QPVb9iU9uzdr29W5R7dfhNBry5aPUEiRxrQvy91aN9a7dcXHj58RJld3bUmDoTduHpBK3PgK1KkSPqu9PLVK+2+ZBBM7tQH07ht9cqlVLRIIW13uQpVAxx1dvfWFYoePTqZj5fnNX9+aSAsq6sLrVuzguLGjWs+lUV9/ITJNHzkGIt2fUOF8mVowTzjqqD8DmrVaaDvhjIEIAABCEAAAhCAAAQgAAEIQAACEAhXAj8kEJYhfTo6uH+XCoKdPHmKxo6fRCdOnKSiRYuIgFYfNUKLRzKlSedC/7x7ZwGrD4QtW7aC6tWro/XhkVdLl62iYz4+FDVqFBGsKiymR16nKdNmavv1gTBuePz4Txo1eix16dKJHJIm1frwHydOnKJ16zfQoIH9KEqUKFp7iZLl6NSZs1o5rATCUjk5kffRg5onB/H++MNDCx4e9jxCLpkzUf++vcndPZt2zxz4S5/RlZ49f6HVrf3hnColeXsdNOyaN28h9ezT39CGCgQgAAEIQAACEIAABCAAAQhAAAIQCE8CXx0Ie/r0Kfme+zzN0Pzgb9+8pUZNWxhybnEf39M+lCRJYq376jXrqG37zoZDI0WKSIf276a0adNo7bv37KPadRsa+nBFHwiTOxcuWkrdevSWVauf+kAYT3nMnjMv3b17j5o3bUwjRwzRjuFgWjoRMPr06T9av3YFFSyQX2vv0KkLrVi5RiuHlUAY30yvHl3pxcuXNGPmHO3ezH/s2bmFXEW+M96GjxhF4ydONXcx1Hdt30Rublm1tnciCOnimoOeChNsEIAABCAAAQhAAAIQgAAEIAABCEAgvAp8dSAsqAdPlyGLIVF7ooQJ6LzvKe0wDrAkT5nWIlDGO/WjnN6/f09JHZ0tLmUOhM2eM4/69Bto0c/coA+EnT3rS0VLlNW6ZHHJRHt3b9fKU6bOpEFDhmnl3/v1po4d2mrl/gMGq2BTWAqEaTcXyB+lShanZUsWaD02btxMTVu0CaT35128UEBiEbDctn1nkH3RAQIQgAAEIAABCEAAAhCAAAQgAAEIhHWBrw6E/ffff/TiRcDT7LLlyGtIeF+zejWaPm2i5rJ123Zq2LhFgEanjnuRo2MybX+adJktpvPpA2G379yh7DnyBXgu/Q59IOyMmOZYTEx35C2dGIHmeWivVp40eSoNGTZKK/Noq25dP49aCw+BMF4xs1bNGuSW1ZWcUztTwl9/pRgxolPEiBG15+GpqCXLVNTK+AMCEIAABCAAAQhAAAIQgAAEIAABCNiLwFcHwnbu3E11xeqOwd0mjR+tcnmNHjOeRo+dEOChG9avpPz5Pge3mrVoTR4btxj66gNhAwcNo6nTZxr2B1Sx1UBYn17dqXnzJhQnduyAHl1r1wf/Au2InRCAAAQgAAEIQAACEIAABCAAAQhAwIYEvnsgbOrk8VS7Vg2NcPiI0SJX1ZQAOdeuXkaFCxXU9rdp14nWrF1v6ItA2GeOaNGi0vYtHuTikln5PHr0WCTM30fHj5+gs77nyO/ePbp0/oy2H4EwxYQCBCAAAQhAAAIQgAAEIAABCEAAAnYk8N0DYQ3r16Hx40ZrxB4em6hZy8+5t6yZ+3gfopRiRUTeMrm40aPHT7Sy/CMsBcJq1q5Pe/cdkLdm+Lx76wpFjx6dXr/+m5yc0xv2Was8eXRXa75y5SrlLVDUWhdD28zpk6l6tSpa28OHj6hchcp0+46foU9Ao+AMnVCBAAQgAAEIQAACEIAABCAAAQhAAAI2LPDdA2HJHJLS6ZPeGunLV68oVeqMVnkTJ0pEvmd8KEKECPTvv/9SYoeUFv1+dCBMP7qtr0jSP0sk6zdv/BxnTnlTpEiRvjgQFty8Z+fPnqBEiRKKFS4/UZJkKa0uPvClgTBeOGDggH4UM0ZMmjd/Ea1eu878aKhDAAIQgAAEIAABCEAAAhCAAAQgAIFwJfDdA2Gsc+XiGYofP74GNX3GLPp94FALNJ7q5+6eTWs/6n2MylesZtHnRwfCunRuT31699Tuy1dMPyxSvIzhHtOkcaY9O7eKRPUxtPbgjgh74HeDokSJQryqpqNTGhHg+s9wXnNF9n/79q3on9a8m+L9HJeWL11EOXJk1/YFZ2rkvTvXKFq0aOpc5SpUJe9jPqqOAgQgAAEIQAACEIAABCAAAQhAAAIQCG8CPyQQlitnDtqyyT/fF08pHDpsBJ2/cJHy5c1NY0aPJOdUn0eAffjwgTJmdrNYMZKhf3QgTL/KJN8PT/Xk5P+xYsWkhg3qiZUbq1PkyJF5l7YFNxB2+sRRSpbMQTuGV3gcPnI0nTnjS5UrVaC8wqdFq/b/P+Pnj5PHj1ByR0etwosXtOvQWfPiQFytGtWoXdvWWmBNHhRUIKxsmVK0eOFc2V373L1nH9Wu29DQhgoEIAABCEAAAhCAAAQgAAEIQAACEAhPAj8kEMZAgwf2o7ZtWgVqxVP92rTrSOvWe1jt96MDYXxT+3ZvMySpN98ojxR7+fIl5cuXN9hTI60FovTnNa+gWbN6NZo+baK+C/3333/atFLZyMnz48ePpwXEggqEmQN8fI4FC5dQ95595OnwCQEIQAACEIAABCAAAQhAAAIQgAAEwp3AVwfCNm3aSk2aBx7QCkglh3t2Wjh/tpbfytzn4sVLVKtOA7r/4KF5l6qHNBAWK2YMunXjsnaeYz7HqWz5z4nmUyRPRid8vLT2SZOn0pBho7Ry547tqF/fXlq5e4/etGDRUq3Mf8SJHYvWrFpO2bO7qTYuvHnzhjw2bqYOnbqSTGb/4sULck7rv7Kj4QBThZ+tW9fOFDFiRMMeHiHXt98Ami8CU/qtdcvm1L9fL8N0Rt7PedhmzJhNY8ZNJDlyTP/M+nPoy/v2bCeXzJm0pvfv35OLqzv99fSZvgvKEIAABCAAAQhAAAIQgAAEIAABCEAgXAmEKBD2rZ+QA1MFCxagFCmS0/nz5+mo1zF6LxLkh6ctUcIElDdPHootAmOHD3vRjVu3vvr22SVXrpyUPn06evP333Tu/EXyOX4iwPNGihSRcov+Tk4p6MP7f2n7jh0iEPY6wP5B7cidKwclSZyYPDZtDjJPWVDnwn4IQAACEIAABCAAAQhAAAIQgAAEIPCjBcJEIOxHI+D6EIAABCAAAQhAAAIQgAAEIAABCEAAArYvgECY7b9jPCEEIAABCEAAAhCAAAQgAAEIQAACEICAEEAgDF8DCEAAAhCAAAQgAAEIQAACEIAABCAAAbsQQCDMLl4zHhICEIAABCAAAQhAAAIQgAAEIAABCEAAgTB8ByAAAQhAAAIQgAAEIAABCEAAAhCAAATsQgCBMLt4zXhICEAAAhCAAAQgAAEIQAACEIAABCAAAQTC8B2AAAQgAAEIQAACEIAABCAAAQhAAAIQsAsBBMLs4jXjISEAAQhAAAIQgAAEIAABCEAAAhCAAAQQCMN3AAIQgAAEIAABCEAAAhCAAAQgAAEIQMAuBBAIs4vXjIeEAAQgAAEIQAACEIAABCAAAQhAAAIQQCAM3wEIQAACEIAABCAAAQhAAAIQgAAEIAABuxBAIMwuXjMeEgIQgAAEIAABCEAAAhCAAAQgAAEIQACBMHwHIAABCEAAAhCAAAQgAAEIQAACEIAABOxCAIEwu3jNeEgIQAACEIAABCAAAQhAAAIQgAAEIAABBMLwHYAABCAAAQhAAAIQgAAEIAABCEAAAhCwCwEEwuziNeMhIQABCEAAAhCAAAQgAAEIQAACEIAABBAIw3cAAhCAAAQgAAEIQAACEIAABCAAAQhAwC4EEAizi9eMh4QABCAAAQhAAAIQgAAEIAABCEAAAhBAIAzfAQhAAAIQgAAEIAABCEAAAhCAAAQgAAG7EEAgzC5eMx4SAhCAAAQgAAEIQAACEIAABCAAAQhAAIEwfAcgAAEIQAACEIAABCAAAQhAAAIQgAAE7EIAgTC7eM14SAhAAAIQgAAEIAABCEAAAhCAAAQgAAEEwvAdgAAEIAABCEAAAhCAAAQgAAEIQAACELALAQTC7OI14yEhAAEIQAACEIAABCAAAQhAAAIQgAAEEAjDdwACEIAABCAAAQhAAAIQgAAEIAABCEDALgQQCLOL14yHhAAEIAABCEAAAhCAAAQgAAEIQAACEEAgDN8BCEAAAhCAAAQgAAEIQAACEIAABCAAAbsQQCDMLl4zHhICEIAABCAAAQhAAAIQgAAEIAABCEAAgTB8ByAAAQhAAAIQgAAEIAABCEAAAhCAAATsQgCBMLt4zXhICEAAAhCAAAQgAAEIQAACEIAABCAAAQTC8B2AAAQgAAEIQAACEIAABCAAAQhAAAIQsAsBBMLs4jXjISEAAQhAAAIQgAAEIAABCEAAAhCAAAQQCMN3AAIQgAAEIAABCEAAAhCAAAQgAAEIQMAuBBAIs4vXjIeEAAQgAAEIQAACEIAABCAAAQhAAAIQQCAM3wEIQAACEIAABCAAAQhAAAIQgAAEIAABuxBAIMwuXjMeEgIQgAAEIAABCEAAAhCAAAQgAAEIQACBMHwHIAABCEAAAhCAAAQgAAEIQAACEIAABOxCAIEwu3jNeEgIQAACEIAABCAAAQhAAAIQgAAEIAABBMLwHYAABCAAAQhAAAIQgAAEIAABCEAAAhCwCwEEwuziNeMhIQABCEAAAhCAAAQgAAEIQAACEIAABBAIw3cAAhCAAAQgAAEIQAACEIAABCAAAQhAwC4EEAizi9eMh4QABCAAAQhAAAIQgAAEIAABCEAAAhBAIAzfAQhAAAIQgAAEIAABCEAAAhCAAAQgAAG7EEAgzC5eMx4SAhCAAAQgAAEIQAACEIAABCAAAQhAAIEwfAcgAAEIQAACEIAABCAAAQhAAAIQgAAE7EIAgTC7eM14SAhAAAIQgAAEIAABCEAAAhCAAAQgAAEEwvAdgAAEIAABCEAAAhCAAAQgAAEIQAACELALAQTC7OI14yEhAAEIQAACEIAABCAAAQhAAAIQgAAEEAjDdwACEIAABCAAAQhAAAIQgAAEIAABCEDALgQQCLOL14yHhAAEIAABCEAAAhCAAAQgAAEIQAACEEAgDN8BCEAAAhCAAAQgAAEIQAACEIAABCAAAbsQQCDMLl4zHhICEIAABCAAAQhAAAIQgAAEIAABCEAAgTB8ByAAAQhAAAIQgAAEIAABCEAAAhCAAATsQgCBMLt4zXhICEAAAhCAAAQgAAEIQAACEIAABCAAAQTC8B2AAAQgAAEIQAACEIAABCAAAQhAAAIQsAsBBMLs4jXjISEAAQhAAAIQgAAEIAABCEAAAhCAAAQQCMN3AAIQgAAEIAABCEAAAhCAAAQgAAEIQMAuBBAIs4vXjIeEAAQgAAEIQAACEIAABCAAAQhAAAIQQCAM3wEIQAACEIAABCAAAQhAAAIQgAAEIAABuxBAIMwuXjMeEgIQgAAEIAABCEAAAhCAAAQgAAEIQACBMHwHIAABCEAAAhCAAAQgAAEIQAACEIAABOxCAIEwu3jNeEgIQAACEIAABCAAAQhAAAIQgAAEIAABBMLwHYAABCAAAQhAAAIQgAAEIAABCEAAAhCwCwEEwuziNeMhIQABCEAAAhCAAAQgAAEIQAACEIAABBAIw3cAAhCAAAQgAAEIQAACEIAABCAAAQhAwC4EEAizi9eMh4QABCAAAQhAAAIQgAAEIAABCEAAAhBAIAzfAQhAAAIQgAAEIAABCEAAAhCAAAQgAAG7EEAgzC5eMx4SAhCAAAQgAAEIQAACEIAABCAAAQhAAIEwfAcgAAEIQAACEIAABCAAAQhAAAIQgAAE7EIAgTC7eM14SAhAAAIQgAAEIAABCEAAAhCAAAQgAAEEwvAdgAAEIAABCEAAAhCAAAQgAAEIQAACELALAQTC7OI14yEhAAEIQAACEIAABCAAAQhAAAIQgAAEEAjDdwACEIAABCAAAQhAAAIQgAAEIAABCEDALgQQCLOL14yHhAAEIAABCEAAAhCAAAQgAAEIQAACEEAgDN8BCEAAAhCAAAQgAAEIQOCLBaJFi0ru2bNRxIgR6NBhry8+HgdAAAIQgAAEfoQAAmE/Qh3XhAAEIAABCEAAAhCAQAgFEidKRA4OSSi5oyMlTpKYnj19RitXrw3h2UJ+2J6dW8jVNYt2gqLFS9NZ3/MhPxmOhAAEIAABCHwnAQTCvhM0LgMBCEAAAhCAAARCIvBL/Hjke+Y4RYoUiT59+qT+keeKGDEiRYgQQfuH28aOm0jjJkyWu+mEjyclc3Cgf//9lz58+Jf+E/+TmziKokSJTJEjR6YZs+bQwEHD5K5w8zlrxhSqVLG8ev6Abvy//8STi394Y8ePHz/So8ePae+e/bR46XI6f+FiQIcG2B4pUkSKFCEivRe2ob1x8MvH+xBFjx7d4lLv3r0jh+SpLdpDs6FsmVK0eOFcdYkWLdvSHx6bVB0FCEAAAhCAQFgVQCAsrL4Z3BcEIAABCEAAAhAQAjWqV6UZ0yYF26Jf/0E0c7Z/gOLR/VtaEC2oE3AAbeTocUF1C3P7fU/7UBIxKuprt3v371OVKrXoxq1bwTrVnFlTqUL5cprt/PmLqGef/sE6LqSdChbIS+vXrrJ6+PXrNyhX3kJW94VGI0+FvHrJl+LGjatOP2ToCJo0ZbqqowABCEAAAhAIqwIIhIXVN4P7ggAEIAABCEAAAkKAR4S1aN6UYsWKSQ5JHah48SIWo4J4pJPnkSN06NARmjFzDr15+1bZtW7ZnJo0aUjOqVKqNi7wiCgO/ly6eJkuXrpE48ZPNhxn6ByGKyVLFKOsYnpe9OgxqHCh/OTiktlwt76+54SNF/3zzz8UOUoUiiH6JRWBswwZ01OK5MkNfXmkWPcevWnRkuWGdnPFHJxky0RJnczdvmk9TuxY1LRJI0qY8FeqXbsmxYkdW51/6bIV1LlLD1UP7cLAAX2pfdvWhsvMX7CYevTqa2hDJfwITJ08nvLmzU1bt26nfr8PDj83jjuFAAQgEAIBBMJCgIZDIAABCEAAAhCAwI8SsDYy6MWLF+Sc1hgA0t9fpw5tqX+/3loTB808xBS2zl260+u/3+i7hfuyOUDDz5osRWp69+691WcrkD8PzZ45nX79NYHaz8GwbO55yO/efdVmLqxbs5wKFSygmv/88wllyOym6qFdOOq5n1KndlaXqV6zDu0/cFjVQ7PAgdkL505ZjDLctn0HNWjUPDQvjXOHksCIYYNFsL2JOnu6DFnoL5F3DhsEIAABWxVAIMxW3yyeCwIQgAAEIAABmxW4fOE0/fLLL4bnq1WnAe3Zu9/QxpV8YpTHhvWrtRxaHz58oJKly5PvuQsW/WyhYd/ubYYRYQ8fPqLMru6BPlqJ4kVpxbJFhj77Dxyk6jXrGdr0lS6dO1Cf3p9HYHGwrW37zrRm7Xp9l1At66e7cuAusYOTyHvmn/stNC++Yf1Kyp8vn8Uljh8/SaXLVbJoR0PYFzh/9gQlSpRQ3WhSh5TfJe+duiAKEIAABL6zAAJh3xkcl4MABCAAAQhAAAJfK9Cj22/Uo3sXw2lOnTpNJUpXMLSlS5uGDuzbqSXD54BJGRGoOHHytKGPLVXu3rpimDa6ceNmatqiTZCP+OfDO4Zk+48f/0kZXbIFelzVKhUpm1tWMaV0Ej17/iLQvt9yZw737LRtywZ1Sj+/e5Q1e25VD81C7lw5aPNG6wG/GzdvUc7c/qPkQvM+cO5vJxBDLL5wR/y9kdvz588pdToXWcUnBCAAAZsUQCDMJl8rHgoCEIAABCAAAVsW+ClaNO2HV14xUm48MiltehcVlNGvMsj76jdsSjt27pbdbe4zmUNSOn3S2/BcTZq1pE2btxnazBV2Onf2uKH5rcix5uiU1tAWVipjRg2nJo0bqNtZvWadNiJNNYRi4ZxYvTRx4kTaCqRXrlyljBkzqKt97+mh6sIofJVA/Xq1aeL4MeocBw8dpqrV66g6ChCAAARsUQCBMFt8q3gmCEAAAhCAAARsXsDaFLXZc+ZRn34DKVbMGHTyuBfFjx9fc+jStQctXrrCpk26dG4vpiv2VM/IwT+HZKmCnOJVs3o1mj5tojqOC7yIgKtbLkNbWKkcO3qIUqV0UrdTp14j2rV7r6qHVoGT43MONt4GDR5GOXO6U5nSpdTlwnLwUN0kChYCK5YupBJiwQm59erdn+bOXyir+IQABCBgkwIIhNnka8VDQQACEIAABCBg6wLmKXL8vDytKV1GVzru7UmOjsk0gtFjxtPosRO+K0dWVxdq07qlGIG2i9b/sfG7XHvr5j8oZw7/fGAPHjwkl6w5grz2QTF1VD+yiQ+YNHkqDRk2Kshjf0SHxw9ukxwJyMG+RElThHp+MJ4+d/3qeYoiVt2UeddGDR9CzZo1VgQ89TZhkhSqjkL4ELjge1JbiVTebZp0mdWoUtmGTwhAAAK2JoBAmK29UTwPBCAAAQhAAAJ2I3BRrN6nX/GQH5ynqMm2ZctWUKcun5O6f0+Uq5fOUrx48bRL5slfmK5evR7ql791/RLFihVTXeePDR7UolV7VbdWSOXkRMe8Dxl2vXnzhtJnzEpvxPRI/carJfbu1YPSp09Ljx89pjXr/qBt23fquwSrHF+4FCtWhPLkzklpRQ63Gzdu0s5de2i3GNX1z7t3gZ6DFz7w+GON6nPv3j1yzWaZH6xO7RpUtkwpEbiKSqNGjaVTZ86qY0JSWDBvNlUoX0Y7tHzFqnTU24f0K5HKc3JQ7uPHT7Jq8RkpUkTq06u7GE2Wg27duk279+wlj41bDP14NGOJ4sU0Iw7menp60fIVq6yu4plLnKdokUKULZubyIMXia5du0ErV60OcR68aNGiUu2a1als2TLCLrKYAvqR9u0/QPMXLApw5VG++QQJ4lPnju3J1TULPfnzL1q/YUOQU3L5uExiaun5Cxe5aHVr1KAu1ahRje6JFUy3i+/aH2K1V/3GViVLFqeSJYqTg5gafPv2HTp40JNWr12n76bKPKU6Y8b0Wj68iBEjaQHVzRvXqfx4PKqvZu362nPzQQ8fPaS7d++p41GAAAQgYCsCCITZypvEc0AAAhCAAAQgYHcCHFTo8ltHq8+9d98B7YdaqztDufHenWsUTfzQzVvV6rXo4KEjoXrFJCJvla/IX6XfGjZuTlu37dA3GcocvPA8uNew+iaPaqpYuboW6NF3LlwoP61asZQiRYqkb9aCE/UbNTO0BVbp3LGdttqkHNGl78uju/ieAwuujR87kho28F/NkleqbNOukzoNJ7NfsmieCkLKHWPHTaSRo8fJ6hd98oILhw/u0YIlhz09qXLV2trxvFjA7JnTDOdyz5mPbolgjLWNg2BnTh7Tcozp9x/1PkblK1bTmiaNH0316lnPT8XTVd3EogC8OmYWl0w0b+5MSikCmdY2r6PeVKFSdWu7rLZx0HDA7321KacRIkSw6MPvZuGipdS9Zx+LfewwfeokbUEK/c6dIh9f3QZN9E2qXEoErxbMm0VRo0YVQS7LYCYHrHiEY5YsxqT13sd8qFyFqtp5ArP666+/qHDRUvRArJqq3zjolTtXTn1ToGU5+i/QTtgJAQhAIBwKIBAWDl8abhkCEIAABCAAAQiwAE9Zu33zshrRIVUuXbpM+QsVl9Xv/nntsi/9/PPP2nVz5SlI18Wop9DczKOTOHCR2MHJ6uikiBEjUN06tWjoYJFLTTeC7PXrv0WQoYrFCJ1sbq5ilUYPLQj26vVrunb1GrmJ1SLlVqFSNfI6ekxWA/xcv3YFFSyQX9vP9+d55IgYwXSTHJImoaJFC2vn//fff7VgjzmAIU9qzg9WTwRa5AIIzZs2phHDB2vfhXdiZNmzZ89V0Cm400TldfSf3kcOkLNzKmH5kTJmdqO/nj7TdltbQbJmrXq0d/9B/eGqvGDuLKpQoSzxsx854kX58uVV+3j0Xg53d0qWzEFre/nqlRZkzJEjO+mDXTzCcfPW7bRsyQI1PZS/W6dPn6HiYpRd3Lhx1TkXLFxiNXClOvy/MHXyeKpdq4Zqfv/+PZ0/f4EuXb5CWcUIrwwZ0qt9Bw4eomo16qq6S+aMtGfXNu1e+J7Pnj1L+fPlU/srVakh3vNRVZeFM6e8xXtPqlXZNVFSJ7lL+5w3ezpVqlRBBP0+0alTZyh7dje1P7hWd+7epWzu/sZ8At/TPpQkSWJ1rqAKnp5HqFLVWkF1w34IQAAC4U4AgbBw98pwwxCAAAQgAAEIQMBfwJwbi/d8rxxXTcXqhcOGDqK3//xDjZs0VyO/Tp84qoIacrpcnDixyWP9asqcORPt2bufatdt6P8QX1nasmk98TQ5/cYjeDjoElVMcYshppDFiROXHEWghYM6+pFd3Gfd+g3UpWtPi+mQfL7LF05ro8YeP/5TBBbyUKZMGWjHNv8palOmzqRBQ4bpL21R1q/Mx4GWnLkLqKl+SUVg4qgINsWIEUM7LrDprOb8YDLYp18oYMOGjbTuDw9tZJi8EX7GXxMnl9Vgf9aoXpVmTJuk9Z88ZToNHjpCHcv3fVYEVvRb1249adGS5fomrcxT+G5cu6gFjKTX/bvXtRFR+s4cwBs8ZATNEos+yO2EjyelSG557zxCrK0YDScDTTzi7OG9WyoozKOi0okprgFtfE+HxYhAGXzjfjzijQNd+umd48aMoEYN66vTNBAjAOWoPTkFmK+VxS2nCJy5En8X5TZ1+kwaOMj43eDr3rpxWXYRUw/9yE18r+TGU2cvXzyjPUe//oNo5uy54rluWow4C46VU6p09PrvN/LUxNN7OUAdUVhFjhRZC/Dqg8FFipWiN2/8pwRzANU8RVidDAUIQAAC4VgAgbBw/PJw6xCAAAQgAAEIQGD40IHUsoVxeh7nCcsgRu+E9rZj60bDaJVFi5dS1+69ae+urdq0LplAnaeCzRdT2eR0Sb6vb5mU25wfLLjPzVMLBw4aQo8eP7F6SEmxmt7ypQu1gFrBwiXoohhp11VMRe0tpqTKLThBx+tXzqnRSiNGjqFxEybLw8k8xU0GilSH/xc4p9gmD//cT3Jly/59e1InkZ+Kg109xNS9BSIAuHPbRi1vljzHI5HTLFOW7LIarE8OLF2/ckEbNffs2TNKkz6L4TgeWff4gXEa5MRJU2jo8NGGflwZ0L8vdWjfmj58+EBJxEqevOmDelzn70qxEmXI99wFrqrNPGKLd/D3O2v2XBZ5u86J6bGJxTRZ3uR3T6tY+WPPzi1aTi+5a6kYbdbZSj69qJEjk58I2snprNJdTg1ld56GyLm+hg7+nVq3aiFPSePFex4u3rd+0wdFud08vVVOd+bRhymdM2iHPrp/yxC8Da4V5/viKdLWNh5NeufWFbXL2jtWO1GAAAQgYGMCCITZ2AvF40AAAhCAAAQgYD8CBQvkpXVrVqpRMPonL1WmQoiThuvPE1h5zqypVKVyJUMXHuHCuYV4WhsnnueVI819eBpZqtQZDceFtGItP9gxn+P04vkLihAxopb0nHMxcTLx5I6Ohsv07TfQMPrIsFNUDh/YLZLjpxPT005TidIVtN2njnupFTm5oUy5yuRz/IS2z9ofnID93h3/xQLMARezYeYs7iJJuTG3E5/XPDKJR349f/GSGjeqrwXB2rbvrAVVuO+h/bsMU/pWr1lHvP9LNv316tRrRLtEMn/zZg5mBXQdOSVPTrXLni2rYVQdn7d9h99o5eq15kvQ/DkzqGLF8qqdg2k5cuVXI+rUDlHQLx5hbcqh7CuDTbIe1NRRfSBTBti8Du+jNGlSi8DdeSpSrLR2Kvmc8rzFS5al02d8ZVX7XLViCRUrWli1mXPZnTx+RPuebtu+gxo0ai5GmbnQ7p1bVX8uBNcqsPx8vCjA1CkT1Hn3iSmtNcTUVmwQgAAE7EEAgTB7eMt4RghAAAIQgAAEbE4ggwjQ7Nuz3WLKlHxQfWJz2RYan9WqVqJBA/qrkTiBXYODGEuXraT+vw8KcoXEwM6j36efFsjtPEJHThnU9+MyT+UcPWq4obll63a0/o+NhjZZkbnOWrVpL6ZPelAyEUw7fdJb7qYXL16Qc9rMqm6tYA768P1t37GTlixdoa2ayAG6OTOni9FyUcVoqlHatFFr5/H2OkjOqVKqXbzCX3QxqofP16hJC8PCAJy/a+b0KRRfTIXjQE0tMTJIP0VOnSSAAk975OfkUVAnT56ikmUqWu1pnt5ozqElD5Ijmlq0bKutfDh82CBq2byp3B3oogM+YlVPfZ6wxk1b0uYt29SxssB+frevqaBwQMFWzuu1d/d21Y+PDyporA+wcX8OVh4+uFubZti2XWdtlUZzQFY/oouPkZucTsl1fncOYoTce5EbTm7SSk7BHDywH7Vt00ruDtTqzMmjIuD7Oc8aHxBQUJX3LRd51njFSbl179FbG00o6/iEAAQgYMsCCITZ8tvFs0EAAhCAAAQgYJMCHKjgwIgMhNSt39iQQJwfmkeuJHdK+80CTkFBlildkgYP6m8IWshjOJ/R7DkLaMSIUYYf+uX+r/nctnmDNvpMnkNOXZN18+e6NcupUMECqlm/aqFq/H+BV4v89deEaqTVpAljqF7dz6smchc5FdR8nL5uzgml38fviFdZ7Na9p8qvpt+vL8sAib6Ny81atCaPjVvMzV9V10+t5EDYU5F4/5NI6s6BG/6HV1bkf/SBFL7gBTE9sGCRkhbX5immnMiepwHyduTQXkorVqOUW8nS5emkSApvbdOPOtNPrTT31ecz431y9Jm535JFc6lM6VKqOahcYtzRbM8rN0aPHs3w3Rg1fAg1a9ZY9P68cd65Vm06yKr2GSd2LC1Xmmy0NmWVrf755636PphH9wVkxVM47/ndUAE+Ho2ZPGU6eSmLT3NwL1WajPTy5SuLfmiAAAQgYIsCCITZ4lvFM0EAAhCAAAQgYLMCnHT+pM8RtSqjHGWzYf1Kw4p1DDB6zHgaPdZ/+lNoosT7OS6NHDGUqlWtbHGZixcvUZduvQKdQmhxUDAb7ohVM2WieT6EV9Vr0ap9gEebR5AFFTDQn+jm9YsUO1Ys1RTYiBvVSRRkwn19m7kcUH4t7mdthUb98U+fPiXOPcb5wb52K1G8KK1YtihEpwlqiqE8qT75e2BTGAvkz0N/rFstDyP+HhUQudqsbeYph336DqDZc+dbdL0r8mJxAFlu8+YtpJ59+suqxWc6EbDzFIE7/WYtv505sFRIBAQ5b5h+a1i/Do0f559Dbfv2nVRfJN8PbHsggltRokTRugRmZQ4E8vTgsuWrWD31T9Gikd+da2rf8+fPKXU6F1VHAQIQgICtCyAQZutvGM8HAQhAAAIQgIDNCPCojxMiR1USMSKMt/4DBtOMmXO0cg737GIVuA1aWf7BKx1mdMkmq6HymShhAho7ZiSVKllCJRQP6ELXrl2n7j1706HDXgF1+aJ2R0cHOnX8qOGYgKbOyU763FfcJnM+yf0BffLosLWrV6jdN2/dErmq/EeWqR1WCjyNdf/eHYaE5+ZuPNKKc1/xCDHzNnb0CC0XmGznaX9RxHdBH9DhfYGNbpPHBvUpp+6xCwdIAtt4lJd+Bc6ApiPqz2HOeXX9+g3KlbeQvosqjx87kho28M9bNX3GLPp94FC1X1+4JwI7cjEGtnROm8lihJM5sMbHu+fMZ9Vcnrt7187Us0dXWbX6fXFKkZyOH/NUfQJKPL9y+WIqXqyI6tehUxdasXKNqpsLPI1z354dqjkwq+1bPMjd3f/veq/e/Wnu/IXqWH2hZvVqNH3aRNUU0JRW1QEFCEAAAjYmgECYjb1QPA4EIAABCEAAArYrIJO38xPOnDWH+v0+2PCw5lEpvDOgqVSGA0NY4dFVvXv1UNOx+DQ8fe3Bw4dawm99WX+JEydOUamy1vNO6fsFVe7R7Tfq0b2L6sYBEHPOJbXz/wXvIwfI2fnzyoXc9P79e0rq6GzuZlH3WL+K8uXLq9r79R9EM2fPVfWgCqmcnMTU0CHkljWLyN0V32r3jRs3U9MWbSz2mfOD1arTQMsl1qxpIxoxbLAhAPk1uZ7kCpR8A527dNfyuVncjK7BnGfqX5HrKrFDSl0Py+LwocZVThcsXCKCo30sO4oWc36wosVL01nf8xZ95eqecsf1GzcpV56Csqo+e/fsRl27dFL14Lx78zTOK1euUt4CRdU5uGA+r3klSNnZPDLQKVW6QHO3mVehDMiKV/h84HdTfQ84iJlMfKf1ucfkPfDnssXzqVQp/5F1PXv3o3nzQzYKUH9elCEAAQiEFwEEwsLLm8J9QgACEIAABCBg1wL6QMymTVupSfNWFh69xMiVbmIEi347dNiTqlTzz2ul3/e15XNnjhuS5POIlXIVq9CShfO1vF1yKpd5RBNfN6kImAT0g3pw72vX9k3k5pZVdefVKjO7uqu6tYI531NAo3f0x/JIPL+711WggZ/LMXlq7f555c7ixYrSwoVL6YYYJSY3nn42YfxoLcE9rxzYq08/MZroP203J3avVKECjRo11DDV0uuoN1WoVF2eQn3q75mDHLwYgDxX65bNaeiQAarvwUOHqWr1Olqd76F1q+Z0189PS/avOlkp/CIS6184d0ob4RXc0W6TxPPVq/f5WvKUCRI5yqLVT3NgqXzFqmIkm4/Vvvr8YIEF2fR/N/hEQ4aOoElTpotniUg9u3ela9duaAntzaMBr169Rnny+4/QMt8E+929fdUQ6G3TrpPKdSb779u9jVxc/BdNsLbKZgwxHfOOmJYpN/10xCqVKmgrUI4dP1G9V+6nD3xzPSCrJmLl0DFi1KDc9IFmDhLmFCu4Tps+i56JlVR5MwfMzVM9c+XMQWXKlCSPDZvo1Jmz8rT4hAAEIGAzAgiE2cyrxINAAAIQgAAEIGCrAnNnTaPKlT+PoPLxOUFlyle2+qj8gzv/sM2r/cmNAyehlTR/jFiBsYlYiZFHYs2YOVtNW9OP5JGBEQ4YLV28QMvnFZyAlbz/wD710+G4X0AjquQ58uXNTR5/GKei3bt3j1yz5ZZdrH62a9tKrIzZT+3TJ2K/fuWclgh+4KBhNHX6TNXHnMTf2kgtTp5+/eoFFWjh4/k8+s3NNQvt2umfDP/uXT9yc8+juphzWOlXeZQJ3M3HqIN1hU0eaylP7lxai7X8Vrquqmgt8JrJxY0ePX6i+pgLIc0PdunSZcpfyH+VQ/159efk72IKkST+jVhVs3PHdtSvby9tlGISsTojj55r0byJOnTvvgNUU6yoGdA2ZdI4qlO7ptr9559PKENmN1WXBd/TPmq6Ml/f2qqltWtWp6lT/PP1yQC1fiXSVKkz0MtXr+VpSf9cMqisduoKPO02c6aMqkXmDdR/N+TIUP53hD4/mLWVT+V3etnyldTpt+7qvChAAAIQsBUBBMJs5U3iOSAAAQhAAAIQsEkB/SgWHqnDU77kaCBrD2wtaf74CZNpuEimHhob53z6SyRrv3v3njr9lYtn1PS/LFlz0P0HD7V9/EO4qwjseB+zPgJInSAYBf0P+bJ7UCsomqdS8nHmqW6lShanpk0aESev9zp6TDv1CR9PSpE8ubwMVa9Zh/YfOEwVypehBfNma4FAt+y5ye/efa0Pj/i6e+uqISBpLcjF/fxuX1OBsOIlyxKPHtNv5ulxK1etofYd/aeD8v0uW7JAHeLhsYmatWyr1eWIvYBGEMqD9OfYsWMX1WvYVO4K9NOc/J07V6hUTbmZD87ikon27t6umgOawsgdzKPNAsoPxqOXtmz6vBolH6d/nzeuXaA4sWOTHCFlDoTy95BXgLS2cX4uvldeHZM3DnDx1EzfcxcsuutHWL0VAThHsVqreTMn85f5/fr16UGdO3UQAbBXlCq1fzDLIj/YDevTPfk6+oT6+pFz69euoIIF8hum//Loszmzp6vb0wd1uVEuJsEB9IwiqPnkyVPVFwUIQAACtiKAQJitvEk8BwQgAAEIQAACNiWQJo0zrVm5jJIlc9Cei3/ATpfBVRvpEtiDWkuar5+GFdix32qffmW+gKZzfe21zAEiDlQElR9s4IC+1L5ta8OlT506TSVKV1BtMniybNkK6tSlh9auH3n2+vXf5OScXmuXubvMI9HMARe+t9wiITwHfvSbPjAXUADFPNpH5geT5zGvFjh02EiaOHka6QOFgSWEr1a1Es2YNlkF7VKlyWiRZF5ey/xZtEghWr3SuFJll649aPHSFeauWn1A/77Uob2/f2ArNupHFfLBAY1SM4/yGjR4GE2ZNpP0QTp9brH7Yopr1KhRtfsJaIQXByhPHDtimPY7afJUGjJslHac+Q8ZcJTtDsmd6d2797Kqrfq5yWOdCqrxDjly7swpb3JImpTMwcrgWvFCDIcO7FbXkgsmxI8Xjy6LgDQH8vRBRM4rN0qs7iq34SNG0fiJU7VqNjdX2rFtk3bM8hWrqGPnbrIbPiEAAQjYlAACYTb1OvEwEIAABCAAAQiEVwEOXHA+H56eliFDei0AJkej8DN9+PCBJokAx6LFS0Uy+kcWj5lUrCRZs0Y1KiKCE/ny+k+dkx0Pe3rS/v2HiKclXr58JVRz/+gDYVWr16KDh47I2wjxJyebz5nTnWLGiknJHJKJ3FfNKEqUKOp8PHVs3PhJ9OjRIxEs/If27NlHT589U/u5UL5cGVo4f7ahzc/vHmUVo7l40+fbKlGynDK6ef2iyuXl63uOihQXI8HmzqIKFcoSj8BJLVYofP33G3Vecz6oVm3aW+To+r1fb+rY4fPILT6wSbOWtGnzNnUOWdAH4cz5wbiPecVCGQiTgSRzvq+IESMQrxqYV0wTzZMnF6UUrvqNAylr1qyjVavX0T/v3ul3aWUOvGTP7kapUztT5YoVVKBWduRpmEuWLhcjiZ7QiZOn6fyFi3IX7d21lbJkcVF1fYBKNf6/oM+LFlhSe3MgjIN+//zzjryO7NfemRwNJs+vXxCA28yLTnBgcOL4MYYVOUePGU+jx/pPa5Tnkp8zp0+m6tWqyCrpp8HyCKwZYn/kyJHVfi5kz5FH5BVzUd/HfCIB/+UrV1Wf4FrpA5588JSpM0XAbjgd2LtT+/fIO/EOk6dMSx8/ftLOLUcxygvNnjuf+vQdoAXrOKgZI0YMbbXQTFmyG4J5sj8+IQABCNiCAAJhtvAW8QwQgMA3FeCEwfnz5yWebpFJ5NzgHzIiRYqsjcLYvWevlgdHPwWIL865b2ZOn0pjx02g+WIFLGwQgAAEvlRAH2wJ7NidO3dT3QZNLLrI0UkWO6w06KdPWdn91U11ategtq1bimlk56lte2Py/pCeXD/dMjjnGD5itBjpMsXQlZOnX718TpsuJ3dwcGnkqLEUM2YMEZhqp42GOeZznMqW9w9s6PNnsd2jx4+1UTx8Dp5COXT4aHk69Snzc8mGV69fi4T7fhQrVixtpJE+iBfQaCP+/6PLF/2Tld+5e5eyueeVp1Sf+ql5HDR6J/6JLa7Dz8YjqS6K/Fpyq1qlIs2eOU1WA/zs1bs/zZ2/0GK/Ph+WxU5Tg3m6n/47HlhwK1PGDHRg3051NnMwS+0QBZ6au3vnVtXEgb9kDg5akJRH7xUoXMwwbZc7mpPbc3D41u3b5OiYTL1X7sfB59ZtO5DHRv8cbdxu3jjP1/FjnoZg1+PHf2rTKRMlSqh1f/PmjRZck8FttokVM6Y2Em+3CNrWrtvQcNrgWvFB+sAzn5c3nhLKIxE5CLv+j41am/xDP4KNn/GO+F46p0qp7ebvae48BQLN8ybPg08IQAAC4VUAgbDw+uZw3xCAwDcX4N+Q9+zZxZAHJqCLrBa/LW/f8TctTw8HwdauXqH9x6yckhHQcWiHAAQgEJDAnZuXtdEY/MOrtY1/gOZ9/foPollz5ll0OX3iqBqdE9g5+MBz5y9Q4aKlLM4RlhvY56efftL+XRvU8/FzBDTaKEGC+OR1eD/FE1PHrG0PRD4z91z5DKNhOCDFgcaff/7ZcIh+yplhx/8rPBWzTasW2kqM1vbfuHmLevXuR5y03dqWKGECOnf2pJpSZ23FQj6Oc295bFirRq1xGwfB2rTraDESTeaA4j56Rxmgkcdmz5nXIoDE++TUUS7rj+c6b/rzmKedXr10Vrnz/48GFCTloIyX537tXfM564nA7w4RAA5oMwcdud+9+/epSNHSFqMCeR+Pihs8sD+1bNFMXYPb5cZBurnzFtAwEUzVT3GU+6198i/Pli6ep55P34enPTZv1UYbsTl54jiDEQc3+e/iy5efA1jyuOBacf8ypUuKXHWzDIE4DnBVrV7bar429t2za5sIysaUl9M+r127rh0jc/oZdqICAQhAwIYEEAizoZeJR4EABEImwP8BOX3aJMMPEPJMnFeHf6vL/4GaPLkj/fprAvUfsJzrpVv3nrRuzUr1H9I81eH2HT95OD4hAAEIQCAMCsSJE5uai1xJOdzdteljHOB6//4d/SFGzvw+aIjV4AcHT+rWqUXZ3LLSTRHA+mPDRpUcP6hHTJI4ERUuXFD8/0xsLfhw/cYN8jziFaxE5EXFceXElM41a9fTUe+AFxmIKqbeVa5cidzds9H16zdowYJF9F6MXgtLG0/jq1a1sjaibt78RYHemqOjA3Xq0J42b9miLUwQaGexk6fO8lTVuHHjiqm4h8Q/noEuKsHniyVGAebKlZNy5nDX/v+dp3EeOXLUMIIuqOua9/P7cnfPLkaWJRELH5yljZu2iMUk/Kfo8nsqWaoEZRTTn5+Kdmuj7vicX2LF/XkF0ipiZdlo0X4S1/uLdu3aY1iBkvuYNw6g1qtTm56/eEE7d+3WprKa+6AOAQhAwBYFEAizxbeKZ4IABIIlwDlcFi2cS0XEf7TqN84zs3jJcpo6bbpFUIuTz+7audnqqDHOw+GQPLX+VOG23K5tK5FouK72G/XatRuEuR+mfhQsXH6UPK4LAQhAAAIQgAAEIACBbyOAQNi3ccRZIACBcCbA000OH9xrMYXh7FlfqlOvYZC5MbwO76M0aYxBLz62aImy4UzC8nbz5M5JvLqV3Pr2G2h1Gpbcby+fcLGXN43nhAAEIAABCEAAAhCwZQEEwmz57eLZIAABqwKc/H6/WE1JnxuD84F06dqTVq5ea/UYc6ObaxYxMsyYPJdXKxshEi6H923BvNnEq0rJLaCcNHK/vXzCxV7eNJ4TAhCAAAQgAAEIQMCWBRAIs+W3i2eDAAQsBHhq45lT3oZl0TmhcJFipQ1LvFscaKXh5PEjlNzRUe3Jlacgcd6w8L7pVx/jZ0mTLjM9e/4ivD/WV98/XL6aECeAAAQgAAEIQAACEIDADxdAIOyHvwLcAAQg8D0Fjh09RKlSOhku2b1Hb1qwaKmhLTiVlcsXU/FiRbSutpIfjJPt3rh2UT3+C5FA1zltZlW31wJc7PXN47khAAEIQAACEIAABGxNAIEwW3ujeB4IQCBAgUkTxlC9urUN+7du204NG7cwtAW3MmLYYGrRvInW/YxYGapYyXLBPTTM9qtXtxZNmuA/vfPgocNiKfU6YfZ+v9eNweV7SeM6EIAABCAAAQhAAAIQCF0BBMJC1xdnhwAEwogAJ8c/d/YkRYgQQd3RX3/9RRkyuwW5vLo6wFTo37cnderYXmsdPWY8jR47wdQj/FWXLppHpUuXVDfes3c/CmqJe9XZhgtwseGXi0eDAAQgAAEIQAACELArAQTC7Op142EhYL8CyxbPp1KlShgA+vUfRDNnzzW0fUmlT6/u1OW3jtoh2XPkodt3/IJ9eIb06bTRZClTOolA3Cd6/PhPmjFzNp31PR/gOX6JH48mjB9NceLEpiNHvGnV6jUW18yUMQOVK1ua8ubNRf/8854uXb5Ms2fPo/sPHlo9bxaXTBQlShSKGDGStn/p4nn0yy+/qL71GjSh5yI/GN/j69ev6eKly2ofF3LlzEEd2rWmyOIcq1atoY2bt9DHj59Un6pVKlL1qlUoarSodPPmbZo0eSr53buv9gdWiBo5MhUpWpgK5M9L6dKlo7Nnz9LyFau/Og9b0cIFqUqVSpQqVUp6IZ7t1OkztGfvPjp56oy6na91USfSFTg/XTExlZZXn0ybNg3dEPnkdu7aQ7t376V/3r3T9UQRAhCAAAQgAAEIQAACEAgtAQTCQksW54UABMKMAAeQLl04YxgNxqtEJkuROsSjwfjhhg8dSC1bNKOXr15RqtQZg3zen6JFoxnTJlORIoUMK1bqD+SAWIVK1SyCPTWrV6PJk8ZSZBEckhsHp6pUq0WeR46SS+aMtH7tSoongi3m7b///tOCbL8PHGrYxQGsAb/3NbQFVUmQyH9xgCaN6tOY0SMMh3z8+JEqV62pBc02rF9NcePGNezne6lRqy7tP3DY0G6uNGvaiAaKe4sePeNHEPEAAC0FSURBVLp5F/HoO96aNG6o2ZcpW4mePntm0U/fwEG10aOHU53aNSlSpM9BP/1+Lu/cuZvqisDf17qYz8v1zh3bUZ/ePUTAMaLFbjZp2Lg5bdu+02IfGiAAAQhAAAIQgAAEIACBbyuAQNi39cTZIACBMCiwYO4sqlChrOHOVq9ZR23bdza0haQSKVJEwwiogM6R1dWF1q9bRXFix1ZdHj58JEYhnRLH/0elSxXXRmbxzn///VcEw6qTz/ETWt8ECeLTBd9TWhDl3v37FDdOXBVI477jJ0ym7t1+0wJ9HFQ55nNcG+nEATce7SU3Ht21QwR75DZn1lSqUrmSrAb5+UqMCEvpnEHrlzhRIm31TQ4q+fndo7g/x6XYsWJp+zhAxxsHfbh84sQpSpjoV0qRPLnWzv2zZs+tlc1/RBMjx/bv2UFp0qRWuy5cuEhXr14To9zy0K+/JlDtshDUyL5KFcvR1MkTDEE1drxw/iLFiBmD8ubJrYKks+fM064RUhd5T/rP9WtXUMEC+bUmfj+eR47QtWs3ySFpEipatLAWmOP36CZMHojvBDYIQAACEIAABCAAAQhAIPQEEAgLPVucGQIQCCMC9+9ep6hRoxruJpOLGz16/MTQFlqVls2b0rChA1WwhYMedes1or37D6pL8rS5874nVOCKAzWubrm0/cuXLKCSJYsTr+CYIWNWGjTod5WkX51AFLyOelP7Dp3VdMmCBfKKUWKrVJf9Bw5S9Zr1VD2GGG2VJElirc4jzaZMGkfZsrmp/cNHjCaPjZtV/fnz5/TX088jr2bNmELVqlYmXi0zTToX6tWzK7Vt00r15QIHzkqXqUi5c+WgcWNHqX0fPnygJMlSqbosxBJBKS/PA+qeOGjUsXNXWrFyjdaFg46nT3ir/fK4Vm3a07r1HrJq+KxWtRLNnD5F2fNIwOYt29LWbTu0fs2bNqaRI4aoY67fuCmmY5ZS1/hSF3Wi/xfq16tNE8eP0Wp87Zy5C6ipoUmF/dEjByhGjBja/mXLVlCnLj3Mpwiy7pQiOa1asYQiCp/Q3Ly9fah9xy6heQmcGwIQgAAEIAABCEAAAqEugEBYqBPjAhCAwI8U4ODKrRvGvFavX/9NTs7pv8ttcQ6tzRvXqUDM27dvqUCh4nTr9h2L60+dPJ5q16qh2nm6HAdsZCBvwKChNG36LBorpiM2FtMS9dthT08xJdG4Iibv//PhHXXtu3f9yM09j/4wQ/niuVOGEVepUmcQUw9fG/rIiryn6TNmEU+5nDtrGlWuXFHu1kaC8XNevnKVvA7vM4zw0gf51AGisH2LB7m7Z1NNHh6bqJkIWuk39tyyab2+SUxLtX6fFcqXofliNKBcIIEDkK5uOQwBUPMzXxH3m7dAUcP5zX0Cup7hoP9Xrl85p6aHjhg5hsaJ0XtymyTyvdWrV0dWacrUmTRoyDBVD26hZIlitHzpwuB2D3E/nvaaKKlTiI/HgRCAAAQgAAEIQAACEAgLAgiEhYW3gHuAAARCTaComB64euVSw/nPnb9AhcWon9De4sSOJVaqPKFG/PD1mrVoLUZZbbF6afPopOUrVtGGDRtp9aplxKOjHFOk0ZKqHzm0V0u2Lk/CUyxds+W0mKIZMWIEevzAP+B2+84dyp4jnzzM8Mmjw+7cuqLanomcW2nSZ1F1faFE8aK0YtkirSlzFnd6+EhM8Tx+hJI7+ucP4+maw0Xgh7djRw9RqpROXNQ2GTyTdf5s3bI5DR0yQDXxSDPnNJksksibA5s8Si21GJFm3uKJqZqcF06fD6xrt560aMlyQ9c7Ny8b3o8MNspOX+Iij5GfPM3z3p3rskpLxYivzroRX+apqdJSHfAFhXZtWxmm3Qb3UP5eyamsfIy+zmXRovLonT3raxjFGNxroB8EIAABCEAAAhCAAATCkgACYWHpbeBeIACBby7Qq0dX6tbVmAvMHJD45hf9/wnNI5w4z1We/EUCvBwnxJ8+baLa7+NzQqyU6EvNmjUm/SiqB3431BRKDmJkyZpTC0apA/9fMI8U4txhZctXMXfT6rVrVqepUyaoffvEtM0atfynUaodojB65DBq2qQhcQAus6u7tuvR/Vsq6MQjhxyTp6b3YgQWb4UL5adJE8dRvJ9/1vKe1a3fWEypfK/t4z84YHf31lWKJhYTkFtAeb9qVK8qFhyYJLvRocOeYsEAy5Fw5lVCL168RAUKG1cN5ZPwyp8dO7Qlnq65QYxA69q1p7pv3v8lLtxfv2XPlpV2bNukmjiwtH3HTlqydAXt3rOXHByS0pyZ08VzR6Whw0eJlSv3q74oQAACEIAABCAAAQhAAAKhI4BAWOi44qwQgEAYEZD5tfS3E9ioLH2/wMqdRPDk55/j0cjRYwxBHXkMjwa7fvWCmpbH7R06dVH5rmQ//eeo4UO0oJds43xVlavUoAL584sgyV4tPxevDrlPJJOXW2DBNfN0Rc75NX7iFHmo4dMcOOrRsw/NX7jE0EdWkiRORIUKFqDzFy6Q77kLZA74WJteKI+19mlepZEDRg4ih5gMpOmPWTBvNvGUR7n16TuAZs+dL6vap6OjA5308TLYh/Sdf4mL4SZExTx6Tb+fA5g8PbZb95508NAR/S6UIQABCEAAAhCAAAQgAIFQFEAgLBRxcWoIQODHC6wR0wqLFC5ouJH0mVzpyZOnhrYvqWRxyUR7d2/XDnERI6KsrfTX9beO1FuMNpIb56dK6phKTTOT7frPfXu2k0vmTKrJ84gXVapSU9W5MHhgP0NS+nnzFlLPPv0NfWTlgu9JSpjwV1mlgO6VO1jkwUqTkV6+fKWODawwYthgQ/J+a1MfAzv+zMmjYnSUg+qiH2mmGv9fOHfmOCUWgTi5pRXTN5+KaZz6rbsYAdhTjASUG9sndkgpq1/0+TUufKHLF07TL7/8Eug1J06aIkaEjQ60jy3tfPLori09Dp4FAhCAAATsVCBBIv+UEHZKgMeGQLgVQCAs3L463DgEIBAcgfFjR1LDBsYpfnnyF6arV/1zNwXnPPo+69Ys10ZEBRaw8fE+RCmdnNRhp06dphKlK6i6tcJdkaMrusjVJTdrUzgP7d9FGTL4J/ovU66yNt1QHiM/UyRPRifEqCi58YqTzmkzy6rh8ycxJdHvzjXVFlDeLdXBVDAnwy9UpKQYLXbR1Cvg6uMHt8X0SP8VDzeKlSqbtmhjcUBUsbLlPTEtVCa/D+iZ/li3Uoyi88+FFtKccF/rwg+QIX062r93h5o2avFQooFHwOXIld/qAgrW+qMNAhCAAAQgAAEIQAACEAi5AAJhIbfDkRCAQDgQaNO6BQ0Z9LvhTtt3+I1Wrl5raAtuJU6c2HTt8jktcNO330CaNWee1UPvicCSPudVUKN+3Fyz0K6dxiT6JUqWo1NnzhrO//DeTYosAkK8BbaKn3lFQk6837FzN8O5ZMWcm+zAwUNUrUZduTvIT/09ca6tJGJaY3A3/eg6eUxA0xgrVSxH8+bMlN3ElMLDVLW6/6qLcod5JNykyVNpyLBRcnewP7/WRV4olQiIjhgxhNyyZqH48ePLZsNnQME/Q6dAKlldXeinn34KpMfX7/Lzu0d+9+5//YlwBghAAAIQgAAEIAABCPxAAQTCfiA+Lg0BCIS+AK8eeOWSrxpFxFfknFKcWyok285tGylbNjd6//49JUuROsCpjuZRTtaCWvrrm/N5PX78J2V0yabvQuagEecQy5XHOO1THnD10lmKFy+erJJ7znzaiCP2aNG8KfEoqa3bPucaM+fB6tW7P82dv1AdmyhhAmrTphWdOX2W/hAJ5fWbOYAXUFJ6/TH6cpnSJWnJIv9gYmD5webPmUEVK5ZXh8v8YDz6jZ9p2/ad5HnkKOkT93PnuiI5/85de9RxwS2E1IVHkk0YP5qcU6Wk02d8qVeffup7wonxK1WoQKNGDaXYsWKpW/E66k0VKlVX9S8p8GIEa1ev+JJDQtT3S4OcIboIDoIABCAAAQhAAAIQgEAoCyAQFsrAOD0EIPDjBQ7u20kZM2ZQN2ItyKR2BlLQjy4LLJk8n0I/SorrSUWOKmvJ33lffBGwunDupBrpxW2dfutGy5av4qLahg7+nVq3aqHqCxctpW49equ6LPB0vEMHdssqPXr0mDJlya7Vd2zdSNmzu4mpof4rWJrzYJnzbq1fu4IKFshPd+7epWzuedV5uTB86EBq2aKZaps6fSYNHDRM1YMqmANpgU03PX/2BCVKlFCdMl2GLNoCAh7rV1G+fHnpsKcnVa5am8xBQPPzqBOYCpxk/54Y8fTp03/anpC6bNu8gXLk+OzNJ+ou3tEC8a70m3kxhS91058rTRpn2rtrW6DTL/X9Q1q+e9ePcuUtFNLDcRwEIAABCEAAAhCAAATChAACYWHiNeAmIACB0BSoUb0qzZg2yXCJAYOG0rTpswxtgVUaNahLY8eM1EaWeYhRUc1atg2sO5lzhDkkd7a6uiSfZPsWD3J39x/95X3Mh8pVqGpxfnN+MO7Dfc2bOaH+bDF9s4+Yxpk0SWI6e/pzfzldMGLECPT4wR11ilevX1NKZ/+gIa9SyQsDcF6ulq3b0fo/Nqq+XDgsAm7pReBNbkWLl6azvudlNchPHiF1745/vrabt26JfFkFLI4rWCAvrV/rHxh8/fpvcnL+nCtNBh3lVFVzjrAsWXPQ/QcPLc6pb5AJ9n3PnacixUqLqa8hc+HnuXvrqiHnmbUgF/fzu31NjVQsXrKsNnpMf08oQwACEIAABCAAAQhAAALfXgCBsG9vijNCAAJhUMA8KoxXEqzXoAnt2bs/yLvtJVYg7CZWIuQtoECN+ST9+vSgzp06qOa27TrT6rXrVF0W6tSuQVMmjZdVevPmDWUWo7devnqt2mThgUgUHyVKFK0aWH4w87PKQNCSRXOpTOlS2rTOlKkzaIE5cyDKx+cElSlfWbtGDJG4/7wYqcZT+KyNBuNO+nsK6eqMd25ephgxYmjXfPv2LTk6pdXK8o90adNoCefls3O7r+85KlK8DMm8YZ8+fRLHpdGeqV3bVjRoQD95OI0eM55Gj52g6voCB7xWr1xKhQt9nmIqp5uG1CVf3tzk8ccadQme6plbjKLi8+q3Ht1+ox7du2hN1p5Z3xdlCEAAAhCAAAQgAAEIQODbCSAQ9u0scSYIQCAMC3Bg4/QJb/r11wSGu1y9Zh3xNMfXf78xtHOlaOGCNGXyBDUdj4NEVarVon/evbPoa27gqW/nfU+qVSB5BFP+gkVVsnFOur944RzKn89/dUOesllUBHcePnpkPh1xwvVjYiVKuV26dJnyFyouq4ZPXqUwc6aMWpvM61SqZHFauni+NgJp/ITJNHzkGHXMk0d3VVlOmUySOBFtEAEdznPFQaaSpctbjFgy39OX5geTFx0+bBC1FDm+5KZfCbNsmVI0f+5Mw7RR7icDYefOHKfE4l71q3JyAO/qZV+1WAEHF2vVaUBeR4/JSxDnSmverAk1bdJIfSceiFFjBQsXp2fPX2j9QuLC174jVv+UW6s27Wndeg9Z1T5/79ebOnbwH1HYpFlL2rR5m6EPKp8F+HtRqGB+mjh5mtXVUeEEAQhAwFYEOL/k3NnT6fGff2ppD+Q0fVt5PjwHBCAAgbAkgEBYWHobuBcIQCBUBRInSiRyZ+0yJJGXF/zrr7/oxIlT9Msvv9CvIjl80iRJVPCFR/WMESOKAhpVJM9h/syTOydt3LBWTX/jUVwXLlzUAkuZRKBKrv7Ix/G1K1apHuD0yfZtW9PAAX3VJQJbhbLrbx2pd6/uqu+Nm7copVMK7T54ZFKefIVUHizutGDebKpQvozWn5+VA1oZMqTX+nOdg0h79x1Q55OFL7kneYy1Tw4eeXsdpCRi6iZv7HRaJOZPnCQROSRNqrXxlM2/RTCRg1688X39+ecTSpjwV62cK3dBuiGmVcqNn2f+3FnKnts5kPny1StKmyY1OTomk121602YOIVGjh6n2rgQUpdRw4dQs2aNxRk+b3zvfiK/Viwxso7vXz+yTU5RlX3x6S8weuQwEahsqDUgWOjvghIEIGCbApwv9NKF09rUeh59zqOJP378ZJsPi6eCAAQg8IMFEAj7wS8Al4cABL6/AE9L+61zB0NAwtpd8EgoL6+jxPnEePW/kGycY2vRwrmU3NHR6uEcGOvavXeQo104R9m4saO0c/AUxMyu2enJk6dWz8mNMim+vsO+/QepRq16+iatHClSRDp65IAIljkZ9r148ULkBWsf4PTRL70nw8lNFb4HnlKYO1dOwx4OeB054kV16jWmj58+0jERMHNwcFB9eP/QYSNp0pTpqk0WeJoijybj4Ka1jVf+PObjQ81FvjdrliF14Wtx0LKNWNggUqRI1i5NHJzs1buf1QCj1QPsrLFe3Vo0acJY7al37txNdcU0ZmwQCKsCPIK2SeOGVL5cGYoTJw79+eSJNmqVV4PdsWM3PX32TLt1Hgm8e+dWun37jtV/F4fV58N9fT+BhvXr0Phxo7ULBpQv9PvdDa4EAQhAwHYFEAiz3XeLJ4MABAIR4FFInEvKLasrOTunooRiNcLIImjxXEyLu3//Ae3es5emTJ0RrGmQgVxG7eI8V3nz5KLMmTPRM/FDkc/xk2Kqnje9fPlK9Qmq0Eqszhg3bhzy2LiZLl+5GlR3ypUzB2XKmJ5ixoxJBw4eCjKJPY+Ya9yovvhBLjYd8fKmzVuCnq73pfcU1E3HihmDypYpQ25urprT3HkL1Q+R8li25MUFfk2QgLZs2y5WwPRPti/76D+ziXMVyJ+PUqRIrjXzypTBNeQDQuIir88/IBcWU2xjx4otRoTFFLnCbpCnCOxZC7zJY+z9M4tLJi1YEDFiRG3UHwd9gzMqIpEYyXn44F6KFDnyNyds174zbdu+85ufFycM3wL893vViiWGVYnNT8S/uKhbrxF5il+qHPf21Ea+yqnd5r62Vuep9Z6H9mojc/kXS/wPj/j9KD55iyD+x3ka+RcGvCAL/53nLUWqdAGOjtY62Pgfy5csoJIinQFvy5avFKtI+4/wtqVH5xQSxYoWEb9s22c1L2pwn5VTHXCeTx5FF9JfWsprRRX//1G4SCGRS/UdHfE8GuBq37I/PiEAgfArgEBY+H13uHMIQAACEICATQnwDzRnTh3TFk/gH5rzibx6QQU6JUAXMcqzT+8esvpNP3uK0Xvz5i/6pufEycK3AI9anCBG7sjgDY9OvevnRxcvXKKYsWJQaufUhqncL1++FL/IiKs9tFzJN3wLBH33/IuSYUMHBt1R14Mdf038+ZcWuma7KvJoZN/Tx7Wp//zgX7rKdXjA4rylnA8tuvil5PIVq6hj525fdNuco3TKlPFaEJoX9JEbf38ePXpMbdp1oEOHvWRzoJ+cQ3bm9KliRHoOSpDgF0NKBU5tMHbcxC9aZTzQi2EnBCAQZgQQCAszrwI3AgEIQAACELBvAc4Vx6NIeBs+YhSNnzg12CA8DblTh3b0008/Ubz48ShnDnfDDzQcWDt46DC9++cdvf/wL/0nptpGiBBRTJGOTNHEMbHEyMkEv/5CKZInV8ENefFKVWqIkXxHZfW7fvJIt1kzp1LSpA40avRYi8UXvuvN4GKaQOuWzWnokAFK4979+1SzVn2LkbocLBs3ZqQhHyQfxIuPnDx1Rh0vC4UL5acB/UUuSDE6qm27TnRRLIoSnjf+7tarW0f7O/nzzz+rnH/6Z+LcjVeuXiWeiv/27T9a2bzAiL6/vZSdxAhmH+/D2r/D+N9d6TNmtRgdHd4s+JmqVa1MLVs0NaQs+NJAmJtrFtq6ZYNKb8HBr+fPn2t5OPU5OIMzrZ5HwHuKkcQyRymbcvArkhidKFez5rbbd+5QqTIVMJqbMbBBwEYEEAizkReJx4AABCAAAQiEZ4GSJYrR8qULtUd4J1ZmdXRKY1jU4UuejadbPbp/2xAI4+nB1WrUDfI0vHLb0iXztak2snOadJnVaqKy7Xt9eh3eR2nSpNYux4s9pEr9eUXY73V9XMcowFOzDx/co75bvNBJqbIVjZ10NQ6GyXx33MxTAxMlddL1+FzkUUD37lxXQbPDnp5UuWpti37htcHa38kzZ85SsZLlwusjhfp9b9/ioaUB4AttFWkAGjZuEerX/NYX4EVPataoJlI0xFB/Z8zX+JJAGK/mvWL5YpV/kxf3qVi5uvr3M+fn5IV85DZ9xiz6feBQWTV8mhdQ4n+/VhUrg8vplZzzj0etyYWNQroytuGiqEAAAmFGAIGwMPMqcCMQgAAEIAAB+xU4tH+XtlopCyxavFRbRCKkGsWKFtZyN+mP796jNy1YtFTfFGj57q0r2rQdHo2RMEmKQPuG1k6esuN3+5r6AfLx4z8po0u20LoczhsMgTOnvNVqtjyKKZNL9iBzSZ47c1xNk7x+/QblEqsBmrcqlSrQHPFDt9y2i5x09Rs1k9Vw/8mj3dauXmF4js5dutPSZSsNbaj4C3B+y53bN2sNPOopc5Zs9OjxE/8O4aC0ZtUyKiKCV/qNn4VzwsntSwJhVy6eofjx42uHBvSLAfOKzwULl7A6unKlCKgVL1ZEOxffk3n1ad5h/ntpi9NUNQD8AQE7FEAgzA5fOh4ZAhCAAAQgEJYEHB0d6NTxz1MP+QcS57SZvmghCfOzTJk0jurUrmloTpU6wxclZJajMV6//pucnNMbzvW9KjWrV6Pp0yaqywV3VJs6AIVvKsAr0fLqtnIL7g/F+mDA/AWLqUcvMf3RtC1bPJ9KlSqhWm0tL924MSOoUcP66vm4kNwpLb15+9bQhopR4NRxL3J0TKY17tq1h+rUb2zsEMZrOdyzU4f2rcnP755YhGgfHT7kSfPnzaLSpUuqOw/uggB5cuekTR7r1HFduvagxUuNwVXeydMdr17yVaPGrl69Rnnyfw54yYM5Kf7dO9dUnz1791OtOg3kbsPn6RNHKVkyB62NF79I7JDSsB8VCEAgfAogEBY+3xvuGgIQgAAEIGAzAvrf4H+LKWH6Hx4Z6enTp5Q2g+sXea1euZSKitXD7t71Izf3PF907LfqrB+xwOfs1bs/zZ2/8FudHuf5QoFNHmspT+5c6ig399zi+3FP1QMqTJ08nmrXqqHt5jxDJ06etuiqH+nCO3/kdFyLm/sGDfr8f3y6P/98Qhkyu32DM9v2KfRTa/mXBIkdnIK1im5YVlm6aJ4hEBbcEWH6v38BTTGWz71j60bKnv3z98uaG0+f5GmUcitXoSp5H/ORVcNn1986Uu9e/it31hGrwO7avdfQBxUIQCD8CSAQFv7eGe4YAhCAAAQgYDMC/Jv5O7evqjwsAf2WP7gPzLmIHt67ZUh4zyMRatdtaPUU/ENZpEiRqFHj5vRe/LZfbvIHKf7hiH9I+hHb5QunDUml06bPEu4TZv8Ix291TXOwqkixUuR77kKQpx81fAg1a9aYAhpNEkOsnHdHTMWVG0+5dE6bWVZt4vPR/Vtq9A0/kK1N/Qytl8TTozl3nNwaN21Jm7dsk9Vw+RmSQBj/Hbl145L693pQv9zQB58ZqUXLtvSHxyblpZ/izI0OyZ3p3bv3ar++UKyocar9pk1bqUnzVvouKEMAAuFQAIGwcPjScMsQgAAEIAABWxFo0qg+jRk9Qj3O1wZ7eBQXj+bSb51+60bLlq/SN2nlrK4utHvnVq3slCodvf77jepz7OghSpXSiVauWkPtO3ZR7d+rwEn7/cTUHbnxqmip07nIKj5/gMDDezdVwJYvH9wpXfNE7q9KIgfYhQsXqWAR/ylh8hFqVK9KM6ZNklWytSmw+lxX8iHbiFUx16xdL6v4DERAH4DdtHkbNWnWMpDeIdtVrWolKla0CM2ZM59OiUUMQnMLSSCsaeMGNHrUcHVbd+7epWzueVXdXOjXpwd17tRBNeunlcYSiftv3fBfkTWoPJBp0jiT1+H96lx//fUXpROreGKDAATCtwACYeH7/eHuIQABCEAAAuFaYPHCOVS2TGntGb5FPi5r+cECykU0d9Y0qly5IlkLMu3avolcXbNQuw6/WfzAzqPOhg4ZSFlcMovgxiVat36DxbSaJIkTUYXy5cTqkwUoeozodP36TVq7bj0d9bY+/SZBgviU3NFRjJqJrFkUyJ+H+vTuqd4tr1jWvWcfNS3q2rVraqU07sSrDvYR03dy5sxBp06dpnliCuXtO37qeL6frl06k5NTcnrz5g3tFlN7rOXX4Wdr16YVFRYJrv/99yN5eR2lyVOnB7mCZ9IkiemJmO6mH1WnLm4jhQd+NyhKlCiGp1m6bAV17tLD0Gau8EqTlSqWp02bt2pJu1M5OVG8+D+L0S2RtK59enenAvnzqcMWL1lGq1b/j73rjurqyML3bNGNUdFs1NhQFEVQwHrUxF5BjIgiaoxGETsoUUJs2diwkMQYxe4qiQoRwQgxUiygBlF6tUCMxkQB1+A56m5iPMnu3MEZ5g3vVyjZI2TmD6bduW/efe/9PPP53XsjiM1/o2Np6ekm7Y+C+A55Tn8L+pBYSlh++s9PEEqAXGMMIvsudrDYdxE0tGgAcXFn6Lte8uABXY9/MLPeO36+YGPTkbwPTyE+/jwE7djF30MuaKSxIWANzPKaoZFoZWltMsmAZoGZHdtONvRaVlZtqf0wwcTOXXsgOyfPTA2lYviMhgwZBH1694IWLVtAyY8l8Cl5LhV1iasOPcfCQ2FA/350Y79Hwoy/v9QYrl8tBb9+IjHbWpPYbb9nqQwQtvnDjTBt6hS+LVMZHGXXx8LCIrDv2ouul2P9PX36FJq3asd1y42XGjeG/Gtl4CC6WjZ5xVIWU31lAWWBGmYBBYTVsAemtqssoCygLKAsoCxQmywgxvNKS8uAkaPGVOn2RH2oyFAsojaWrSDlciJ1tUk4dx7cPcoOWcY2gAftyC/CeOYyJhv4wWYI/PBjGqg58lgY2BOQTK+kpqaDk4trualbN65B/fovlhs3NCC65yAIlpWezDMTsjXJKakwarQb6IGDKJOTkwuDhzkzcUCbxJz8Epo0eZmPYQNt6EgOkXogFwIlKZcv0AybGLenk52jBqDTKKrhnbzsNGjWrGm5u8CDdHZ2LgGcThLgKQzu3y8pJ8MGWhFQJTP9MuuaVctuXfIif7+3aSB6vb2h7C+//AILvH01rmE4PtrFGQ6QwOViBj8cd3WbACnJqXDw4AHCEhqEQ5qCLp6eXnPhZHSsZtxQJ+nreOjQwZpPFxffg84OPXi/qg1kT+7cvhUGEzaooW8IAaTXXcfDjW9vGr0cumof2L9Hk7hAXIC2HDzUCa7nF4jD5drVpQcVy6COzF4td/EKDiBYl0y+YSym2FEVVK0rXhkgDH9zX3u1LFajqX8rpr05GTZ/FMivL7obL5g/B1a/v5LPmQL/8D8H7hXe5vLYMPSfKxoh1VEWUBZ4ri2ggLDn+vGozSkLKAsoCygLKAvUbguI7mbbgnbB6rUBlb5hvfhg6GY25c0ZFPCysGgIbdpYwuBBA8F7wVyoSw7QWCqSoS83K5UCTsiqKil5wLOJoZ71GwLhbV8fCgph/+atW5BOAqOju2ZjwipgRc+l7l9Ft8sBEkxer37v/TWE6bKXTu3fuxPGEMYRMhUQ/OpNWGGsPHnyhN8nggHX8/M17CMW+BkP7jnZqTQmGQJaZ0hcteHDh/I9HQg+SBlpTC+rdwRtAY8J41mXgg1Jl5J5vzY1ZFaKoXvDQ/f5CxfB75134UfyjohllPNI+Cx4nzhksm0oKH/jRhYQdTwcbG3LspoiuzGbAJwINg0aOEADaq5eEwDbtu+i10P3sILruZThhrJ16vyVv6MI7D1+/Jj3EQhFZiBmtWTfDL5rU6bOgDiSydBUEb9xlD0ZHQPTps8ytcyseXRvPhZxBBo2aMDli4qKIT0jg7DW/gtOI4dxFh8CeK+7ukNKahqXFRsIqGVnJnOQG7+dM2fjKRDc2c4OevbsTsVNAXnVpYftDQHqtJQk1oWpb82E6Jg43q9qQ3TDRqCvRev2VVVpdH1lgLALCac07zkD+Q1daJKHOwRt+5hPi/e1ZtVKmE9Yr6zgb7mllQ3r6tb3i7/XjPftNwgKCspit2kmVUdZQFmgRlhAAWE14jGpTSoLKAsoCygLKAvUPgs0a/oy5OVk8Bt7x38ZHPhUG9+LT5rRQPbKkdCDZkhqRczN0Dd50gTCrtpMAad+A4bCiwRMiIs5oVVGengQ917oCwnnvqZzMkCn54qJTCEEGf5E2F14qI+NLgvsjPIjnbVMOcZsQUDj22+uUqCPAYl6LnzBxK7+S5dDwbUcsLCw4Hveum0HrFm3AUIPBVPgCxkh/QcOo4wXMcB5Tm4eZcLwhc8aDBhk4y1aWukyx9h8Ta7R1vnEfnXq1DHrNtCWyK6SgcH27azo+r8Q8HEiObAv9JnP9SVeTILFS8pcYhGM+eHOXT7PGt2I2+6JL49xYArHGSuRyeB7l5R4Dtj1cD/WNl3g4cNHwMAABD07O3SH8W5uELBuFVtKawS7fEh8vM/Dwvm4yFw0BQjhIr34YLPnLoBjX0RxnZVtzPbypHtmjDYEut4gGf3OJpznKtGtLS8njYNhd+7eBcduZZk/uSBphBAG3IgRw+gQgtivvTaYv8sjyfihz/ZzYHic+0QKdorrWbu69DB9WItAzPIV78OeffvFabPb6A6OoPmt726D61h3KCS/VVgYEC8GoXew7wzhYSHQqFEjCFi/CT4hvxXVUSoDhCHr1KptW375pEuXKajJB6QGxjzbvTOIj4pMNxnQfkRAX6v2tlxWryHaH+fdPSbz33c9eTWmLKAs8PxbQAFhz/8zUjtUFlAWUBZQFlAWqJUWwMP8qbiv+L1VlekgZwrjio009EApQ+Lxp6OpyyOCFa5uHjR+0IkobcDvByS+kr1jr3LxjzLTLnH2GAIMxmLMeLiPhx3bt/BtnI0/Bx6T3uR9sfGPlcsokMLi3CD4UXz3O35gR1m2fgiJ+xV25LC4nLJLEhMvwo2CK3TNuoCNsGXrdhL/rDOcPR3DZfVi8ohMEhT8IwSR7mxnC6diT5gNhuFz6dW7ny6YhTY7TMAVZFqxssTvXRKLKoR1dWsE5HKz07kbIL5Pnl5zSAyy8tkEhw7RgsMYz27OPB+4kZ9LAdHwiC9g7vyFsNR/Cfgt8eXXQ51es+dBZFTZ94mTX0aGQ98+ZUASuhvKQB9XQhpyfDDU26qNtcEMfeJaY21kPZ6IiuDvObq3IYCLAI9c5N+FaSRDrOzWifHVruVl8aVdu/fWPLO0lETiOlwWF2ogSXqQd+Uql2eN6tLD9LH6XuF3FOzG/idbg2BtwCY2VaH6e5Kd9AWSgRELAocLF/lBWHgEyUz5DQVVEQDs1bs/LHvXDxa/vZDbV3QtrNAFdYQrA4TJWR7xN8t13EQd7aVDbiQ5xV6SpEIsTZtb0lh7u3ZsBffxbnyqMkCYz6LFEPr5Ua5DNZQFlAVqngUUEFbznpnasbKAsoCygLKAskCtsACyLA4TFgYrw0e4VCljmQg2oU4EufyXrqAB6Ou98DeoT5hWHa3bkwx+YziIYG58MJHVNWeeNwmQHwnr162C2bNmsu3Tg2WfVwfqHsZF5pTITuCLhYbIKMFhY0w5ds/sYDhoYD/C4gjl2pBRZGnVkQY3NxQken3AakB2jeg+tHd3ELiNdeV6Dh8OhUVSUHjZ/SieMHEmTDQv1hpXXAMbdevWgRXL/GECASzleGp6t2MoWyTKXs3N0OhoZ20LDx891lPDxxggywaOH48CrzkLWFdTI2gmZsjDbHvoKnzh3GkqN2SYEw0kH3syCnr06MbXrlodQIPi84FnjcCNAeA5YxofRnfgzVu28b7cuJSYANbkm2PFHBYZkzVUN2xQnwCBaVCvXj0uMnPW3HKgHZv08pwOGzesZV0ICT0CC339eB8b8rssA3w5mSnQnCSEwGIMOKkuPfRCwh+R5VmVTLbifTD1mFER3T7RfTs37wrUJYxHMaYbyn2dmAhjx01iS6pUy0BY6Odh4LNoiVGd4u8nCprajx4QxmKrMVdydsGHjx5BO2s71tWtZUbYipWrYPfef+rKqkFlAWWBmmEBBYTVjOekdqksoCygLKAsoCxQ6ywgBzTu4tATiopLXXUqerN6TChDsYhElow/ycS4n8S/kks9wpr4+cnPPFtfj+5dqbsiMlpakgxjGDhejlvDADJZFwazL7pzi7MrTMWkKQeOdLCj7myyXuwz90UWUP2jDzbQwOlMVs5qiFk6MXbUIwK2LF2+krKIIo6GwMAB/SE29hRMmeZJl968cRUa1K/P1IDMkMEJGbBbuuw92Lc/mK/5IzQwTtdEjwng4uIEjg72GnCG3T+CkS1JlkS54Dt2mzB0WEE2YYdODqyrWy8mMeiWExCOFWSctW3fySjDSjzE47u35ZNtNCOpCOjcvnmd790Ya+vgp/vA2WkkuzzJhFrKKOMDUoO9n2w4OiaWsBC9WNdkjd8Oll9//Y3LxnwVyeN14WBBwTfQt99gPi83ZIZlSkoaOI8eqxHbtH4tzJw5nY8hwwwZP4cOh1CgcASJl4cB1r//4Q4sW/6ewaD71aWHb+RZQ/wez5xNgImTp8oiZvXRnsj2mjPbizPDjC3Ed3JT4OZq/a5lIMwcYO9y0nnu4ov7ZaxcQ3sf5zYG9uzarpl+uVlr2v8wcANMf6uMYSt+B5oFQkf8hnCY/d4KIqqpLKAsUMMsoICwGvbA1HaVBZQFlAWUBZQFaosFFvt60wM5ux/musL6FanxoBpyKFizxNBhRWQLtNMBmSKPHYFXSYYyPLSzoN4ItLmPGwdZ2dk8Y5zI0kA3o1dIfCy9gtn5gkkmOlYMZY7EeRkcMeW6ifeNMb+Ohpe6aMoMnGEjRkFmVg67tG5t07EDdOvqCPEJCVB87z706tkDor86zmULC4vAnmSNlEv+1SweWBznOhIQp4QcnCtS8NoJZ2MJa+/PFVlmtixmxhxKmIb/r+I6xgX27t7B3djYdW1sHcoFzpcBGnPYiVdy0qFp0yZMLcTFnYY3SNB6Q4UBuGweY4LZdekGw4cNhfyCAhJUPguav9IMckgSCFYwxl0Xx56sq6nTUy+CZetSQAEnMPacH4ntp1fk9whl5i1YxN9VvTXiGAMzMFi/LdkzFmSDMTdeJmvKTU0GpzC+Xu++A9hyWsugvDiJYGNmZjZ1P2UxtcR5sV1dekSd2BYzlmZkZMJwp9dlkQr18fdsofd88PGep4kZyJQgc28tiR0oxodjc1WtZSAs7GgEzCdZTY0VGfy8dDkZRo8Zb3CJHCMM3/tmLdpSeRlMfvz43xRMNqiMTMhAmLPLWINJF4zpUXPKAsoCz48F/gcAAP//yZVNBQAAQABJREFU7J0FuBVFG8dfBbEQBVG6u7sbpUEkpEO6BUnp7pDubpDu7m6kpLsMFOuz/ea/15k7Z87uiVvcy3nnee7d3dmZ2dnf7tndeeeNF2LFjvcvcWICTIAJMAEmwASYQAQT6PTpJ9T9sy7qqHHjJVHr/q5MnTyeqleroqr9+++/lDhZavr99z9Unlzp2vlT6tqlI3333XeULmN2mW0tkyVNTCePH7bWe/TsS9NnznbZLzeyZM5Iu3dulZt07dp1yl+ouNrWVxbOm0Vly5ZWWYMGD6Ox4yepbX2lRvVqNHnSWJW1Z+8+ql6jrtr2tvLo/k2KHj26VezPP/+kBIlTeqvitn/R/NlUpkwplT9h4lTqP3Cw2sZKrDdi0o1rl1Tejz/9RClTZ1Tbvq5kypiB9u7e5mtxv8t98823lCFzDr/ryQqxYr1Bpd4vSadPnaUbt27JbI/LkiWK0fKlC13KVK9Rm/bsPeCSZ3Lu2q0HzZ67wKWMvpE8WVI6ceygnkVlylWik6fOuOTpG717dqP2n7RVWT/9/DOlSJVBbWOlfbvW1LtXd5W3bt0GatysldrWVx4/uEXRokVTWc2at6bVa9erbX1l5PAh1Ojj+noWJU6amn77/XeXPKeNwwd2U5o0qenEiVNUtkJlq5j5zPjrr78oYZKU9M8/zsOZ3Tu3UJbMmdRhDh46TJWr1FDbWHk7Tmz66uJZeuGFF1zy9Q0cq279RrRz1x4922U9rNpxaVRsnD97guLHj2dlnzt3nkq8X84s4vd2urRpaNznoyh37pxudbdt20EdO39Gjx4/dtsX2gzzefjFilXUqk17j80uXjCHSpd+X5U5efI0lSn/gdo2V+rVrUVjx4xU2b/++islTZHO2q5VozpNnPC52ve///2PkiRPq7btVr59fNclO3PW3OHCxuUgvMEEmEC4EniBBWHhypcbZwJMgAkwASbABBwI1K1T0xqIyd3pMmSl7558Lzf9Wp49fZQSJUyo6jx+/DVlyppLbesrVSpXomFDB9LceQtp6PBR+i76YtkiKlG8KEGIlChpKscB9oB+vah1qxaq7uw586nrZz3Vtr5y5+Zleu2111RW+kzZ6Ntvn6htfcUUjnTr3otmzZ6nF3Fcz5kjG23bskHtv3TpKypSPFigpXZ4Wbl76wq9+uqrqpRdfxvWr0OjRw1XZQ4ePESVq9ZU2/6sJE6UkF59Lfh4/tT1Vvbhg4f08y+/eivmuH/3js2UJUtmWr9+EzVqGny9HSv8t8MUGGXNnocePHzkUu3S+dP0zjtxVV6adJnp+x+eqm1zZeyYEVSvbm2V/bsQKCUSgiVPaeumdZQrV7Ag8KYQ5uXJV8SlyoZ1Kyl/vrwqr1GT5rR+w2a1LVdyZMtK27dtlJvWMmWajPTjjz+55MmNo4f3UaqUKeQm+SOUTJIkEZ0+ccSq26RZS1q7Lui4x4/upxTJk6s2T58+Q6XKVlLbdivm/bxw0RLq0LGrW9HGQmg3QgjvPKWnT59SqrSZPRWhsGpHP8j1K+fpzTfftLIOHDxIH1atpe/2ax3PidEjh1n3taeKmEzYu28/fdqpK929e99TUb/2mYKwFStXU8vWn3hsw7z3z52/QCXeK+tYp3nTxjRkcH+1/+uvv6GMWYIEfkUKF6DVK5erfX/88YcQpqZS2+bKa+JZeEc8E/UUmkkbvR1eZwJM4NkRYEHYs2PPR2YCTIAJMAEmENAESgqB03IheJKpxHtl6Nz5i3LT52W0aC/So/u3XLQ5Nm3eQg0+buZzGyioa3OsXLWGWrRq51j/wN4dlD59kIYBClWoVJWOHjvuVr5okYK0asUylX/n7l3Kmbug2jZX/BWO6PUx8MMAUKaJk6dSv/6D5aZPSwguIMCQ6f6DB5QtRz65qZZSYCgzevcdQFOmzpCbz83ywd3rFCNGDEszEBqCvib9OkKg8E78pC5VX3n5Zbp355rK++GHHyh1uixq225l1/ZNlDVrcBlfNIN0DUG0OX3GLOrRq59L87euf0UxY75u5aGviYQW4R9C+8lMpjDCmyDu64e36cUXX1TNQMuojtCo8iVJDSBTSHFfMHtZsJNp7LgJNGjICLnptrQT3pUqXYFOn/3SrSwyoP3XpVMHSps2rWJiFtQFc+Y+uR1W7cj25H2I7c1btlL9hk3lLr+WK79YTMWKugpCISSCoB73wKNHj4XALZaLIBz3xMRJ09y0Qv06sFY4JIIwqcUrm7l95w7lylNIbrotewhN445C41imGzdvUd78Qeeta/1i/z///EPvJkgmi7otzWeit/JuDXAGE2ACkZIAC8Ii5WXhTjEBJsAEmAATeP4JmAOM2nUb0vYdu/w+8fLlytD8uTNd6rVo1ZZWrlrrkudtY+2qZVSoUJCQyk6DR6+vCxj+/vtvipcwub5brZsCo6HDRtLoz8cLAcELQnOkIb38yss0afI0q7wpHLHTPoHpZLp0qWnylOlu2nPSlEwevFiJ0nTh4iW56dPSHEA6mS1d/epLih07tmrTTmtM7YyiK/r9CYEiBIu+JFzbh/duKhPC69dvUL6CxVyqmiaw+/YfoKrVg7W9UBgCGQiCxk2YbNU9dmQ/pUyR3FrHP5jtehLOVaxQjubOnq7KQ6CRKm0mFw2u+PHi0fkvT6gyEIRkzpZbbesrptYltIWqfVRHL6LWTa0b7Gj/aWdatDhYKKwKGyvQBjslzJNhpmgKz0zhmiehFpqdOW0SffhhsAmdrhmE/SmFdtmoUUPplVdeoRXCRE83TY0j7u/mzRpbAhVdoGd3L4RVO+iTXdLPe5HQaGtvo9FmV8/MM038YAbbtEVrgjAUwjDcq6XKVKAVyxdTzpzBmoRPnjyhtBmymc2FaNsUhHmbdMBBTBNqO7N2vTMTxo2m2rVqqKyly76gtp90VNsP792gl156SW2/myCpo/avaep87959yp4rv6rLK0yACURNAiwIi5rXjXvNBJgAE2ACTCDKE3j55Rh0/851dR4dOnahhYuWqm1fV8zBLur544sI5csJH14LhC8vJG8mhVmzZKJdO7ZYZfHv+o2blK9AUbWtr+gDLggiUqRKb5nqQcjRrWsngt+h+IlSWFVM4cj+AwepSrVaqjmYEJ4+ecQSENj5nNKFcyH1D2ayrN+widBA2ab6gBXTP5id3ymXClF0QxcKOgkE7U7NNPnt1LkbzVuw2KWoaQJr+qNr2vhjy3xX1z4xBZ127eoHOX3iMCVJklhlmUIl7GjXpiX17RNs0utkAqoLBVEP93IOIQy4d/8BNt3SuM9HUt06wfcuCiRPmc6rmSrurUMH9ih/WKYPNP0eR5sJxW/HTnsN+yDIunj+lPKZhzxTGOeL2TJMqWdMDxJGog07AXNYtYP27ZIuwBo3fiINHBxslmxX3invyME9lDp1Ksv0u2XrdsrkVAradEEhfMf17NHN0uqDqSxMZsMimYKw1WvWUrMWwX7snI5x8/oleiNmTGu3t+ebPqmBCuY1M/cXKfY+Xfrqsu2hW7VsRgP791H77Hwmqp28wgSYQJQhwIKwKHOpuKNMgAkwASbABJ4/At88uqNMGkeMHEMjRgU7Mfb1bHVH0qjjjy8ilC+QP6/wGbNMDZjthD8oJ5PpH2yOcHDeRTg6N5PpUP/KlatUsEhJq5j0+aP7upkzazpVqlhONWOaG27esIby5MlFdv7PTOHcV2JQV1gM7vxNpoDGTjOuQb3aNGZ0sDlaaPyD+du/iCyvmyI6mYia/YFw9+K5U8qfk5OG1YUvT1K8eO+q6rp/PGgGXrp4xhr06wKIMaOGUYP6dVWd/gMG04RJU9W2vtKxQzvq0b2ryoKwMn3GbG7BI0z/YF26dqc5wneemdauXk6FChZQ2d5Mj88IgW3ixIlUeV80iiC4OnxwN7399ttWPTuNSNNHGPz42QXEQANbNq51cQQP02WYMMsE88Uli+bJTWtpCkyQqQvJdcG1rBhW7cj2zGXcuHHoqwtnVba355Mq6LBSvFhhKwCB9J0XI3p0eiCCbCCZjuOhMRg79luOQiKHQ3jMNgVha9asE1ppbTzWwc45M6dRpUrlVTlPWqj4Db777jtWWbtAHqZw007LTx5owbyZ4h4oIzeJHeUrFLzCBKI0ARaERenLx51nAkyACTABJhC1CVy7fI7eeust6yRC4gQagod7t68pYRoastN8saMEgUP/vr2oUaMGypeR3eDbrLtPRDnMKKIdymRqrcj8vr17Uru2LeUmScFFtaqVadqUiVa+Xtf036MPuPRoeTVr13eLXGcea+q0GdSrzwB1bF9XTI2w1m060PIVK1X12G+9KbTSjrr4T+rVuz9Nne5qmqoqROEV0x+VL4LaTRtWU948QaaF0JoqKoIV2Gma6Pe9HtEOuKQABya3cKD/408/WxQR5e/g/mDT4a1bt1PdBo3dCCO6JPy8yeiO6MeHVWvQwUNBzuf1Crp/MOTbCSVMjZiHwul/tpx5HU3JIFi5L0zP9AiMu3bvpRq16umHdlnHb2LkiKFC2/ANlW/n1L5Xj67UoX07Vca8P+WO2rU+ognjxshNAuPMIniGZIkdpmDRSbNx2+Z1ykzQLlphWLWjOmusmIJnT8I/o6pPm3pgAk9m3j415kMhUxC2VkQdbSKij3pL+fLmoY3rV6liTveULrhEYbv2Yb784O4NNfnx/fffU5r0WVXbcgXC2UsXTqvfkpNgW5bnJRNgAlGHAAvCos614p4yASbABJgAE3juCCxfupDggwXJaTCinzQEX++VLEFx4sQWzu3jUPVqVShDhvR6EYJADZo0cOb9159/0Qti0AOhAJxsw7QGpkG5c+WkFCmSqwGObMAXsyNdQGKnISLb6tOrO30izItkgvkNBG1HDu21/PGYzs5nCfOrysIMS6ZceQrQ7Tv3hC+x+jR82GBLsOAkLNS1l1DfTrNFtutpaWq37N6zjz6qGaSFBEEMBqJScCnb0bWZZF5UX8Ln0zERodBMixYvpd59+rsIVFAGmjObNq6mpEmSqCqeBGe6FqO8h3Bvjx87mqpV/dBqw05LZffOLZQlcyZrPwRcEIpCICDTkEH9qGmTRkqwi7Zr1alPe/YekEXUMkH8eHTubLB/MOwwhWYIaLFM/EalUOvnn38RZsCF6fHX36p2sAINm9djvm79JtF/XVCM/bhv167dQL+J3+RLQlD2yiuvUty4b4vfbjrx+y/u4gAf5ZGy58znZnoJ08kLQttHRjVFfwoXLanKxYr1hvAXOIMKFyoU1Ij4D3O/ku+Xo0ePH6s8rNSrW4vGjhlp5eG88+QrTLdu31FlEIRj47rVSqsMLLPlyON27mHVjjqwsaILjuy0m4zifm/qgjDdFNfvhmwqwJy7YIEC9FIMXPNXrCiiDRvUc7ne0EJbumwFXb58hZ7++KN4Zv9Jq4VwzC7pQknsL1fhQzp+4qQqit8QflvSfyF87KXPlN3FL54sbDrgt3v2r1m11OVeqlq9Ju3bf0g2wUsmwASiMAEWhEXhi8ddZwJMgAkwASYQ1QmY/pS8+fbq3q0zderYPlxOG9oQyVKkswbrTgdAZMnLl4IjzpnCLL1eBhFVcr+ILikTzOvefecdy0kzNFSgLaQPvDFoPHn8kBLOwSE0kjQV83Qs3X+OGWlPHt/XpWnWhoHq06c/Kr9Neju+aNDp5aPKuj5IhgAkuhDeyARhwY0bNwnXEwKiuMKUTxf8QKjSuctnbn7BZH0sP6pelaZMGqeyrl27TsmEJpd04D1eOMgfMGio2i9XIAg6L8wq4dhcJtR9IjRaIBCWPpSwDybC5SpUdrnHZB0sO3zShnr1/EzPstZxfjDjjSEEx7pzfkTee790eTehgq6t6NZYCDM8maLClHndmhVKOIff7UURFAL9zpQpo8u1ggbXB1Wq25pPQtC1Z+dWJUjHdYMJ54MHD4VZ3bv0zjtxXQSKDT5uStu273Q7o7Bqx63h/zJ0oamdRppTPX/yEXG2aOFCtGjJsjCN/hrSe8NJ0w8aWgjaIAWhuGZz5y0Uwqn9lDBBQurWrZOLViH8mmFSxCmZ0X/37N1HiwUDTJq0adXCJTIwhODtP+3i1BTnMwEmEMUIsCAsil0w7i4TYAJMgAkwgeeJwGuvvkp3bl1Rp9SkWUvlwFllaisjhw+hRkJDKjySnVmYeRxTEOatv/An1qplczVoR3swrylWopRb1Efsa1i/Do0Q5yjN2pCHBHPPeg0bO5qj6VEcl3+xklq37RBUMQT/IWzZJPyRpReCPDNB2KBH0NM1xsyyUXl766Z1lCtXDqH59RPlyl3AEnTNmTVNaCLG8XhaCLQAf3FHjh73WA47YYYKDUCpbYU8CN1GCj95iCzqlGCeOmvmVCpapLBtEWhADR463GuERt2MEw3BCXiL5o0pRowYLu3CZHCKiFLq5L/PNFd0qRyCDQg3EF11zNgJjrXhf2+eiBSra+DphSEY69Slu4u2kL5frsNETmp96ddB7sf9fuLkKWoufFg5BQZA2bBqRx5XLtHu4we31T3Stt2ntHT5Crk70i+lIAzXFH9Icql3XrLHEn9OvupQJ967cWnn9i22gnnZJjQFa9dtQIePHJNZtkvwXbViiYvWl1kQ90Df/oPCVEBoHoO3mQATiHgCLAiLeOZ8RCbABJgAE2ACTEAjoDsOd4papxV/5qulS71H+fPlFeZeh1zM0pw6Bp9NlSqWp5+FQOH2nbu0d99++vvvf5yKW/nwc1Om9Pt07doNWrt+Pd29e99jeZgtwiTt8ddf06zZrg7APVb0sDOT8IMGs9XUqVLSQyG8Q79HCBNN3RS1VZv2hIiKz1uCn64UKZLRe6XKuwhA2rZuKUy98lEqYV4bT2gNvfRSdPrll19o0+atQngzws1szhsX+KmrK0z0wPrMmbO0avVar5EVZZswxyxYMJ9l5vvCCy/SqdNnCIELHggfXr4kPdIhhBOJk6Wmf8V9WaJkceEYP7/QjvqevvzyHO0S5rGRNeG+x/XILMxFYVp9/MQpIfw46qa15kv/ocFZrGgRSposifi93aPr129Y97yTM36nNsOqHbT/XsnitGzJAutQpi85KzOA/1Wt8oGIetpKCMTiE0xifxdmkI/FcwoaXdNnzrbVAnTClSNbVurduzulTZNGBLqIZQnrcP9v37GLRo0e4/fv2uk4nM8EmEDkIcCCsMhzLbgnTIAJMAEmwAQCkoDUGsDJ/yn8w2BA7k1QFJCgwvmkMbDs3LGD5Vvtsx59CFH29FS0SEGhPbFMZf3www+UOl0Wtc0rUYeA7hcKvYYWWcYsOaPOCQRIT3fv2ExZsmS2znbWrLnUrUfvADlzPk0mwASYQPgSYEFY+PLl1pkAE2ACTIAJMAEvBGCecuPqJRWJcMjQER7Norw0x7tDQMD01Xb9xk3hFL2oS0vwzZMoYUKV583/jirIK5GOQJdOHahb106qX1u2bBOmt03UNq88ewLwGXjm1FGrI9DYS5Umo1uQhmffS+4BE2ACTCBqEmBBWNS8btxrJsAEmAATYALPFQGYnPXr29M6J1+iRz5XJx8JTmbPrq2UWTgal8nUEKpVozpNnPC53E1Xr16jAoVLqG1eiVoEdm7bSNmEOZhMUc33lOz387zUo0U6RYt9ns+fz40JMAEmEJ4EWBAWnnS5bSbABJgAE2ACTMBnAjeuXVQRv7w5ofe5US7oEwGdPSrMX7CIOnYOiigIk8gvli1WDvx///13Kv5eGSEMu+5T21wochF4+eUYdOv6VypCJXqXNHla+lVEB+UUOQggYMXVy+et3xy0wRBh9tJXlyNH57gXTIAJMIHngAALwp6Di8inwASYABNgAkzgeSBQsUI5mjt7unUq/xOD8kxZc4XI6fXzwCKiz0FGScRx7z94QKXLVBDR26JRfxH1smqVyipq3b1794UD+XK2ES8jus98PP8IdO/WmRrUr0uxY79F0aNHd6n85MkT4Z/vL8thf90GjV328UbEE9i1fRNlzRrkf69nr340bcasiO8EH5EJMAEm8BwTYEHYc3xx+dSYABNgAkyACUQ1Arrj/PMXLlLxkmWi2ilEyf5mzZKJtmxaRzFixHDs/+YtW6lho2b0zz//OpbhHZGXwJmTRyhx4kQeO3jj5i3Km7+IxzK8M3wJ9PisC3X89BPrIOvWbaDGzVqF7wG5dSbABJhAABJgQVgAXnQ+ZSbABJgAE2ACkZnAtCkTqFrVD60ujh03gQYNGRGZu/vc9C1l8uT0+ecjKH26tEJrKLYQeP1DT58+pUOHjtKwEaPo8pWrz825BuKJdO38KeXMmYN+/eUX+vOvvywE0aNFoxjCVDJ6tOgUTWiJzZk7nzYLx/mcng2B/Pny0Pq1Ky0NTBZKPptrwEdlAkwgMAiwICwwrjOfJRNgAkyACTCBKEVAmurBP07FD6rR0WPHo1T/ubNMgAkwAX8IxHz9Nbp04Qy9+uqr9NPPP1O2HHnZNNwfgFyWCTABJuAHARaE+QGLizIBJsAEmAATYAIRR2D2jCmUJWtm+rhRc7pw8VLEHZiPxASYABOIYAJwkL9zx2b6+aefqXqNOuyHL4L58+GYABMILAIsCAus681nywSYABNgAkyACTABJsAEmAATYAJMgAkwgYAlwIKwgL30fOJMgAkwASbABJgAE2ACTIAJMAEmwASYABMILAIsCAus681nywSYABNgAkyACTABJsAEmAATYAJMgAkwgYAlwIKwgL30fOJMgAkwASbABJgAE2ACTIAJMAEmwASYABMILAIsCAus681nywSYABNgAkyACTABJsAEmAATYAJMgAkwgYAlwIKwgL30fOJMgAkwASbABJgAE2ACTIAJMAEmwASYABMILAIsCAus681nywSYABNgAkyACTABJsAEmAATYAJMgAkwgYAlwIKwgL30fOJMgAkwASbABJgAE2ACTIAJMAEmwASYABMILAIsCAus681nywSYABNgAkyACTABJsAEmAATYAJMgAkwgYAlwIKwgL30fOJMgAkwASbABJgAE2ACTIAJMAEmwASYABMILAIsCAus681nywSYABNgAkyACTABJsAEmAATYAJMgAkwgYAlwIKwgL30fOJMgAkwASbABJgAE2ACTIAJMAEmwASYABMILAIsCAus681nywSYABNgAkyACTABJsAEmAATYAJMgAkwgYAlwIKwgL30fOJMgAkwASbABJgAE2ACTIAJMAEmwASYABMILAIsCAus681nywSYABNgAkyACTABJsAEmAATYAJMgAkwgYAlwIKwgL30fOJMgAkwASbABJgAE2ACTIAJMAEmwASYABMILAIsCAus681nywSYABNgAkyACTABJsAEmAATYAJMgAkwgYAlwIKwgL30fOJMgAkwASbABJgAE2ACTIAJMAEmwASYABMILAIsCAus681nywSYABNgAkyACTABJsAEmAATYAJMgAkwgYAlwIKwgL30fOJMgAkwASbABJgAE2ACTIAJMAEmwASYABMILAIsCAus681nywSYABNgAkyACTABJsAEmAATYAJMgAkwgYAlwIKwgL30fOJMgAkwASbABJgAE2ACTIAJMAEmwASYABMILAIsCAus681nywSYABNgAkyACTABJsAEmAATYAJMgAkwgYAlwIKwgL30fOJMgAkwASbABJgAE2ACTIAJMAEmwASYABMILAIsCAus681nywSYABNgAkyACTABJsAEmAATYAJMgAkwgYAlwIKwgL30fOJMgAkwASbABJgAE2ACTIAJMAEmwASYABMILAIsCAus681nywSYABNgAkyACTABJsAEmAATYAJMgAkwgYAlwIKwgL30fOJMgAkwASbABJgAE2ACTIAJMAEmwASYABMILAIsCAus681nywSYABNgAkyACTABJsAEmAATYAJMgAkwgYAlwIKwgL30fOJMgAkwASbABJgAE2ACTIAJMAEmwASYABMILAIsCAus681nywSYABNgAkyACTABJsAEmAATYAJMgAkwgYAlwIKwgL30fOJMgAkwASbABJgAE2ACTIAJMAEmwASYABMILAIsCAus681nywSYABNgAkyACTABJsAEmAATYAJMgAkwgYAlwIKwgL30fOJMgAkwASbABJgAE2ACTIAJMAEmwASYABMILAIsCAus681nywSYABNgAkyACTABJsAEmAATYAJMgAkwgYAlwIKwgL30fOJMgAkwASbABJgAE2ACTIAJMAEmwASYABMILAIsCAus681nywSYABNgAkyACTABJsAEmAATYAJMgAkwgYAlwIKwgL30fOJMgAkwASbABJgAE2ACTIAJMAEmwASYABMILAIsCAus681nywSYABNgAkyACTABJsAEmAATYAJMgAkwgYAlwIKwgL30fOJMgAkwASbABJgAE2ACTIAJMAEmwASYABMILAIsCAus681nywSYABNgAkyACTABJsAEmAATYAJMgAkwgYAlwIKwgL30fOJMgAkwASbABJgAE2ACTIAJMAEmwASYABMILAIsCAus681nywSYABNgAkyACTABJsAEmAATYAJMgAkwgYAlwIKwgL30fOJMgAkwASbABJgAE2ACTIAJMAEmwASYABMILAIsCAus681nywSYABNgAkyACTABJsAEmAATYAJMgAkwgYAlwIKwgL30fOJMgAkwASbABJgAE2ACTIAJMAEmwASYABMILAIsCAus681nywSYABNgAkyACTABJsAEmAATYAJMgAkwgYAlwIKwgL30fOJMgAkwASbABJgAE2ACTIAJMAEmwASYABMILAIsCAus681nywSYABNgAkyACTABJsAEmAATYAJMgAkwgYAlwIKwgL30fOJMgAkwASbABJgAE2ACTIAJMAEmwASYABMILAIsCAus681nywSYABNgAkyACTABJsAEmAATYAJMgAkwgYAlwIKwgL30fOJMgAkwASbABJgAE2ACTIAJMAEmwASYABMILAIsCAus681nywSYABNgAkyACTABJsAEmAATYAJMgAkwgYAlwIKwgL30fOJMgAkwASbABJgAE2ACTIAJMAEmwASYABMILAIsCAus681nywSYABNgAkyACTABJsAEmAATYAJMgAkwgYAlwIKwgL30fOJMgAkwASbABJgAE2ACTIAJMAEmwASYABMILAIsCAus681nywSYABNgAkyACTABJsAEmAATYAJMgAkwgYAlwIKwgL30fOJMgAkwASbABJgAE2ACTIAJMAEmwASYABMILAIsCAus681nywSYABNgAkyACTABJsAEmAATYAJMgAkwgYAlwIKwgL30fOJMgAkwASbABJgAE2ACTIAJMAEmwASYABMILAIsCAus681nywSYABNgAkyACTABJsAEmAATYAJMgAkwgYAlwIKwgL30fOJMgAkwASbABJgAE2ACTIAJMAEmwASYABMILAIsCAus681nywSYABNgAkyACTABJsAEmAATYAJMgAkwgYAlwIKwgL30fOJMgAk8TwTixo1DI4cPo4ePHlKPnn2fp1Pjc2ECTIAJuBDImSMbde7YgfYfPERTps5w2ccbRM2bNqZiRQvT2PGT6PiJk4yECTABJsAEmECEEYgq72gWhEXYLcEHYgJMgAmED4EE8ePR0cP76LXXXqP7Dx5Qthz5wudA3CoTiMQEXn45BuXOlZNefPEF2n/gcCTuKXcttASqVK5EM6ZPtppZtHgptf+0S2ibfG7qjxg2mBo3amCdT6MmzWn9hs3PzbnxiTABJsAEmEDkJxBV3tEsCIv89xL3kAkwASbgSCBatBfp7KljFF8Iw/755x/KX6AY3bh1y7E872ACYU0gfrx4lChRAkqaJAnFTxCfvn/yPS1dviKsD+O1vZ3bNlK2bFmtciXfL0tfnrvgtQ4XiLoEFi+YQ6VLv2+dwJChI2jM2AlR92TCqOd169SkcZ+Pslrbtm0H1anfKFQtQ6icLUsWKlioAOXKkZ3Sp09HsWLFor//+Ztu3rxJ8+YtorXrN4h3z78ux1n5xWJKnCgR5StYzCWfN5gAE2ACTCAwCESFdzQLwgLjXuSzZAJM4DklsHbVMipUqKB1dp06d6N5Cxb7dKbQnimQPy/FjPkGnTx5SphUPvapXngUatu6JTVoUNcSoJQp/0F4HCLC2pw2ZQJV/qAivfDCCx6P+e+//xL+kCDA/Pvvv+nx11/Trp17aP7CxXTh4iWP9e12Qiga7YUX6Y+//rLbHaZ5EH4dP7qfXn31Vbd2f//9d0qUNLVbfnhmlC9XhubPnakO0ax5a1q9dr3a5pXnjwDu93NnTtC7775jnVygaz9lzZKJdmzbJDQiX6RvvvmWMmfLJZ4r/4TowkPLeED/3lSxQnl66aWXPLbx9OlT+qhmXTp1+qxVbsvGtZQ7d076+edfKHmq9B7r8k4m8DwRqFG9Gg0bNjDMT+nPP/6wNP1/E+9WTs83gVhvxKT3Spagnbt2048//Rzik4391ptUvFhRuikmxs+cPRfidlAxRvToVLxEMfrjj9/p0MEjPn9jRoV3NAvCQnVrcGUmwASYwLMj0LtnN2r/SVurAzt37aGatet77UzXzp9S61YthADsdZeyEMY8fPSIOnbqJl7Ae1z2hedGurRp6MC+nZbgCH14N0Gy8DxcuLd97sxxSiC0okKbYOJapUpNn7X7ZkybSJUqVqBo0aLR7NnzqFuP3qHtgsf6RYsUpFUrltmWuX79RoRqgkBr5epX5+jNN99U/Rk4aCiNmxBkOqcyeeW5I5AyeXI6fGiPdd/j+VG6bMVQf/RHRUgY9Jw9fcwyjweHQkVL0tWr1/0+lVdefpnmz5tFJcWgx0xo98GDh/T48ddCK+wNSpw4kRKEQ6jfqEkLaiPeLXny5LKqnjp1mkqXi9oTGyYD3mYCnghIIbCnMiHdl1hMLrEgLKT0oka9MkLDeaYw+ccE4+Ily+iTDp396jjehxMmjKGMGTPQGzFjqrp4PuO53apNO5/dRmCyfOrkiZQ/Xx6KG/dtl8ndn37+mUaNHkuTJk9Tx3BaiezvaBaEOV05zmcCTIAJRGICpUu9R4sXzrV6iJn3VGkzepz9T5IkEa1fs9IavHg7rUuXvqIyYgDz6//+561oqPefP3vCMutEQ8+DIAzXJbswz3v11dfEbFxhypIlswujc+fO08FDh+m3336j6ELT4jVRLqEQnGXImJ6SJU3qUhY8unTt7lXL76PqVWnKpHGqLrTL4iVMrrbDYwWzlo0bNbS0cWrVqkGx3nhDHWbhoiXUoWNXtR3eK/369iRoFepp9pz51PWznnoWr0chAhPHj6GCBfPTpk1bqFefAR573rJ5Uxo0sK9V5pHQbM2cLbfH8s/jTviITJUyhXVqQ4YOF2aiE/0+zXJlS9P0qROVcEs2cO3adRoxagytERqWpgkknPIPHtTPZZAk62GgNGzEaLkZpZf+3I9R+kT96Hy8d+PSNHG/JEyYiIaPGEUrV631o/bzWRQaYaVLlbQE0gkSJqAsmTO5nCi+1Y4eO07Q8Przz7+EVvg/9MKL0ejlGC/Ry6+8bL1H48eP7zaZ9qy/jfAt07e3eJ8KTffWbdrTpa8uu5wXb4ScQPJkSala1Q+pebPG9Pbbb6uG/BWE5RDfnZs2rlEavBB+/fDDD2LSO6bKQ+O+mMxjouPgvl0u9yGEX9GEtjF8Ect0+84dMVaoRN9++0Rm2S4j8zuaBWG2l4wzmQATYAKRm8CZk0eUUGvM5+NpyLCRjh2GxgxMiOLFe9cqc/LkaVq2/Au6eu0aFS5UyHKsHDt2bJf6GPzkL1TcJS+sNwYN6EMtWzRTzT7rjz3VkTBaMQU0+DBJnCw1/f77H7ZHKFK4gBiITqZ33omr9oNJztwF6N79ByrPXIE/nmJFi6hsmEVlyJxDbYf3ypGDeyh16lTqMNVr1KY9ew+o7fBceTtObLp4/rSlEaQfZ/OWrVS/YVM9i9ejCIGhgwdQs6aNVG/TZchK3wm/c57SnZuX1Qd685ZtaNXqdZ6Kh8s+mIGE1BQxNB3SJ0VglpwkeRo3gZW39nt81oU6fvqJS7E///xTCCH70yyhYeop4bm1euVytyL5ChSl6zduuuVHtYyQ3I9R7RxD0t/DB3ZTmjRBJvA//vQTpUydMSTNPLd1Sr1fkpYscv3tdOvey+vvCUAwObZ960b1zQYhRIpUGZ4JKzzX7t+5TtGFeRzSgYMH6cOqtZ5JX56XgyKgSY2PqtHrr79mO4mA8/RHEFayeFFasni++g7CZPYHH1an7394aiEzv0UnT5lGffoNssUJtxf7924nOSbAb7tqtZpK07pihXKW1pq8H3CsIsVL2balZ0aGd7TeH7nOgjBJgpdMgAkwgShCIHu2LJYvGHQX2j9JU6R1FK6gzOwZU+iDDypilWbNmutmNgcV6C2b1rnNXq4VGgBNhK+l8Ei6SaRs/3kThO3esdlFI8wXbRW7j+c9e/dR9Rp1JSa3ZccO7ahH9yANLAjbWrftQF+sWOVWLrwyHj+4pT7AcA3jJ0ru90A8pH1bs2qpJcw16584cYrKVqhsZvN2FCBw4cuTagCI7iZMlMKrTxJdqB7RgmD0sfHH9WnE8CHkaYCBcuGR9u/ZThkyBPnimjd/IXXq0t2vw4waMZQ+bljPpc6Ro8eofoPGaiDlstNmQ+8Ddj8LP4E23QqTrJDcj2Fy4EjcCL4Z7t2+pgbxX3/9DWXMkjMS9zjiuwYtwlo1P3I5cMo0GenHH39yyXPagEnZMeGHE+nO3btiQizIF6xT+fDK16P/4Rhbtmyjeg2bhNfhAqLdL5YtohJCeKUnfLvpvmX9EYRduXSW4sSJYzXnJJSeM2u6cJ9RziqDYxUVwis7zb6lQqD2/nslVLl8+Yu6uegw74m+/Qd5NZN81u9onbW+zoIwnQavMwEmwASiAIG1q5dToYIFrJ6uW7eBGjdr5bHXD+/dsFSj8fIbMXIMjRs30W1gCd8wt258pWb90CCEGgkSpwgXLYezp49SooQJXfr9vAnC7t664mJm5Mu1ApBvHt1x+SDyZZBRtcoHlFNEdRs9ZpzPg1cX+CHcyJM7F20W6vgy3bt3n7Lnyi83w3UJ3xUb1tkL/G7cvEV58wdryYVrR7jxMCPwmvCNckf8bmSCaUfqdFnkpuMS9fD8gqN4pPafdqZFi+192Dk2EoodY0YNowb169Lx4yepXMUPQ9GSf1Vh8n76xBGrEp7vqdJm8nmgjUpDBvUTJjmug9qQaHxAI2G5GNzJ9OWX56hkqfJyM8ouQ3o/RtkT9rHjMAGcPGmsKr13336q9lEdtc0rJH6XhylJksQKxffff09p0mdV276sSC0aCKYrflDNlyphXmbR/NlUpkywxo+vWm1h3pHnqEF8N7Vr25LwvbRj5246sP8gzZ41jcoK83SZFi1eKt5jXeSm4xJBr9avXan2d+zUVQRcWqK25QrMHeFLFX5kka5evUYFCgcJvGQZOMW/e+eaKrNzl7PvYd0q5S8RoCm+mLDylJ71O9qpbywIcyLD+UyACTCBSEgATpGviJeZnDnKIvzheIr4mEGEu9+/d4fLmcydt5A6C99TZhopNBoaCc0GPXXt1oNmz12gZ4V6vU+v7vRJO3dNs+dJEJY4UUI6c+qoCytfotpBLf38lydc6v1P+GpLkjytS15k2TDvmeVfrLQ00iKif9K/HD7Crly5ajmIlcd9FlpB8ti8DDmBenVr0dgxwWbe+/YfoKrVa/vU4JKFc6mU8NGHFJECWRxv3JgRVLdu7QgXhOmz/P4KsOCYedGCOei+SvjdZMuex22iRBVwWMEA6sH9YDPI58U/WGjuRwdUz0W2rjWCE/qse2+aOXvuc3FuYXEScEfx6P4tJZhHm56ECk7HvPrVl5aJ2pKly6ld+05OxcI1X9c2woHSpMscoZNt4XpykajxhSJIiS4I81UjbP3aFSICfD7rTLz5h90qLD9y5Qpym4GJE2jv6+b88LUKM0qZKlSqavm0k9v6spMwpe8uTOplql23IW3fsUtu2i6f5TvatkMikwVhTmQ4nwkwASYQCQnoZixPnjyhtBmyeexlCzHbP3hQP5cyTkICu0iABw8eospVa7rUD80GHDofObTXEuTB5K9woYJKC+15EoR17NBWmCt2U6jw0ZEocUqvA0xzph0NIIJkthxBHzqqwUiycuzIfkqZIrnqjS8fQ6pwKFb0D7b+AwZT3ry5qVzZMqrFyCw8VJ3kFTcC+ocydvozwK5WtTJNmxLkJN7X35tbB0KYMX7sKKpTu2aECsIgfLpz+6p6fjppAtidEhydnzl1zMWJMgZR8Ot16/Yduype8x4JQZj0G5M3XxE3cxqvDUTCAqG5HyPh6YRZly5fPOPi2Dut0HR6IjSeOAURQNTV5UsXuuDo0LELLVy01CUPGzCBHD16GMHXUo9e/Vz2S63yZxUF2dSIfPr0qdA6dQ0A5NJh3ggxgZAIwkwtK29jAtNct5lwfbJauECRybTUSJQ0laPblfdKFqdlS4Inydev30SNmraQTdkun+U72rZDIpMFYU5kOJ8JMAEmEAkJyBlCdG3/gYNUpVotj73MJMIo7929zaXM9es3KF/BYi552EAkwBvXLrnkn79wkYqXDBYwuOwMwYY0F4APmTTC5OnGtYtq8BRegjD4VGvVsjlt3bY9wpxob9qwmvLmCY5e9/DhI8oiNC28pX3iWiH0tZ7GjZ9IAwcP17MizfrXD2+rWW8IH+IlTBbu/sHw8Xf96gVrEC/9rg0fMpCaNPlYcQmve0kdgFfChcDFc6esSKSycX+0D2IKx8O3blyWVcn8yFc7wmFlwrjRVFtET41I08hGwq/XSOHfSyZ/hBGLhSZYaaERpqd27TvSkqVf6Fl+rT+4e51ixIjxXPkHC8396Be8KFQYbhTuCfMpmXw1X5blI3oZRwQC6tWzG+EdPGbseBcNmPDqi3we6O0nT5mOfv7lVz3LWpfmyXamk/L9WrN2fUujzK1yOGeYEakDzQT2s66dLIHvqNFj6PHX34Yr7ZAIwqRvStkxb77kevXoSh3at5PFafv2nVS73sfWtvn+9PYNlSZNKjp8YI9q67vvvqN0GbOrbbsV8xgR+Y626w/yWBDmRIbzmQATYAKRjIBpfgJNmAmTpnrt5dHD+wiaWEgQVrRs3c421HmunNlp6+bg2SGU99fcBnWcEj4qOnfqYO2WL0Bdi8Dbi9epXW/5uvCwQOHiwjfCdW9VQr3/1vWvRNjq11U7q9espWYt2qptuxXdOa7c/+uvv1J68XHxqzCP1BOiJXb/rCulT5+Wvn78NX2xcjVtFk5s/U0YJLwnHKPCz0TatGnoxo2btE18HO0QKu6/CWGlp1SoYH5auzp44Hz//n3KljO/W5XatT6i8uXKCMFVDBo+fBSdPvulWxl/MnRzsIofVKUjR49Te2Fq21uY3OoJQjld7V/fh3VEw0K0vLx589CtW7eFr45dtHbdRpdi+HAr9f57FiP4ezl48LAVzckuimc+0Q40AXLmzCGEu9Ho2rUbtHTZcjp56oxLm75uwCF1rRrVqXz5coJddPrrr79p9569NHvOPMdZWrQdN24c6vBJW8omwql/+813tGrNGlq/YbPXw0JofuGiqyBcr9Swfh36SES6ui8imMJhsj6TjHJgBeFK6VLvUyJhGnxbaBbt23eQlq8I9l+it4cBdcaM6S3t0BdfjGYJVDesW6nMvqHVV6NWPeu8Ue/R40d09+59vQm39etXztObb75p5UekU+fJE8daUcAiUhA2f+4M8bsqa53rzz//QslTBTnMd4NiZOD+uHT+jOKM3U4Olo2qHjelIOzUqdNUutwHHsuaO6FdUK9ObXor9pviN/s3ffXVZZowcbLHwWdkvB/r1qlJ1ap+SPDrOEe4FDh67Lg6VdzvrVs1p/zCjAnvujNnztLn4yZ4/C2rymIlebKkVKZ0KcontF9feOFFWr9xI20QWhh/CNPwkCb06YNKFalSpXLWgP+B+G0fF4FGNm3Zon5ruF+SJkkinpdBUQMRJVTXdoYmUxfhQkE+a6+JaNQyWp2nfuF7A9GO4S8p1puxCBN0U6bOsHXg7akdb/ugmYXnMhJ8pI4Y9bm3KqHeLyf8ZEOehATnzhynBCJKpF1QHGiEQcsyU5Zcbhp3+Ab4XJhkw/fToUNHrUjgt+/ck4e0lnimVyhflgoWzEe//fYHfXX5Mk2fPoseCKGgXcI3SOw4b4lncTRrd4/uXahI4UKq6PwFi8RxVlr3LzJPnjrlMvEFTdNePbuL+yUxbRPfEAtE+R9/+lnVxzVvJSKFx3k7DmESa8nSZWJC97DaL1dgWtqmVQsqLnwP4r13+PARGi+eB//8868sYrtEtM1vhXl3aH4TsmE8X0aPCpqADMkzTbbj6zIkgjDpm1Iew1sER12THnX0CVrzew5RgxMIKwanhG/HK8J0VyaMLd6Jn1RuOi6f1TvaqUMsCHMiw/lMgAkwgUhGwFS3z5E7v/pY9dZV1IWG0rTpMx0/Us3ZIrQ5feZs6tGzr7fmve6HU+eTxw5Zg92Dhw5T5So1rDoRIQi7L2avXxYf/EhVq9ekffsPWevh9S9B/Hh07qyrn68GHzelTZu3Oh4Sg42D+3a5mJtgsIQQ2BD06Kl4scJCJX2hcmgq9/k78O/wSRsr2qR0MC7bwRIfNeizJ+Ga+RGGSJWt2rRXzcCZ/QLh90KG4ZY7QuM/SI82qgtpESxg+tRJ8hDWMnfeQo5mXhCCnRWmYfHFtdKT7pRY+n3S98t1mKvmEEEB8GGeNUsmmjVzKqUQgwi7dPjIUapUubrdLts8CA379ulpmZxKX4B6QVwb+PnD4NNM4DB54jilZSn3b9u2g+rUbyQ3XZbwFTVHOOqFNo+dMBODZWg4Zs3q6rQeg3z4EEHyxAqDQGiVmr4MIfTKny+vS188bUjtP09ldH8pngafntoIyb4pk8YRtCciUhCmD7ZPnjxNZcr7JnzSBWjyXCdMnEr9Bw6WmyFaymd5v/6DaeJk7xM0GHRPFtyyZ8/qdr/KDmAAWkk8A3///Q+ZRZH1frTjCi2fXOI5VKlieRojBtXSUbU8GQgws+bI4zHAAd4nM0XkZwjazQQ3BzVr16Px48aI4DMJaPqM2TRydLATe7O83IYvylkz7dtEGTxj+omJtkmTp5E5qSPbcFp6M5HC+awTfo2cnpd4tubMXUAJ1pyO42v+ru2b1LNr0aIl1L5jUIRlX+v7W87OP5jT87dBvdo0ZvQI6xD++GOFC4Xx40a5/G7wvVClWk06eOiIiACekVatWOr27sWBcG2nTJ1OffoNcjk1O7+mLgVsNuSEJnZBQ2j/nh0ufUI+AvhMEs+DjetXq+i2yJfJfPYkS5pYRDFfT++8E1cWsZae/Bfifj4uImy+KrTFIUhPnzGb43euS6MeNrp360ydOgZ9z9y+c4dy5QkWCHqoFuJdIRGE6YGzcGBv7wH9fkN53dS1TesW1L9vL2RbyZt7CdznXz90NaNPKnzZmpO2sj25fFbvaHl8c8mCMJMIbzMBJsAEIimBoYMHULOmQYNZb7M1ITmFbZvXWdoset33S5enM2fP6VkhWpdaaX/88Yf1kSJnCeXgCY3iQ+7dBMlC1L6nStcun6O33nrLKgIfONdv3PRUPNT7TO0kfHiaTknlQfAxAd9Cgwb0c9EgwwCpQqUqbho6OXNkE1Ea11oDqp9+/pmuicg/OXJkl80JgUs1OnzkmNp2Wlm1YgkVLVLY2o3+HTx0SGgw3bQGUyVLFrfahxN6CHtMAYZs0/QPVlcIWrYKgQtS08Yf09AhAyytE5jBfv/9D0ropM9CyrZ8XR49tJdSpUppfexmzJyDvnvyvVXVLoJkjZp1adeefbZNz5k5TWhBlLcGBYeEYLaQ8FUnE7T38uTOTYkTJ7KyoC0DIWOePLlcBm8YVG3YtMVyOC6Fibi3oOmB8ONSMwmNQDvETnAljymXpg8P/F4uCPPkry5foexCwytDhmCtH9NMBYOfnds3W8Jm9PnLL78UPviCP94rV/nIGiTJY8ml7hfEztnurOmTqXLlStbv8/Tps8rZLur7ysrOZENqQsh+eFv64q+wa+dPqWuXjlZTuK99maH2dlxf9j8LQZj+7DQHk059xiz+VxfPWPeILIPnbvKU6b0OYGR5pyWeZUjetDZQBtoWMOuUvxv04abQyoTgC8Jp+I6UQmAMgPPkK6TMyiLj/agL4jEYzSGe0/Lc8K5+6aWXcNqW2SgEFYULFbAEz8jzFGAEPnWmTBqv2sLgdL+IMPeG0AKCEFkyQjtIvmj2wRl2a+EqQPZPsr8stIWSJE5MWbIE+4AqU66SEEqscztO0NHs//fuO8DS7LLbC42gTRvWKIHgY6HNjOcYnjv5hVayFI5t3rKV6jdsateE33krv1hsaZ6h4pjPx9OQYSP9bsOfCu+VdPWdhLrwdbhg0WJrQi7WG29Y7g8+FM9UCM/lNfTVDByTZhfPnbauH4SGb8Z6U3074J2Nc+winoNoF8/AY8dP0NMfnlIJMRkq70P0SX9fYxsTMPPnzsSqz0mfjJXBa/Dt8uT7J5YWoWwI/ZL+AxGt8HfxXsucKaO1W39Ow+rhnAgW9Pbbb1v3xM6du60AKJKR03tUauTK4/n6HSTL2y2bNG5Iw4cGCQvPnTtPJd4vZ1cszPJCIgjbv2e7yzcBrnX5ilUc+wQN84kTgjUi8X2RMEkqq/yAfr2ExmoLVRfWCElTpFPbdivfPr7rkl3AB4uLZ/WOdumotsGCMA0GrzIBJsAEIjMB3e8UZpr9DcXt6dzsfIl5U7P21J6+r12blpaGC/LatvuUli5foXbrg7nQCsLgL2HwoP70v99+o48bNVWaX3qYZ2kuB3OCtauWU+bMmSzfG7XqNFB9Cu3KxvWr3GbvocGDD74YwsTtNWFCFkt8vCYRgpZUQqijawmgzMpVa6hjp262A1PppBimN5g1z5Qpg4s5qy8DYj0SGj6E8uYvQtLUD6YFCGbw2muvWRg8zaBL/yUoiH5LYZ8eKGDNmnW0cvVaSzNMckXZkAgodH8l4ydMpgGDhsomCf3+UpiY6KlT5240b8FiPctahwkffOFhICh5SbMuvTAEeAMGDqVpM2ap7JPHD1KypO7q/xiQtG7TXgmaoHGGqGHyA96bdhL6dEBoBErhGw4IjbdqH9URA4J/1PFHjxxKDRvUU9v1GzZRWnvSBBjHypojrxCcZROz8KtUWWjpQFtHTziu7lfr7t17lEPcVzJBcHL50lnrPHr17k9ThUap/puV5XxhZfrIgWkPBNQvClbRhdkVBLy6OXGJ98rQr78GmwRDgOptttn80PdlhlqeQ2iWES0IgwnSBTEYlqmLiAI8RzxjvKXePbtRe2E2qydds1LPD691U3MKz7L3SpVzEbiXFCZRy5ctUl1YsXK1MOn/hCLr/SiFyReFaXHREqWFZozrABUngvdpuQpBAR3KlCmlzs3JDycmE4YNHajK3bx1i94Tg3E5iWTe6ygIlhmz5FR1zBVT0A4tyw+EtuoN0TbSovmzSe8b3ltjhfkmNKrxO4UQR3efAP9gZQwzWE8TTZfOn1aaPmZUPH0gHpJvAUTI3ig0V+FDcqgQdo0T7wgk/Zx1h/UIcAG/fhDG5cpb0EXr0KoYwn/68Xxtwh8/a9K/H7R5Mgi3Cf3791ETpPrxoInctl0HkuaSZjAkO1NM6UIDQquaQmiiR/eGJj++S2TCM19+N5QrW1q946El/Ouvv9Duna4a8LimcMtx7dp12rFtkxLEor1CRUrS5StXacnCoMi/KFuk2PtW3uMHt9Q30rnzF6jEe0Hm4LIfWEohnBLX4iwAAEAASURBVMxLmCiFX+aR0CbDex0+sxqIb0e8c3WB5o6du0l+I9atU5MQtArCveo16rqYP8vjh2QZEkEY+i2FxzimN+1z3Vk9yuu/M1PDHxOtKVK5+qtFHT2ZgrDqNWoLE98DehG3dfO5FVHvaLeO/JfBgjAnMpzPBJgAE4hkBA4f2C3Uz1NbvcLAOywjCUqNLXnK+oeIzAvJEirrGCRA2GOntq0PqvWXckiOpYeGRv158xdSpy7dSZpGyPZhCjZbmLJJc0mU9XU2FmW9JX9NSWR7MC3s13+go1+c0qXeo8XiQxGCpKLFS1m+VMwQ1r441td9NGDAMFrMIMtkmrhJQZHcL5fwKbZ+bbDvJ3k/yoE2+ghTDwzOTU1DDDwyZc0lm/JpCcHS9SsXLUGJnRDYTk0fA7hBQ4LMTvSD9O3dk9q1bUm6VqUu1ENZ3CsYnJ87f1Gv6jKokjugsZI9Vz63gZT+cS7vPVnHXO7cttHy6SXzFwptsw42JjyYMb8nnJJLbQ7JXWqkgDvMEOHra9CAPtRS+GORyU4bQheKopxp3gofah1FmHT9o1gfmKCOr6zg72vX7r2o4pbM6GR219itkk2GKUCRAyybomGaFdGCsBxCO3C7uGdk0gWiMs9uqWvHyP0RGZFO9xOJ48MvVNESpdx+O9inT2DgHkuZOoMYmLeJdPcjNDHloL/k+2Xpy3MXyNR2hHA6S9bc1uBcf+fhPDHx0aJVsANr5OH6btu6QQnScf4Zs+Sgb799gt0qme9t/L7wO7NLphD93r374rkV7NMRQvGbwrelFN6jjeliEqBHr36qOTOqsafjqUr/rTRv2piGDO5vbdmZXenPYP3ZbLbjtC0jt8r9p0+fERMJtalN65bKxA1asffu3ROmmSuF9nNCWdSv6LSqksOKft86FHHLNrV73QpoGXLSpm//QZbpqh5JXBZzEm5/8+iOur7mpIesK5emUNRpYgnl9+zaaml4ycnTihXK0dzZ02VT1lKafprXCe+sxMlS08vCNP/61YtW/wYNHkZjx0+y3A7s2rFFtSPbVxliBabSevAGb5NOel2sm+8MRF5EEKr/iUmYY0LQhATfaN179rG+v+DXTiZTmCvzQ7IMiSBMCuDl8bxpTVcRWogzhIa3nt5NkNTS4p06eTxVrxasTaa/8/Xy+ropCPMl4IrJO6Le0Xq/9XUWhOk0eJ0JMAEmEIkJ6C89qJcXKFwiTHprzhKh0UZNmvvkYNtbB+QHEmbPMmbO6ebwVR8UeBMWeDvWjGkTqcqHlV2K4WMPs94wa4OqNyJHmmV8MSdxadTDBvyfmP7BpGnCC0IDCU7P4YsJzsThgFhPPcWAQ9c+0vdh/cDeHcI5fjrCB36pspWs3bqfIGSUq/ChcHZ80tpn9w8O2O/fCQ4WYApcTIaZxeDt0ePHbk2Zgypofv3w9Ef6uGE9S1DXum0HS6iCiqZ2hCdTILcD/ZehH6923Ya0fccut6L6QAo7nY4jB6nyo9EuSISpuSgPNlv46vngg4py0xKm5clXWM2Mqx1iRdd+sDM5lGWlsEluezMd1QWZ8jcjheT6jLk8T9munZkzwp+/V7K4LGL5hdN92Z06cci6T6WpEiKwYjZfT76y8uSfz5wl3i1MWj8Spq3+JviQO7g/+N6IqGhrES0IgzB/kYj8KFOp0hV8CkJhPi9QP6IGIjBfhvBcClrwm8iUNaebcEeek26+jTyYOo8aNSzS3Y/SLEsfOJrPomJCS0wGojD3SeGZPG8Iuy9eOK3M+ZHvNCFhMurWvRfNmj1PNqWWusYOMvHcgCbwLRHQQiY7H1FZRaRj3bG61EaSdXzVRER5vS6ufdIUaZUA1NSglc9meRxflnaDfAjcVglBY926ta0m4CwfAXvkRAIyIYjJL6Joe9Jk8+X4KIMJmccPbqt7HHmYAJw2Y6bQBo8hNK1fFdrgsYSAJzNVrFhe9UMKiVDeU5JCBPQ5SbI0VkCbQ+J5h0A3MuF7J1vOvC6axNhnThZ583ulv79QH4JoqY2IbZlw7R7eu2mdizSLHff5SKpbp5YsQrppof4uRwEp3IKQFMJS3VzP/B6x01AP7bsD1gHXLp9X1wJ9At+Roz5XZvYQVpcWz9w3YsbEbpV89YeoKnhYMQVhS5Yup3btO3mo4a4J5yQAlY3Y/Uakprb5bePLd7EpCPP2DYt+PKt3tGRgLlkQZhLhbSbABJhAJCVwRZgoxYkTx+pdWDllhknZiWMHlb8SNA5/FjNnz7WOE5p/jYRQBH5gkJw+mMNSEIbjQKjXv29v5Y8KeU4Js84LFy2l3n36e42Q6NSGma+bBWIfPqikyaBZ1gx9jf3NW7ahVavXmUWtbenrrEWrtlbUT3Pgojs+tW1AZJpCH/Rvy9ZttGDhEitqIgR0M6ZOFtpyMYQ21XDHkO2mJgIGHHBUi/YaNmrmEhgAA+CpkyeIeze20LC6QDWFxoJdGHmnPuMePXPqqPWhCh9CThHp5Ey5bMdpll1qNElHv/IDXNbbsmUb1RMmh3bJNEX4uHFz2rBxs1tR8Lt3+5oaEDl9VEKbBDPeUjiAhuCXx1OkSXOAAmHlgX07rIFz6zYdrCiNpkBWH6TrnZXmlMjDtUskokTpEbckK6lxpJsvoY4nVmdPHREC3yA/ayjrJFTFPn2QjG2n5wX2eUoY1NwQWgUydezUleaLezu8U0QLwkynx57Y6ueuBw5BvhSk6mXCYx2DcGjKSpNrHMNbIBZTI2XI0OHUrWtnS7s4Mt2P0m+hdBJvasvCpDFPvmAtEgQpaSvcBeA3v0Bofprmyt01J93g5PTswL6L507Ru+++g1UrpU2f1W2yCTvMZ8bkKdPcnKWj3JpVS6lQwYIELddJogyc5evJbCdlmoweHf3rdY8c3EOpU6dSWRD4z523wIrCCz+UHTu0EwKrWrR79z5h9j7E53ZVg2IFgnoEJTADe+hl5Dqed3hHfCqeEd6i0co63pal3i9JSxa5CiKd3um6CaUdRwiYXor+ksu3yfAhA6lJk49JagKjPw/v3VC+v/B7zpo9r+3kldQoRx0kT/6k/NHQRdTPzRvXWO+PZCnSWebrpv/QKtVqqOiQMIlfKRz5pxH3ArQSa9dpaJnmSm3VrVu3U90Gja0+3rx+yUX4lD1nPrdJJ/PdEZLvV/hdw31TtkxpF4GY1QmbfzDv7NKtuzonmyJ+Z5mCsKXLvqC2n3T02I75HaYHorKrKDXH9X1x4wVNyJqahU7fDHpdUxAmv6n0Mub6s3pHm/2Q2ywIkyR4yQSYABOI5ATu3LysBhLwZVC73seh6jFUyqFlBsekSPgwbN6iDa1euz5U7aIyfLlcPH/KcpCqzwaaDYe1IEy2jxnwAf17k+4/Qe6Db4vpM+bQUDGw0gf9cn9olpuFI2Bon8mkf7DKPH0pP/5knh61UObJJaJFvvPOu0rTypx1laagsrzd0vQJpZfBRzQ0BDp36ab8q+n79XUpINHzsN6kWUtauy7YZMvcH5Jt3bQSgrAnwvH+P0KjAPcr/jCgxB9mbPUk/fXoeVjHgACO7GEGiGTOqJcuW5FOCafwdknX5vBkvqP7M0M7ThoOC+bNpHJly6hD+WLWYbKHT5ZXX33Z5d6QAybZsJ35Vaw3Ylq+0mQZO5NVsPrtt/+p+8HU7nNiBa2W+2KAJgV83hzvhmaALfsvl/rHOTRARoiZfX+TdCjuaz15D6I8fke+Jvi+gvakv8kUuEvzFk/t4Jo8uO8aKMSXSJye2sQ++JeE3zpo2+7ctce2uKl1jN9t2vRZPEZ2MwUncJS9fcfOSHc/wowxXbq0tHvPHsus3fztmeaFtoC0TNO0ft26DdS4WSutRNCqKWx3mggxfY2BfYpU6f2ajMARTeGIP36tUN/UPkWeTBh0QwDSRvi00n0iyv3+LqF1MmL4YCpYIL96Bsk28PtEFMfOXXvYCoxkuZAspUBc1gVrmP3pUU/lvjmzpotoouVEIBl7f683rl20hEAtxMSXnBzDBEeRwoXF72yXFShGN8tFu54sBWZOm0QffhgcWXbI0BE0ZuwE2R2XpWkCa+dPTFaAkLt61ar07XffKtN3/R0Fa4D4wmeXt4RrliN7NvU7kgI2Wc9JU1qfIEZZJ2GwbMfTEkKawQP7WUEMoovnpZnwLdtZ+GP0NFFl1vF12xSEOWm06+1tEX41c+fOqbI8fT+ikPkc1jXVIYju0b2ragtBD5KL54SnpL9rUc6bRYJsS68X0ne0bCu0SxaEhZYg12cCTIAJRBCBu7euWFo3OJxTOG5/uqILAPBCrC0cxjtF2fOnXZSVL2i0mzV7bke/V+ElCIv91pvC0fAg8eL/0K3rUMXv2PkzjyaEbpV8zNCFlaiCqHrNWrg6p9abMge03gQGel1zttRXrRDpcF9vy1x38q+FcnYRGvX68LEB32O+OO/W69mt282w25Wzy3P6cDbL6veg/mFolitSuACtXrlcZUuTDpWhrZiDvh49+1oaMFoRa1X/TSNj1qy51K1Hb7OY2jbNCrDDzr+dKVjSTbNkY6ZWkSftLllH1z7wxMoUBHrSPjB9vPg7wJZ9k0v9I9vTfSzL2y3HjhlB9f4zp7LbH1Z5dn4TfWnb9A0oZ/U91TXNolH26LHjIjptVU/VvO7bt3ubFQXP0zU2/TdeExoV+QsV99i2qeEpfSLplSLj/SjNlGU/EfTB9DUo95lLU2sH+50mF0wzp/0HDlq+jcw2TfZXhFPygsI5ub/JH+GIXdu1a31EE8aNsdul8iAUQuQ50xeaKuDjCoQznT5tb/kGMwUaeL7gXlq0eJmPrfleTHdfgVp2kwuyNTnBY/ct16Z1C6HZ3ssqmiVbbpdAErI+lqaGrqf3h6k96KldUxvTV9NN9AmRrbdt2YBVK3l6T8oydkuzD3bmweZkjiftSbtj2OXBv9kwoXmH6LV6glBzytTpNFgIEO0Em3rZkKybgjDTX6ddm6Y2nLf3iekTVP/eNE1M7fz4mX3Q37XY5+s3qF4vpO9osy8h3WZBWEjJcT0mwASYQAQT0AUY3mZ+vHVtxfJFVLxYUasYNKTKlv/A5491b23rg3UMlqFl9K+YhcWHBLb1BJ9Xevrqq8tqc9GSZY5h2FUhYwXR1EaNHEZlSpfyquKOwVhYqrcnSZKITp844tIjJ9M5Wcj0l4HZ6ncTJJO7HZfQDluxfInab5rfqB02K4iuBd9terRKsxiuFXxf4dqZyVShx8fnS2L2FKaRegrtPYq2pOkeuGAA4ylBy0s/J18+ik2fV3DenU/4i7FLZlQlJ/Mi1NVN0MAyVdpMbqY+pmAN9XLnLWTLHPuQugj/Nt26dgraEP/t7pfkyZJa5s6ykJPGwdLF8+n990rIYsIfSUdasvQLtW2umNoHnlhJQbhsw5O5ijnAdjJplW15WppaKzLSpac6dvtglpQypXctBlm3f59elkYi/AzVa9BIZntd3r55O0RaqYhcNu7zUar9dBmyWhoiKsNhRddoRBFP2roOTbhkIxjK+S9PWHlOfiV1H0KysjctALtnqW5ehXYi6/2oC9Y9aY1KFvrSDFaCZ4dprizLmz59nH5juk9B1DUj7sr2vC1NwYSTPzJP7ZgDd7uy3vwc2dWRedB6/EwE+GjWtJHb+0iWkUs8F4ePGBMmbiDQJu5zPVIw8tZv2Gz5W8W6mfAerVC+LLVq084t0p587zlpNcu2TA1dJ42cZEkT08njh2U1ctIelAXMiRS7yRZZ1lwOHTzAJYqlXbRis47dtjlJlD5TNjcBacP6dWi0MGmUyUnzWu73tMR7qE/v7m4CMLMOftNh7VIDxzAFYTJSrnl8fducsNF9hOrl5LoesAJ5epRZ83tE99Um6+tL812Lfb5MyJj1QvqO1vsSmnUWhIWGHtdlAkyACUQgAem4GocM6Swb6uoDeggLCovZYd0hLsrAT0mTxg0tHwgY4PiT8vznM8KfOnZlpc8Vu312edCu6v5ZVxdTCHy0PHz0yHKwrK/r9b3NoullPa137fypcq6Kcp4GMbId6V9Gbnv7+JDl1q5aRoUKFZSb5O/HRMrkyYVp6EBhipBV+Z1Tjf234mSSY/qlkA7Jcb/gI1h3RBxSX0/ogoxAiXU97D227ZI5yPLFJGPIoH7UvFmwPzCYX3UR0S7tkukfzHRyLeuYWh0QjuQrECR0lmWwNH0B+XLtdS1OtHHFRrvDbNdpZlkXrKMt6TQX63ZpkBGF0omVKfiAsC5xklSOAp+wGGDL/qYSwivcnzLBrGjlqrVyM9yW0iQqrHw3euuodJoty/mqdWRqkcIXVIbMOWQzfi9lpDFPQmc8a2T0NXkAbw76zd8lnt2JkqYSgt9/ZRNuUVEjw/1oRvP09z0tA6LIk/RkuqpHpUV5O5MwO3NYb+zlsc1laIQjelvt27Wm2rVqUDIhsH/ppZf0XWrdF1NfVfi/FXx3rFvzhUubeAefOXOWcuTIbpWCkK1woUIuVXHvZhVaV/74rXRp4L8NMyABsp38g9nVl3m6Nq30hSf3mUtd6IpJxngJk5tFrG1TwOop2mFoNXRNjUg7bWTbTmqZ5nPcycXEF8sWUYniwe9W6axfa8rrKn4jZ88cF64F4rqUxURe/nx5rbzzFy5aJuDS1B+Z4F2n3seO5uAujfmwERJBmPnN6S0AghmY58bNW1bQDHTPFJbaTbLpp2FeI2/lZV2zXkS9o+XxzSULwkwivM0EmAATiKQEdu/YTFlEtCEkM/S5r12Go95ePT+zisMfUUERefK7J9+7VZfRHuHzBYIOfxLU1ZcvXUSvi3DsntJbb71FCRLEdymCgYNMMF2YOn2m3PS6NAcG0Fip8EEVWjB3tuW3S34omhpNaDih8GERWn9h27esVx/caNPTIAb7kXRfGth20t7BPpnw4Xbv7nUlcMJ5JUma2up/0SIFhZZPSZo7d6HlgFbWwcft58LcCx8hZ86eo8969FKDSphMVa5UiYYPH+TimPbwkaNUqXJ12YRa6n3Gxw+CAcgBasvmTWnQwL6q7L79B6hq9aCIXehDyxZN6a4IX+9NOAGHuhfPn7Y0vHzVdjM/9tEJbzOUpmCp4gdV6cjR46r/+oquTeNJyGYKKQcOGkrjJky2NAa6delE167dsBzam9qAnvy7oB/gd/f2VRdBb6s27ZWvM9lX/TmBPLsom+asrG6OCJOrNGlS06gxY9V1RTvmIN2JlR4kA/V0QTOEhHnz5LKccH//w1PsdnPkbWof5Mubh8qVK01r16z3GhmxUMH8tHZ1sFabp0iV1sHD6F9EC8LMwYTdNbY7tZAIi+3aQR5MoLZuXm/dj560jEzn8Z5+O/JYZsRTO7PdyHg/moE3/NWGMU3rnCYj8A7QffDpGj6YkHgnblwaOfpzcY1yWI7MJVcIht6Jn1Ru+rw0hSP68WQj0KhJly41TZ4y3eWbony5MtSuTSvhRP1XGvP5eDp4KFhrGvdxr57dLV9Zsh0s7YR6+n679Tkzp1GlSuXVLvg4wrdLoYL5hO+jblY+NKaSJ08mTDRHW/5LZeGwCKphRjhE2xDe+mNGh0mEK5e+tHxYehIuo+2sWTJZgVawjuQ04YJ9UsMM60hS8xguJJqJSI0Q9MhowaaGrv4OD6odpJmMiRu818ykC+cgwE4gArD4m0yBjdNkjnledlpj3o5tmhjjm6ZP34G0Zu16pe06e858mjN3vni3LHeZOAzJ97FTf0xBmJ1fT7Mu/DPuFabpMnnzMYr7HkJomUyH/LqpOcp4EkiXLFFMfOcvlE35PCZ5Vu9o1VFjhQVhBhDeZAJMgAlEVgK6OSP8MKXNkM2vruqOMjHDVkgIwZxmQaWvq3HjJ9LAwcGq5/KA+BDPmCkD3RDaLnYhtWU5T0vzJe7rjJJTmyOHD6FGH9e3NLHgy6FPv0FWUV2TRwpGIDBaOH+OFXzAF4GV0zH1fN0cDvlOgxhZx/wgQP79+/dF6PP8sojtUvcfggK6OYA0gzHDeptO/O00tSDAvC4i7slZT7tBnKnxcPfuPcqRu4Dqp24Wi8xTp4KjPEon0mYdVVlbWb92BRXIn8/K8XVG+TNhMthZmA7qKVOWHI7+6VBO/2iXglK9vlw3zQZgwlu4mKtzfllWbxMDTxlJSwqh5eDANCHZtXsv1RARNZ2S+RHrpM2jCxFwfLuopaY/EOlfSI9EmjJ1Bpfftn5enlhJIbo8DxlJSr83Sv8XkMCXAba8pxctXkrtP+0im7VdmlGxQqr9Ytu4h8yIFoSZ/r580ZhE901zQuTZCVOR7ynh+X/xwmkrUinuw2zZ8zhOJJg+g7wJ+8uUfp8WLZijDo/3Qq68Bd0i+0XG+9EUrPv67JIna2rT+OofTL4DXH6/IqKjeBm6BMTwJRKc7AtMrKVpvCkckc8LWRbHPX3yiPXuqF6jtjL1M7UBna79/LkzqHy5slZz8vko2/Z1CX+SixfOtfqASZyatepbEQx18zF5r8Pp/Ib1q4QWTFIh7P+HsmTL5fE94Usf9OcuyutmZ77URxk9kqTd+1dvx9TQnTtvoeXIXS+DdbhC2L93h8rW/ZZJ/3H6JIypoWv6t5TBF+y+10xXA/5qRMpOmo797TTjTP9g/tzb8jhYYlLo+tULliYh2HzwYXVLqKi/86UgHoLKebNnUFkRjAmp/aedw8zXnCkI8+Zf1uqA+Kdr+Xr77ZiTdObzydxfRHzjXNLclchjYtmqZTMa2L+PyrLz4aZ2aivP6h2tdcFllQVhLjh4gwkwASYQeQlIMxT0EH69EgktIF8ThC5rVi23PhIhBCtRsiz98usvVnURc49ixHiJYgjNoDdjvUnvlSxBmNlGavBxUzVTaGWIf4h0NG3KRFEnhvURiehDY8dPkrt9XpqDMrsPK58b+68gPsS+E0JCPRy6HlUoqxiwSTNQDMKziYhfcBgd2qQP8mVbToMYud9Ua0f+FcPUDYPCxo0a0thxE+jwkWNW1ZPHD1of8LIdOfDAdUEkKgg/cuTKr8KMY9B899ZVpUGGenYf2Sh37/Y1JQh7v3R5S3tMHgdL8+PbnFE0B7Frxaxqk+atrSakxp43k1e9ja1bg0Op6/2wWzedv6NMpcrVFDezjj8z6qa2mZN/MGgvbRQDLJn064koYLHeeENpSJmCUE+Oy/Fb2bVji7o2uMYwzbRzwq2bMDk5vDWd+UuTkl49ulKH9u2EAOwnSplaDKT/S+Zv1ZP2gT6rrGv/rFqxhIoWKUy6Cag5Gy8H9PK4MpgEng0ZhVDTmxNtmF317tXdqg5G8RImc9Fqk+2G9TKiBWHo/zeP7qj7wZvPLf18TafZGECmEkITqdWpl7VbR+TZA/t2UeLEiQjXN0/+wi7PW7MOHJfDd5I0mfYUjQwCtiuXz1PMmK+rZgYNHub2foms96MunNPvfXUyXlagYQFNC5mczK9NgZnUOpXCdf33KwXJaNPpeSCPhyUG+zA5w29VDm5lhENZTj4v5LacaNGFLNg3eeJYqvFRNVmM/nTQENIFH/ozU1X0cQW+5d6OE8flvaU/6xDEZbTQSpMJQlocz2lCUJbztjQ19FB+qx/vLpSXzzqs43mHiQhP/TL9gyHohd23jOlQX0YxTSi08b8UJoFI+oTnhS9PUrx471r5+Kf7H8Q306WLZyzNcTv/Z+b3wdRpM6hXnwGqLV9XTGGc/t0m2zDf9+a7Q5bzZQlhGIIA6cGi9PZ1rWa0h++9n8Q7Un5L+nIMb2VMQdiaNeuoqYji7i2ZmpCetOL0Z7/+jJDHMN/H5oSqLIelGfHaV0f5z+odrfddX2dBmE6D15kAE2ACkZgATB6Gi0iIMvlqPpAmTSrav2eHiymAbMPb0u4Y5swnPtqSJE/jlwkAjmvOHoaFIMzufHSnq07mXHb1/MkzPwAxCHdycizb7de3J7Vt3VJuWsvTp89QqbKVVJ4UnixatITad+xq5euaZ/qgUvruMjXRTIEL+pZfOISHMENPumDOacBkavtI/2CyHd2/CfLkIFYXFEqzDFlHX0Jrccqk8WrQnFIM0H/88Se9iOO6qaqPgp5MXvr27knt2gbz9xRxS9cqRLvmTCrykORANGiLqP+AwTRh0lTSP6r1we0DYeIKgTKSk4YXBJQnjx1yceKrD1zkseRSChzltmmegw/+9WtXKiEKyknNOWmaZQorfWVlah/IgAlxYsemy5fOWsfUhYjmM23I0OE0ZuxEq+u66Z0nnzbyPLHUB71OPPXyYbX+LARh1y6fszSycA7+OBgvKXzqLBMCF6n5ifoYRH5Uo66jVhfKIEHzZ/vWjcqfjt1ESVBJ1/+6uS6eP+kzZnMxn5OlzcGgkzP/yHg/mve+J61Reb7mUheGYJ+dgNMc+KIcfBDieS5/+7opGcy5ChUM1tr19PxF8IMd2zaqZ430u7byi8VUrGgRHMpK+qBXj2Bqvg/M56adsAJCCJjBS+GnKaySxwzpUkZnRH0nramQti3rmQIE5Ldt9yktXb5CFnFcQiA1XpisyeBFKGhnjmg2oE84eNLQlVFdZX0pVJKCDExMpBBCN2nCqT9X9KiCqC+DoOB4MGE3rQHMY+nvOnl8X5a6YBTlW7fpYLkTkHVh0nn65FF1zyDfXz+psi2npf495Gnix6m+v/nms0+fRPTUljn55qRZbvqws2sfkxYP7t5QYwUnDU68zy8JjWAZnMgfq4pn9Y52YsiCMCcynM8EmAATiGQEYsV6g24I0zWZOnXuRvMWLJabtku8sE6dOOzywWBb0CbT6eNK10SQ1SpX+cjF94fMN5cITf2GMMF7O87bBBXprFmzuBSBOvjJk2foifBbtmnzZo8zoi4VPWzogrCw8hkEk4+8eXPT60JzIXGixML3VRMXJ71gN3rMOBE+/bEwz/iNdu7cTU9ElCo9gcXc2dP1LBc/C7q/rVKlKyj/SLoqvBwoysERtBBSiwiF+kyy6Q/KzjlpH6FF84nQppHJKQKcLoSD4FL3D4a6MKc5ceygbEYJwuSAyPT3hQ8vmN0UFBqLBQrkoxSCq54gSPnii5W0bPlK+k1oQZoJg89cuXJQ6tSp6MMPKllaKnoZmGEuWLhYaBJ9SydPnaELFy+p3bu2b3K5/zx9tOt+0XSNJtXYfyumIAyDzt9++50OH9pjzaKbM8t6QAA0Yc6gQzA4dsxIlwhodoPj/w5vLXTNUWToZrAYsE2ZPF596Mp6ufIUEP4Hs6j70TQp9JWVLvBE29AoGTh4CO3dtY0yZEhvabImTZFWOBr+xzq01GKU/Zg+czbBFAfCOmjHvPbaa1a00ExZc6mBmixrt9RnvP0RDtm15U/esxCE6dpDTgMWp3OQ5k36fvh9+rhxMytAip6PdTxDRo8aRtWrVbEEaHjONGvR2oqKZ5a124afsHVrVijhG3wSlRbPNOmXEWbyMIdMnDiRqo7rB/+CdppqkfF+NINU2GndqpNzWIE2FrRypRP5a9euU/5Cxa3S0MRbtHCui1BLNpM3XxGh3ZyFZkyfbGXpv1/8ljasC9ZSxTO40gfV6ZF4N8kEX11tWregWjU/UoL5HeKdVatOA6vILNFuZfHskAnPi9t37lFj4Ypg+LDB1nW1+73pkWkfPnxEuYQZvbzmaAtCIPg4ii2+U5CcnKJbO0P4TwpvUF2fUAphc1Y1RKcuWKCAEES/KYTC74iAK42VUFq2i+c03ju/C0HT33/9TdGiR6NoL75Ir7zyqvUNlCN7NsqSNbNgkED9LmRdb8Ev8P2hB6DwJHTVJ6/+/DPIZxe0rhfOn20dF37bhghNOZmkMBXbUqsRkzHjx46malU/tIo5aQrp3wfyWLJdf5Ywc12yaJ6qsnvPPvqoZl1rG+8YaF3Dx6yedM01PT+k67qA15sTen+PgQkF3D8vxYgu7odXLN+tDRvUo5eFxp1MmIxcumwFXb58hZ7++CP9Ja7daqFhb5d0YS/2m9FDcf1wXeXvDN8w6TNlt51k1AWAaMtu0m3NqqUuQSf8+a5+Vu9onItdYkGYHRXOCxcCmGlKlCiBFb0tvnj5fS8Gur7MloRLZ7jREBOAdtGAvr0pY8b01gBv7vyFNGvmHJePmxA3zhW9EtAjvfmiem86rvZ6AK2Ak0aFqZLvj5mmbjqiHcp21Zfw0bYVjczatT6i1i2bCzOyC9S6rasPKaOoz5u6uaUvlWA+OmbsBJeiGPRcFWZAMJeTCcKlYcNHWYEGPmnXxvpQPXb8BJWvWEUWEdo8wf6z8KH6+OuvKVHChNZ+mFAOGjJClZUr0j+X3IY51D0hJIoZM6Y1+y8HXthv9+GDfDiwvywc+cp05+5dypm7oNxUS900Dx9cGAi8IY6Dc4Mmle5zwvQXoRoxVj7r3ts2zL2pnWhUc9k0TQF0gaIn4Zbpy84UZukHMbUcMehMnCiRNbCF9l6R4u+5mZHp2jJoC7Ort27fpiRJEqvrinwMLFq2bkdr123EpmPCRzaEkdGFmZlM8FcDTRxp8oKZ/leFcENqBYFNzNdftzTx9AGwrO8rK5TXBc9oFwn3OI4PIeyq1eusPPlPH3jhHO+I+xIDcyTcp/kLFPHJfw9+TzDBk+c0fMRo4TB8rDxMuC6fhSCsbp2aNO7zUeq8EgtTeTthsSpgrMBkqpV4LkpecjeeKfAZ9N2T7+jVV14TQuaUlvNuuR8CjTLlKvltFmQKfXEPXrhwSbQdywrOIPuB+2TmrLnUvWew/xl5bLmMjPej/lxGP3VhlOy3L8vmwnn54EH91HWBcOhr4bsoS5bM6jeNZ1DOnNlVGfzOXhdCY2ho7Nm7j6oL7T49mYE5MFGzb/9B8Xt/QThdz6wGyKiD31xrEYRj85ZgJ9x4ppw8fkhpgMApN9Lbb79tLeWEjLWh/YPA5uCBXUqwh+NCAPf99z9Y2oVvvvmmOgd8b5QqU0GZ9GvNhGoVz+ThQwfT/377lVq2au8iAAxpw6YgNqTt2NVzeq/qZaFJDo1ymZze+9ivC3SwfePmLUohAgbg9wZNpwKFirkIm02tbghj9QifToExzO8Dp3sCffAlnRE+5xInDhaMQzD09OmPSltRb8MueIO+PyTrEP7PnTOD4r4dhwYMGqL83oWkLbOOeU3M/U7bpmacLIcJb2hz452OhGcotB/37d8vBK0JqVu3Ti7fmU4TnbK9A8KnXHoxySgTninQyoagrk2rFi77fPHdKdt5lu9o2QdzyYIwk0gk2oaNdPoMwTdiaLqGAQhmJPCR+dtvvwltgV8IA4vLV66GplmvdSH8giaA/HHqFfwZPOv1wmMdD/Azp45aHxl4OcgPMrtj4QGDhKX8+/PPv+iB+FjZsHEzwUm3jIZlVz8q52HGs+Onn7jxwQsqe858tqYOducLPwN//PmHy8vXrhznuRPQ1ad9UUeGEGjCuDHuDfmQY2fGgGrwrTR18gRLC+e7754Ip/QD3SLXOTUvBWF4JiHJ35MsL39/WJrmWbJMZFgimABm8uD3xjwH2T/9OeKkbRQ3bhw6fGCPy0BE1scSg87c+Qq5aMPgeQUzSHNGVDc509uQ6/hwbtWimRrMyHy5xAfyZ917EVTr7RJmwc9/eUr9/qXjYbMs7o+1QvsDwi+ZcL1btfnELVqkbgqkc9TZoa6ds2y0LU1Hsa7XxzaS3o5pdqpHnFoutM6chKQQyhw+uEeZa9at34i2bgt2Phx0pOD/ptARe6RfPlMrEPswGB3Qr7fQKmiijoF8mSCkmzlrDg0WwlRpviL3OS1hLrFw/izb+wq/q6YtWlm+ezDLrzPCIKx4yTJuM8W+skJ/YIIxZ9Y0NWhHHr49qlavZeuvDXx3bt/sprWKARjq+OqHRdciwL2QTgQTseON/oR1ehaCMFPTs0mzll6FpOZ5Y2Jr1vQpYmIrg7nLbRuCivkLFtHwkaND/O6GhuPno0dYmn7mAXDNtm/fSZ26fEYPhTDYU4qM96OuoRfSqM7ynHEvzxODcGk2LfMhpOooTOShGaKbW8v9EHhDC/VX8U1mpnZtWtJn4htO1zrRy0CYBr9EXbr1UBqb+v6G9evQCBGQRppDyX3bxLOwXsPGjvcEtAGnT53kFiFa1sdYYP2GTfTJJx2jzISq6aNNnktol/gN2E0WmO3iWoweNdzKhuA6s3D278l/onSKr7eja1np+ViHaSI0APV3A44zctTnLj7W9HqmICwkzyO9PTjD37RhjYvQRe7HN4H0OYg8T+ci60SmpRSE4XrjD0ku9X5K/ljiT9fu1sthHd9nO7dvsRUUyrKYjKtdt4Hte1iWwRLfJPDpWbhQIT3bZR3XoG//QWLMO8Ml39PGs3xHO/WLBWFOZJ5xvjmrHB7d8fYxHxbHRGS2VSuW2TZ1/foNyif81ESGFBphgdl/vCxgEhVRM9Hm8cNrW7+WeGBjtkc3a/PkX0f2CYJRfNxhJhOcmrds47NphWwj0Je6LwpcBxmRLtC5ROXzh8lrU+H/LU/u3Jb5GARcf/zxO60WmjN9+g+0FX7gQ6VO7ZqUM0d2uikEWKvFAObe/Qc+YUDErOLCT9AbMd+whA/Xb9wQZq2HPX5Iy4bhX6hChXKW4PPI0SBHu3KfvoTz4A8/rEy5c+ckPOvnzJkX6QY5MLGAqQc06mbNnqd3320dTpjbt2srJjs2+jQzDE2ISpXKW5o0mJWF9oWdiZd+IJg+5cuXl/L+v72zgMsi+/r4WXV117XXxgQVC5RQsVvEQhG7u2PtXLtjTewWuxBb10IULOxERbDXXtdd/a/7vvdcvJeZYZ4CVOA59/PRuT0z33mUhzPn/E4JV67BhGGcJ08GqTzolPPNqePzcnV1YZ5l2ZiA9CXY6b9b9cICn1MN9+pQuFBBHo68dPlK3W0tYYUb4C8xDerXY790/8A9i9DAodWT0Z4IDagtmjWF1yxE78DBQzyUVTvHWFuZce3MmXPgUScyjMfYmrga+xaGMLx2pbB1bF4c4M93rwb1mQh0AciVKycP+cIXXPiiA73DZs6aA+dDLsYJLvQKcHZy4uGv+exs4V7YfcAQ6PPMy0kZNmfsZPHx84i6RZi1OGnSZNxwHRcvRDEpQO1aHoA/I44dPxHNAI8vFdHwjJ5ZqKW4Zds2k//P4HyHokW4tw2GbaPX6uYtW836/x+fCa7H0LrQ0Lvg5+8fzcPV0HPDMMgGDTzZL+yZ4D/23eU+e+7oHWzs54ihvagfoAt7cYLelH47d5nl1IAvR4qwSI6fmOfvseMBcOnyVaMY8bPVokVTtqYQXLhwkXny+qkkF/QW16helf27Lsk0C08afKGmt85YH54f9T/x/wo0kOO1T2XhuBhqL4qhl3Ji3JqO6GXfq0c3ZhDLyv/fQI/8p4wbenSh9IC5L9OQGWYJHzlyKBTIn59/1vB3DpQtOXjoMEyfMdMsT20l+2/5M1p5Hco6GcKUNOJRXZlKWFwWvjV5ztyR8QfXR1bHYsvepGrf7qCXyDP2xR5dkNFjITULScBwCGXoC66N63hq3FNb8MswZjzLzH7wNW3aWOWauZaJP/dlb7biQ8EvGe3btuaea2nSpAEU8FW+bUCjDWZHwy/oGKeNBd/U/fhjSmYxL83d+rX3IbROtP0Jta0MRUAhzzKl3VRv/PGtYHPmKWGsKL2ZcJ4yZbOhdfiWY9HCeZA9uw1MmTo9mkeJoXWJtR8NIGF3bsg36iIDUGK9X7ovIkAEiIApAvj/ImZGFd+HDGVQM7VPTMe/lSFMeBbgdaPXXY7c+XS9eWJ6X7SOCBABIvA1CaAhZ0C/vsxg8wGGDPs1WiZM5Ut5vK7Xr19DPnu11uzXvF46l3kEvvXPaENXSYYwQ2S+cT+G3aBILBZ0sUZdEL23JlqtHnyDlzNPAd2rV2Y1QyNZlux5dOd9qc4gFlqCgsaieDduZtabdTH/ax6V2VjwvHppgpXXg/oJa1goK75lU5YvlaFOeY6vUce3Mej2LwpmQhv163DR5MdWbTqoNCVUg58bymw02LV//0Fo0bq93lTZp3RBR9d923yF5Zi1Vvr27gEjhg/ht6/N6mOtTOi+iQARsF4CysQS5oSMxzWpEcMGQd8+vUx+V4jr8+IvF3dvX5dhpXpahHF9TtqPCBABIvAlCGh1D/WyNYrMxuL8pvSuxDw6flsC3/pntKG7J0OYITLfsF+ZCtWUaKLWYKMVVdbexqPPqdpR66FQUSft8BdtK7NuYWyxNtvYFz25BZujXgnq7yhLp87dDWbrEPMwKwdm+xEx3dgffPoM4JvphF6U6W7xXgoUdITTQVEaRdev32Ai0NVN3qYyew/q3qDQtjJzkXYDLVPUvyjs4KydZpVtpYeeOdkjrRIS3TQRIAJWQUCZiWr4iNGwaMmyr37fKGlx4eLlr35epXC2pdkjv/rF0gmJABEgAgYIKDNc4hTtd/6mjb1h3tzf5GpzokrkZKp8UwLx4We0HgAyhOlR+cZ9K5YtBkwpjrG45SpUNRj7jWnjA1hmB2UZN34SzJ4bmT5Z2S/qIjuTsaxXYm5cHkswjZK9u3fILWMrJCo3+gIVbepYfA4YbmBOXLXS2IeXllg8mJRZwER2NdT5aNigAVy9do39uW7Wk0DDVo9unZn+0b/gs3CRSS2Lxt4NwWd+VNYv1AZo2Ki5WedK7JPi69uVxM6d7o8IEIH4RUApwIti4nb5C5v82RK/7iD2V6NMGhFbkerYXw3tQASIABGwnIDy/zFcjck5+g2IjH7AkMjNG9fJZA0YOlmpqjuTWLlj+YloxVclEJ9/RpMh7Kt+FMw7mfD0QPFizwaNDS4aNXI49OrZVTVe1NHVqIeNyLTztfW5prFMMygiKoqxDF1izrc6arOrPGVpq4s4upi8HAxRePY4XDUPv5TntTOdjUm1KJ41UOD00oUoUez74eHgUqLsV7nKDetWQ7WqleW5MNOpITFnOcmKKufOBELuXLn4Hc/zWQijx0yworunWyUCRMDaCaAO6ZVL57iUBHqaV65a0+wXM4mJXR2WwGLl8sX8llAiA7+zoHg6FSJABIhAQiGg/P0LMy3XcK/NomySwpjRI1gyD08ZcYPOFFWre6gSvySUe7S264zvP6PJEBbPPpGYoeHggd38qkyJvR4/ckCV8toco4vwWOrzywDwXaefzfFLIDkdFAC2efPIrZu1aMOzTsiOeFRR6rPhZZnSBxOX7sIyIe7f6y+a/PgtQlBVFxAHjfbMgIkps0XZu28/tGrTUTS/6PHmtQs8G5I4CYZkvnz1SjSt/og/YELOBfHMdOi5WK++t8m0yFYPjQAQASKQaAgcObQXHByK8vvp3qMvbGLZ76y1KIXzr1y9BpWquFsrCrpvIkAEEiABzBy8b89OnozM0OXj7yBt2nWyOq9fQzzie398/xlNhrB49gla6DMHvBs2AHMMKFp9sFNBwVDX09vgHeEvzXdDI0PYnFzdzE55bHBDCwaePb4vszDiL+xZsueOl/+JZcuaBS5fPKu6M3P0wXCBeHbKxfHZ8015ncbqSxfNh/r168kpX0t/BVM3PwgPleelzDAShaqSJ3cuOMUSUWBWWBTOL4qeAH++U82hBhEgAkQgsREQAvV4X6tWr4X+A4cmtlu0+H4WLZgLDb3q83WzZs+F8ROnWrwHLSACRIAIfCsCtnnywG+/TYWC9gUgffr07HfF/+DNmzdw8mQwTGaZ42/euv2tLo3OayGBhPAzmgxhFj7ULz1dZFacMXM2TJoy3eDpihQuBMeYR5iyjBozHub7LFJ2qer589vBqRNHWWpt8zJGJk+WDCpXqQTly5UBe3t7uHTpEqxbvwkwi4clpWwZN/DbvlkuefjwIRRzdpNtUWnWtBHU8nBnv9Anhyns3kMuXhJDJo8ocI+hAaVLu0FqZvA7d+48rN+wGa7fuGlyrXJCn17dYeSIqC/TluiDaWPbcV/H4iXg0eMnylMAZkXBL6ooArli5RpVamA0/nRnGlpubqX4f/4XLlyE39iXWXP0yfAkGTNmgPZt27D1Jfk5/37/N6zfuBl27d6rugZjjSyZM0KOHDmY4TIpi8VPwgx8c1nbRi7p138Q3LodylO142fpLvs8GDO8oIAwivlmZSGWOBc/o3o/yPDac+XMyc6ZjJ+rfLnSMGzoYHleFOQfOHiYTA0fGhoKr16/kePWXMF/Y9u3buTG5vPnQ6CGR5Th0pq50L0TASKQOAmUZj/jdu7YwkNlQkIuQPWadRPnjcbgrkR4EX5/qVOvoeo7Rgy2oyVEgAgQASJABCwikFB+RpMhzKLH+uUnoyEkXbp0RnW+8CrGsnjp7t26qC6oYJFi8Pz5S1WftpE1SxbmNfKXUcMFrunQvg2M/nU4/Pjjj9otYOq0mbyvXdvWXAzeo5an0XC1mdMnQ+tWLeQ+m7dsg249+si2W6kSsGbVMm75l52sMn3GLGb9n6HsilavVLEczJszC7IyTy69gmnUnV3c4OO//+oNR+vb7b8NMGunKObqg/Xt3QNGDI8UdBRrV65aCwMGRRnVsH/1yiXM2FdTTOFHzPLkUrIsS5BQC2ZOnyKFIMWkd+/+AkenEkb1PlDgv03rlpAlS2axTHVEgfsePfuazHyJi4RGnWoDI439+w9Ci9btdWco3waICfjlfOiwX6NpfYXduSFTwIu5xo7+/nugXUf1vwFj8xP7GH5u582dCUFBp6FXn/6J/Xbp/ogAEbBiAu41qsHkiePg8pUr0LptJysmoX/ry5csAAfHotC2XWer1EzTp0K9RIAIEAEi8DUIJJSf0WQI+xqfhi9wjhMsW2RBljVSFHP0wcRcY0fM6nf09/2QP38+Oe0aywiIKWrLlCkNmTJllP2iMmLkGFi4eKloRjtq9cFatGoH+w9EZrvs2L4tTJo4lr/VxQwgr169lkatx8yTyoF5VOkV9ABbuthHaoPgHPROunnzFoTdvw/OTk5yn+MBJ8DLu5neNtH6tMYYc4wtnvVqw5JFPjL0Eze9fPkKVK7modrfq0E9WLxwPu/DrJ1OTsXkmv/97388tA0HkUPgySAoV7a0jJM3FGKZPl1a/la8UKGC8lwYQniJnR+NeJUqVlA9szFjJ8Dc+QvlXL2KMoxVb1zbZyhTqTKl+72wMEj5Y0ppqNPzSvzjSbgUwtSeQ689ctRYWLBwid4Q9REBIkAEiAARIAJEgAgQASJABIgAEdAlQIYwXSzxv/PJw3uQjIUuihIYeBI8vZqIZoyOqX5KybSGjkE2FsKGBT13evftz0MMsY1hchfOBctx7MPSpVtP2LrNL7Kh87fSsIJ7ZrXJw8Pb+vXtKUPfduzYCVu3+3HPMLEFzs2UNTIjnujDI4opHty/W+U5hV5qU6f/ppwGV1kmKeEhhZpknz79pxrXNvT0wdp16MzF8rVzsY2pfPv07gkVK5RXDW/f4Qddu/eOdr6LIcFgkz07oGGxQuUaEHD0ICgNWLgJhv951PaERQvmgbt7dbmvnvAtJlbYxTzYUjAvQlG0HDCTJT5TNBxiwVj7fPZFjXqXZWAx+WnSpOZ8q1WtAhPGj8alvFxk4aqdu/YUTfj33//B/fAHsi0qGOZ4/coFbtj6/fBRaNKsFcz+bRoLC20qpkD5itVUoas5bLLze0nCPmdpUqdWJR5A4567JtzP0hBdcWLMYFqpkvqZibG4Ov733/9B4ybNddnE1TloHyJABIgAESACRIAIEAEiQASIABGwnAAZwixn9s1XKDNLiosx5ZUl5hk77tvtB66uznKKn58/dOjcXbaxguFXGD6oLLb5ChkMtcQYYX+/qCxOmA63mFMpGDl8MDciobFrENN9WsHCCA/s3QnOzk5ya72wxOzMSHcm+ITK+NO5aw/Ytn2nXCcqvquXS2OSOYYwrT4Y7oNJC9B7Ca/zu+++43+SJUvKs/QpDZE4F73yWrdpDwEnTmFTVRyKFoYjzNMOS5VqNZnH1lW4fOGMyqj44sULFsrgysM4tYbOrdt2MINjL7knGi2vXDovQwnx+tqzMEHMcKktVatUgo3r18hu7V5yQKcyacJY6NSxnRyZ57MQRo+ZINuGKgvmz4ZG3l48dLYgy/SIoalCt0SsKVu+iq5WGI439m4IPvNnialw+MgxaNy0pWzHpnLxfBDY2ERpnsVmL2Nr9UJjjc2nMSJABIgAESACRIAIEAEiQASIABH48gTIEPblGcf5GbTGCTyBfSFHePHyVYzP1bVzRxg/bpRcj+F5dvmLwD/sqCxogAm7e1N2mcrkN2PaJK5dJRag59frN2+hbZuW3LjUnelWoWYYFq2HlF444BWW0VGpBxYUfJqLwYr9xRGTCezb48c1zswNG92zazuULOEqtjDriAaou/fCAI2G05lHmiEtMp95s6Bxo4bcWJbXrhDfW+kphx0VmZfYVeYthkU7JoxnfJD9pUxHi33ItWOXHmJYddQ+s/CICHB2LaOaY6ihNV6hMQqNUsYKeg4+uB/KQz2FhxqG3EaE3ZahoHqhkco9161ZATWYBowoA5nWGhpL46KgeL9HTfcYbYXPG73qRBFtPEYWHP8/bjxdsnRFtH8/Yh0diQARIAJEgAgQASJABIgAESACRODbECBD2LfhHquzisySYpO3f/4JtvkKi6bFRwyfQyOFMsTOkIcZevmgt48oAScCoUHDqHA30S+OwaeOy7A87Pv777+5cQoNB23adYI9eyO9pHAMRfMxQ2GGDOmZAO5VaMKMLu/+eo9DvGg9m3APzMr4mAnii4KZLtsyEX806iVJkoR3m6slFX7vJqRMmVJsBei9tnlzlDcbGjj+ZZ5NaMRB8fkHDx7Czl27o4VAyg0UleCTLDzRzhaE5pjWUw41tEqUigrXQ/H9nj26cg+0Nb7rVV5Y/fr2YiGlg+TuqC+Wx66g0cySz59GyPnv37+HXHntZdtY5faNS6okBja57IyeB/eyL5AfAgMOc0OnXf7C3FtQqReGc0zptl2/EqLSNrPFfd7+iUupEAEiQASIABEgAkSACBABIkAEiAARiDEBMoTFGN23W/j0UZhKH+tEYCDU9zJsjDJ1pb2YwWUUyxApChqYbHLY6no3rVi2mGU3jBKBHzZ8FCxeulwsjXbUXquY0KFTV/DbuVs0zTpqEwSgQQo9wn5I8QPLtJkWfv45Aw9ZxBBGURYvWQbDRowWTYNHDLm8xEIVlWUKy1g5jWWujIuC4az29gXgyNGj8PTZc5jCsl116NBWbm3udeKCa5fPQ+bMmeTaAyzxQHOWgMBQcXEurtLbMuWNJfZBA+nTR/e5MQ77MHslGtzMKWgwxVBP4T12/uxJyJUzp1xa17MhnGLZDfVKSpapNDzslhwy5XUoJ1KFCBABIkAEiAARIAJEgAgQASJABIiACQJkCDMBKL4Na40aeH3DmaFnETP4xLRoNZOeMA+rosX0QwS1oYkFmP7Ty1f6IZno4bVrp1pPTHmNL1++hEmTp5kd8mZuVkH0kDoVFAwTJk6Bc+cvKE9psK71ssKJTq5uEBHx0OCa2AycOnFElZmzclV35gV3zeSWeXLngrOnA1Xz3D3qGr1PoccmFpkbKurMsloe2LdLLAM9wX45aKSiNTK+efMG7AoUNbhCqw929Nhx8G7cwuD8xD6g9OZL7PdK90cEiAARIAJEgAgQASJABIiA9RHImCXKaeJr3D0Zwr4G5Tg8x9TJE6B9u9aqHWOrD6bVo9q5cxe079RNdQ5sYNjhwwd3pYeQKYPG9KmTuBaY2AhDOL9ne/zIPH6UxZDOl3LOzyxc8ub1S8ou8GUhg2/evoU3THPsFTPGYYhkcPAZg4Y51WJNQ6uFhSGcOfMU0MyKu6ZSDB8Nd9mYB545ZdbMqdCyRTM5FbXcbHLlk229ivbetGGYemuwb2D/vjB4UH85jLz79IsKyZQDJirabJGr1/hCvwFGkuOlAAAuaklEQVRDDK5SJjnASYOHjoBly1cZnE8DRIAIEAEiQASIABEgAkSACBABIkAEzCVAhjBzScWTeVrNrdjqgzk6FIHDh/ap7s5Q2KJnvdqwbMlCOdeUzpP2Wps0awW/Hz4KHdq3ART8FxpeuKEpMfTy5UrD9q2b5LlRsDxzttyyHdtKBAvFUxrozp49DzVre8Z2W9312qyf16/fgPKVquvO1XYePrgHHB0dZPfly1egcrWoUFU5oKgojW7YbW4Y5pZNvlCpYgW5UyeWQXQ7Swpgabl35zqkTpVKLnNg3oZKXTc58Lmi1QfLb18UXr1+o50W4zYaVfPnN248jPHmnxey6GIIPq0OtY3tnrSeCBABIkAEiAARIAJEgAgQASJABGJPgAxhsWf4VXfQam7FVh/Mo2YNWLMqKqzSmD7Y8iULoF69OvJ+hT5Y7lw5oFPH9rB33wEIPBkkx5XXioarrDZ5eEY9nKDNUqk0qv2QIgV07dIRIh48gK3b/Ph+2us05Y0mL8KMil644cRJU2DmrHlmrLZ8ysQJY6Az4yXKPJ+FKjF80a93PB0UALZ588gh1GfD52Co1KntASuXL5bD+HztChQxS3heGwYbE8H6ShXLwZZN6+X5ld5orVs2g7x5bWHK1OkyuyI++wfhoXK+3nPG0El7+3zgs2BxjDKlavXK5MniuOKzYBH8Onp8HO9K2xEBIkAEiAARIAJEgAgQASJABIhAbAiQISw29L7yWm2mQTy9oeyO5l6a1jvJmD7Y1UvnIEuWzHJrEZLpt20jlC1bBpRGOe2+EREPmOZW6ai1nzMLio7z50Oghkc93hRC8so1WbNkgSuXzorpcPdeGJR0Ky/bhipJkyaBbFmzwoOHjwxNgaGDB0D/fn1U46a8llSTLWycZBkVC7D7F6Vi5Rpw9dp10TR61GqL9R8wGFatWWdwTcjZU5AzZw45bkpYX05kFaUhM6ahon7bN0HZMlHPXWTwzJY1C1y+GPk8lfpoWn0wbVbSHDbZIeRcEA/P9W7cDI4eO6G8ZLPq69asgEqVojzdzFoUg0k9e/8C27bvjMFKWkIEiAARIAJEgAgQASJABIgAESACX4oAGcK+FNkvsO/M6ZOhdSu1aLgwRsX0dClSJIeH4XfkcqXHjuxklQrly8C2LRtllzKDoAi9U4r2jx/7K/Pq6iTnb9i4GXr27ifb7jWqgS8zSIjix0LuOrDQOyzCE8nffw+069hFTAGlltmDBw+huIubHNOrpPopJQQyUXqb7NnBs0Ejlbeacv6R3/eBQ9Eiskt5b7IzDiuCF27577//Mk+5vGbvrv0MjBk7AebOjwpXVW6kTQCAIvkFCxeDDx8+Kqfp1m3z5IHTwQFy7PbtUChdrrJsm1NBI+TjB/dkCCx6BebIacezkS5b7AOennW5tlt+lnBBFG1WUmE4E+N7d+2AEiVc4OnTZ1DE0UV005EIEAEiQASIABEgAkSACBABIkAEiIBZBMgQZham+DFJm93R3Ox/pq4+/N5NSJkyJZ+m5/ljz7yXjh7eD99//73cSmhTCd0wNHLkzJNfGllwftEiheV8oQ8mOhp5e8GC+bNFE8ZPmAyz5swHPFcg85jC4lqyLITdD5dzlN5Qnz59gtx57WVInZz0uYKeQwf374ZMmTLyHi/vJnA84KR2Gm8rDVPYgdpOtet66c6NbWehgvYQcOyQ3ObGjZtQrmI12TZVUfLBufv3H4QWraPCLMV6DPdEjbakSZPyLgyJrO/V2KAxUKwTxy6dOsCE8aNFE9Zv2AS9+kQJ58sBIxWtMU0kRUDj6/27NyFZsmSg1R3bunkdVKwQ5elX1NEVnjx9ys/S/5feMHTIQF7Xfp6MXAYNEQEiQASIABEgAkTAbAIN2Iu6ihXLs8Q+g6Wkh9mLaSIRIAJEgAgkCAJkCIuHj8nONi+4ODtD0mRJADWTMmbMyLxgXKFK5Yqqq8Vsg4uWLIPHj57Au7/ewT///AN379yDkIvq7IqqRToNrWaVR+36cObsOT6zloc7LF+6kBstlEuFIUx4b4WEXIDqNevKKQ+ZzlMKdu1YtPpg2KfV5RKGsDPMCykv80bS80xDI9CJ47/LrJUHD/4OzVq2xe1kyZA+PQwfNghatWzOPZHQADR23ETpNYVeStWqVuEGsvTp0oEHu7+SjK2yoPfT2nUb4OXLl/DixUs4wM4TV0UbhmmJPpi4BqUHG94fGoUOHzkmhmHi+NHQsUM76YmFXmdNm7eyKIxwLdONq8n040Tp3LWHxWF+2kyfs2bPhVmz57FneBhy5LDRfcbCU0yc16VEabgf/gDat20FU1jG1O+++04Vgivm0ZEIEAEiQASIABEgArElkJJlNr/PXhDj9w3l9+HY7kvriQARIAJEIH4RIENY/Hoe/GouMA0kNBTEpMQkrA9/6KP3ULZsWfkp0dvqwoVLkDVbFh5WiJ3offbXu78gK9N2woIGmD/+eA6ZM2fi9VJuFeBuWBgf0xpAwiMiwNm1DB9T/qXMDvjx40f4wP5gdkE0nKFu1nXmLaUtmG2yU8d2shuNVZh18YcffoTs2bPJe8AJaNBq0bKdvC7sw4yVUyaZL2CO95kpay5cGifF328LlHYrJfcqW74K3Lx1W7bNqaRJnYrppZ2TXny4JjT0Drx89QoKFSqoytCIz8iDZb9UetaZcw7tZ9A2XyF4++c7c5aq5igzRr5+/ZoZd5PJ66tRsw6cD7momo+efOfOnJSebC9evODjP//8Mz8KA6xqETWIABEgAkQgXhFIkuQ7KObgAGXKlgYXp+JQkHlDp0mTBj799wnu3bsHq1b5gp//rmjeNugVnMPGBkqVUb/4i1c3RxeTqAkMGvALDBrYj38XzZYjL3z69F+ivl+6OSJABIiAtRIgQ1g8fPJK4wEaYowVfGOlLHfu3I3RF0j0lPLbvhncSpVUbseNXCdPnoJmLdryL7CnmcHMhn1JFQWvD725Zs/1EV2QJXNGZqg5Lz23uvXoA5u3bJPjouLoUAT8dmyRhhHsRyNYtx69ZbZIMVd5xEyIixfOg+TJkyu7eR2v5/nzF4DaWRs2bYk2PrB/Xxg8KDLEzxBbJVNjyQOibW5Gx6YNa6Vnnzk6Z4a2TJ8uLSxjnnoVypfTnfLs2R8wgWW+9F0XpeumO9FApzJc9BUzsCl1vAws0e2uXq0KrF29XBq2cBIaWtt16AJ79u7XXdOmVXOYOmWiag1ORKH/lm3aR/vFSXcT6iQCRIAIEIGvTgAToYwdMxLq1K6lklPQuxDMCtyoSQv5QmTfbj9wdXWGmLzQ09uf+ohATAhcvnCGv1Q9c+YceNSpb9EWJVxduDc+SmzEpuA+mJwqMPAkvHr9JjZb8QgMZ+fiPNIjIuJhrPaixUSACBCBxESADGGJ6WnGwb2gwHwtDw9wcirGhcyXLlvJPY2UW2OIIn5ZzcRCNnfv3cc8r6LE9sW8KiwrX21msEIDWFCw4S8EyZmHUP36nnw/NOKtWLGKi6mLfYwdixQuBJUrVYSMmX7m4aHHA07oepEZ2+Nrj6EBqx0L80uaNBksXbYi1l9wMJtmmTKlwNXFmRkek7BfKC7wL06PHj+J8a3lzpWDeWWdkuv1QlDloBkV9BBs3qwJ5LOzhSD25XD37r1meZd5sNBMTKoQGnqXeQ74A32BMwM2TSECRIAIfAMCKOOwmoXUayUc8FLwBdejR495kpM0aVJzj/cfmSc6FnwhhS9GenTrwhOhYJ8yizS2qRCBr0VAKdvRrkNn8N+116xTo6f+4kU+THqjMv+8Z86W26x1yklD2EvaJo292cvm7FLaAscxYmL3nr3Qo0dfs78f163jAYMG9AM79r1L+dIYX0ReY1nKW7RqB7H5nqi8bqoTASJABBIqATKEJdQnR9dNBOKQAL7Ff/rsGfe26tG9C4wZNULurhW0lwNUIQJEgAgQAasngC8t0EtbGLcEEAzZnzp9JuxgWaH/+0/t3d65Y3uekEXpgS3WTZ8xCyZPnSGaCfo4b85M9rLKDfbs2Qcjfh2boO8lri4eowYWsc9L9uw2MGXqdKMRAHF1TnP3wSROmMwJjU/ZWZZrYwVlRUqWdIE+vXtC2TKlpfEKDb+WGsJ8mee8u3t1eboPHz5w3d+0adPKvvfv30PL1u0MJn4SE/HfFmr/ioLGr7dv3wLulSRJEt6N1zhx0lSepErMoyMRIAJEwNoIkCHM2p443S8RUBBAz73Zs2bwMAAU1a/r6Q0DmT6GeKtvzpdBxXZUJQJEgAgQASsiMIxl8u3HMvoqCybyGfHrGFi2fJWyO1q9fLnSsH3rpmj9pUpXgDt370XrT2gdWk1T+0KO8OLlq4R2G3F+vcoM4G///BNs80VlGI/zk1m4YdidG5Aq1U9ciqE585rSFpQRuXntIpuTKloSKTHXUkOYCAnG9bh2wMAhsHrter4dZt/evWu7zICOBjL8HL376704neqo/feozPiNXptbmAafUgKlrmdDOBV0WrUHNYgAESAC1kKADGHW8qTpPomADgGtKP6OHTuhfPmyIMTp97DQ19ZtO+mspC4iQASIABGwZgLTp06Ctm1aqhAEBZ+GVq3bmx32H3D0IE/yIjbBX/RtcuUTzQR9vMqS2qDOkyjZbfKaHdom1iS2Y4oUyeHB/VCpIYt6poUdnOPFbVaqWA62bIo0QOkl88GLREPY00f3VdeLLxGTMZkPUSwxhLVs0RRmzZwmlsLIUWNhwcIlso2VjBkzwLXLIdKbK5Dp9no2aKyagw2UobjBjHTCyxL1xTy9mkSbp/xcoiGyYEFHq/9cRoNEHUSACFgFATKEWcVjppskAtEJZEifHm7duKQa2LJ1O3g3bMD78MtcYQcnlnzgpWoONYgAESACRMC6CUwcPxo6d+qggnAiMBDqezVV9ZlqoFfypo2+ctqlS5ehSvVasp1QKxg2Fx52S14+Zk3OZ+8g29ZaaezdEHzmz5K3f+x4ADRs1Fy2v2Vlx7YNUK5sWTD1rDDsMFPGnyE4+Czs238AHjx8BM+fRshLt8QQhhnb7Wzz8rWYBb1AoWJyH2XFZ94saNyooezyqF2fi9/LDlZRGqZRe6+YU0ldHTDUXvVds0IuXbx0OQwbPkq2qUIEiAARsBYCZAizlidN90kENARQ3PVu6HXZi2GQL1nYRlamF4Zl+YrVMGjIcDlOFSJABIgAESAC2l+kkcgffzyHYsVLWOxZgglzHj2MCoNMLPpgWk8fTObj5d3M6j88G9at5oLyAsSQoSNh6fKVovnNjujp9SjiLs9WvXqNL/QbMMSia4mJISxnThsIORskz7Ni5RoYOHiYbCsr2bNlhUssm6UomzZvhe49+4omPyozzmNoMYYYGyoRzEgrNP1ik8Hc0P7UTwSIABFICATIEJYQnhJdIxH4QgTOBAdAXqZBoS1nz56HmrU9td3UJgJEgAgQASsmgELnF86fhu+//15SQDFu/KU77H647LOk8oQZwkRoWclS5eFuWJgly+Pl3PVrV0L16lXltcUXg4+8oG9UuXntgpRewEsowMLyXr769rpp7Vk276lTJnIqjsyga2lGxZgYwhYtmAsNverLJ9G330BY67tBtrWVP56Ey7DHJ0+eQtFirnIKJqxYw7K2inLo9yPQtHlr0Yx2VMpioPdYjtz54MOHj9HmUQcRIAJEIDETIENYYn66dG9EwASB9OnSwpBBA6BOnVpcjPUV+0KK+hSz5sw3sZKGiQARIAJEwNoIrGMhVTVYaJWy9OrTD9Zv2Kzssqj+KOIOJE+enP0innj0wa5dPg+ZM2eSHPLbFzVbN00uSmQVFGt/EB4q78pUCKKc+BUqQsA/pt5RMTGEhd68DOnSpZN35924GRw9dkK2tRXx70T02+YrBG//fMebWzb5QqWKUR5gvus2QJ9fBoqp0Y5HDu0FB4eisr/PLwPAd91G2aYKESACRMAaCJAhzBqeMt0jESACRIAIEAEiQARiQQBFu69fuSC9UnCruMj6J37BP38+BGp41LPoCqtWqQQtmzeDdOnTAnqm3bhxE+bO84Gnz54b3KdNq+bQiOktPWTaTvv2HYDtfv6qual+SsmNfTWqVwMbm+xwn3m6HT8eCJu2bFXNEw008BQuXJBzSZIkKRc137Vzq+T0999/Q+OmLeHffz/xJU+ePoGIiIdiOT+2aN6EeweheDyGyAWfjgqDw/27d+sMbm6leFbBCxcuwm+z55rtwZMndy5wr1EdSpV0ZdeUBPx374Zd/nssDmNVXjBeU726daBuXQ/u4fWIsTzDPMn37Nsn7w0/L7ly5mThhpFC8pgldNjQwXKb69dv8FDAT5/+432hoaFmGQtdnItDxQrloYSrC6RJmwbu3LnLX+BdZ88+JgVfCN66cZk/rylTZ8C0GVEaZubuFxND2LPH96UAPp6nclV3uHzlmsFTKkMfcVLb9p1h1+69fL7Wu99nwSL4dfR4g3v5+22B0uzzJAomSurYpYdo0pEIEAEiYBUEyBBmFY+ZbpIIEAEiQASIABEgAjEnsHrlEqjlUVO1wdx5C2HMuAmqPksbIjRy9JgJMM9nocnltiyc32f+bChe3FGGVGoXoVGtbn1vlbEIjTd7dm0HR0e1aD0anWrX9eJbzJ45FVq00NfyevHiBVSq4g6PWViasqDRy61USWWX0bo2rE2PK3pnu5QsC3WZt/bM6VO4dpVy03fv/gJHpxLw9u2fym5VPRvT+1y6ZAEzgJVQ9WMDNd2aNGsJc2bPBJvs2WDxkuVmGYCyZskCy5bq74n7Ypjd6LETYL7PIgi7cwNSpfoJu80q/sw4165jF4Nz8X52MgOOnpwDLnr46BE4u5ZmBtFIw5rBjTQDo0YOh149u/Jrz53XHt4zw6WlxVJDmF6youLOpbjwvqFz37p+ETJkyCCHUeAehe6xaI1kpgx6G9evATQiixJwIhAaNLQs0YVYS0ciQASIQEIlQIawhPrk6LqJABEgAkSACBABIvAVCOAv7jeYvlOSJEnk2TA7Xh7bgjEyHMhNWCVJku9487///k/ZrVtHb65pUyfJ68BruBd2H9DwhYleypUtIz2x0NhTolRZePfXe77XssU+4OlZl3tVhYRcBBcXJ3mO7Tv8mIeRK+TIYcP70NMNvcVKlHBRGV7CIyKYsaWMXIeVy0zEPBsTMze3BAaeBE+vJny6V4N6sHhhpBTBuXMh4ORUTN7b//73P6nFhmGjgSeD2P2V5mGkuFhPMF1cQ0MvT1gwf47cC73SAgICIXWa1Nxo9913kczFfHM8+0aPGg7du3aWewr2N2/ehJw5cqhC7dw96sK+PTvlsxDnMXYcOWos9+zSm4NeYHt27ZAGwadPnwFmnEQvQDe3kvIZ7d23H1q16ai3hcG+q5fOQZYsmeHy5StQuZqHwXnGBiw1hDkULQxHft+v2rIIy9JtzJPx+pUQLmEhFs1iXoHjJ07lzccP7srPCnaMnzDZqMSFNsQ5NvcuroeORIAIEIGERoAMYQntidH1EgEiQASIABEgAkTgKxIYOXww9OndU3XGE4GBUN/r63mRaD2nMIywanUPlYdWlUoVYNNGX3mdW7Zuh67dewMa8m4yjxo0AI0YOQYWLl4KwhNNTmYVNDiNHTcJFi2JEh4/dyYQcufKJaflsbWXxjXs/DlDeq71lIRlHkzGwgD37vZTeUJhyNv791FeRo8fP5HGw4shwcwjKztcu3YdKlSuAQFHD0KhQgXlubCCIYQeLHnNogXzwN29uhy7cvUa91CTHZ8rHdu3hcmTxsnueyz5QFVm4BF6Uk0be8O8ub/Jcawgy8IOzqo+ZWPenJnQtEkj2YVebfU8vWViA9/Vy1XXtnLVWkBDTQrmhYdc0qRODfv3RoWgoj6YuyYMFjMdGipKI9C69Ruhd98BcurY0SNY6GikJxka5zJnyy3HTFXsC+SHwIDDfFr3Hn0Nhr+a2sdSQ1jZMm7gt12tq2cqcYBWd06pA6YNszTlXblm1VLwqOkub0vPwCsHqUIEiAARSKQEyBCWSB8s3RYRIAJEgAgQASJABOKCwNbN67guk3KvceMnwey5PsquL1YfMqg/DOjfV+6PulAVKldXhT6KQWVGPDSMoKh47149oN8vveHPd+8gr10hPvXpozDpYYQdOBcNa1qdJq0RCPW+Dh85Jk6nOqb88UcID7sl+zDEMT/LjKhXlF5BVarVhEuXr0bzLsNwTAdHV67npTXcbd22A7p066Xa2qmYIxzYv0t6YuE9FWaeRs+fv1TNCz51HOxs88o+vB+8L70yY9okaNM6akwrKI+aavdYGKTSy2wxMyQOGzFabtfYuyELZ43S3jJ2Prnoc6Vzx/YwccIY3kLPtpx5CqimKI1A6EWXLYetatxYY8miedCgvidYuk67p6WGMHeWcMKXJZ5QFtv8hY2Gul65eJZ7PYo1Bw4cguat2vGmMqMkdhjzrsPxFUsXMX23WljlBT9n9oWLiyYdiQARIAJWQYAMYVbxmOkmiQARIAJEgAgQASIQMwIhZ09Bzpw5VIvLlq8CN2/dVvV9iYZbqRLg7xclPo/hcEUcnaMZd8S5t21ZDxXKlxNNaNykBUyfPpkLt4vQueLFHODQgT1yDlZ69voFNmzaourDxnKms1WvXh3Z7+XdBI4HnJRtZUXrbXXk6HFoxM6vV3zmzYLGTLRfaZxTGnVwTUXmJXaVeYth0Y4J4xkfZH8lT5YMrl0NUWUiNKThpmU0eOgIWLZ8ldhKHj1q1oA1q6K849CwVtKtPISxBAKi5GAJBS6cDxZNfnQsXgIeMc83UbSheAMHDYUVzGvMnKJci88+V94C0gCalHmbPXkYJo1wyrBTc/YOv3cTUqZMyQ2bhgyB5uyjNIShTlqmrFEehHrrPevVhmVLFqqGlFkgVQOfG1pDmNIjU3l+nC68HvX2wT6tIcyc0FhDe1E/ESACRCChEiBDWEJ9cnTdRIAIEAEiQASIABH4CgQehofyMDdxKjSIWBKCJtZZekT9MBRdR2OFKCgQjkLhhoo2TG/ipCkweNAA7v3Vqk0H2Mu0v5ThdLgP6oG1ZGN65eL5IJY9MlI7DMeLMg+tJ0/VgvlindJog33GDD7BJ4+BnZ0tCJH40kzrCg1+omBIY4lS5UUT+vbuAT17dOVGnzW+6wHD35Rl6OAB0L9fH9llzLihDbMzFJanDEnEjQ1lI9yxbQOULVOGi/DPZxkLUSxfWbT7mPJ+Uq4NCjwK+fLZyS4MLV25ag1giCQmLujXtxdLcNAUjhw5DmPHTzTqVSU3YZWqVSoBisZjqVPPC4KCozJ18k4L/lIaoswxhKFxd9fObaoz5LcvajRrptAyE4v8d+2Fdh0686bWu3HUmPHRnoFYh0dtmDFqrhVxdFFOoToRIAJEINETIENYon/EdINEgAgQASJABIgAEYgZAfQ0evRQrd+kzXwYk52LFC7EQ+72HzgIvx8+qrsFir6jNpYoaGQoUNDBqMFAazhZsXINHDz0O/zzz9/Sk0urxVWjZh04zwT0tQXv/SETIhdhf+/fv2ceSfbaabJticEHwxjt7QvAkaNHuUj6lInjoEOHtnIvbXihHDBQ0WZp3LlzF7Tv1C3a7BQpksOD+6Hynt68eQN2BYpGm6fVGkP2ee0KqvTRoi3S6dCGi6I+WD57deZOnWWyS5vhUA6wCnrT7d9/EHr06mtxtki/7ZuY8a400077k4XPFlZua3HdUkMYZsC8zEIdlcW+kCO8ePlK2aWqa42Xy1eshkFDhvM5wrNNLBjDMnfOna/2OBNjeNRqhGGocakyFZVTqE4EiAARSPQEyBCW6B8x3SARIAJEgAgQASJABGJGAA0nD8PvqBYHnz4Dtet6qfosbRw/cgAKM2PY6TNnoVadBrrL97PMg8rsjqGhd8CtbCXduaLzUcQdmVkR+/S8Y5RZ9jDcLkv2PGK56tjI24tlX5wt+4xd6w9MGP4B85wTxVKDz6kTRyB//nxiOaDIvlavTA5qKjWqV4V1a1eqejt06gp+O3er+rDRgGXOXMIyaIoScCIQGjRsKpryqGV/i4XBlmHhsJYWrT7Y0WPHwbuxfrio3t7NmjaCubNn6g3JPtRiK12uksFwWTnxcwVDKh9F3OVeglrxfe1cc9qWGsLQ0/HZ46jwUjyHNpxUe95bLNlDhgwZZDd6Os6cFWkk1hpgJ02eBjN+myPnaisb1q2GalUry+4zZ86BR536sk0VIkAEiIA1ECBDmDU8ZbpHIkAEiAARIAJEgAjEkIBWn+ry5StQmWUijGnJmiULXLkU6RGD4V0Y5qUtaKx4/OAeJEmSRA5NnTYTpk5XZzyUg6ySM6cNhJwNUnYxI09jCDhxSvYpReqx05g3zD6WAdLVNSqb4pChI2Hp8pVyL2VFa/A5djwAGjZqrpxitK4Uw7dUvH32zKksPLCZ3B+9t2yYaPzHf/+VfaKi1TwzdE93bl2BtGnTimUwhyVGGMsSJFhatKGqhvTIjO2rDTnVm6vUzNIbV/Z1aN8Gpkwaz7ucXN0gIuKhctjiuqWGMDyB9t+UKc097fPo1qMPbN4SGV55JjgA8ubJI68bM3aOnzhVtrWV7Vs3QPlyZWW3sdBgOYkqRIAIEIFERoAMYYnsgdLtEAEiQASIABEgAkQgLgncu3MdUqdKJbf844/nUKiok2xbWlnoMwe8GzYwGpZmy36xP81+wVcWU8aCieNHQ+dOHeQSNCjZ5LJjGSH/T/aNH/srdO3SSbYxdHLg4GGyLSpaQxzqouXIaadrXMI1sTH4YJjkwQNR3lvXr9+A8pWqi0sxeTxx7BAULBgVsmksdFUruq6nD6YXDmuKvaGL1HormdLCMrRPn17doVnTxpA7dy74/vvvdadlzpZL9ax1J7FO4X338NEjKOZUytA0s/tjYgjT6u4ZS8KAF6L1dKzr2RBOBZ3m13hwnz84OUVlffRlGnJ9+g0yeP1HDu0FB4eocNhVq9dC/4FDDc6nASJABIhAYiRAhrDE+FTpnogAESACRIAIEAEiEEcEtB45/zJPo6w2eWO0u7NTMdi/159rVBnzMtKKx5tzzssXzkC2bFnldel5umiNRoaE0tu1aQnTpkZ5QJ07FwLuterxvTEUsWQJFy5I/ur1G95nyuBTqmQJ8PCoAX47/CHk4iV5jViZOGEMdO7YXvbN81kYTQxfDupULoYEg0327HLEkD6YVvNMqQ+GXlKZMmaEaTN+A2cnJ9i7e4fczxwBeDlZUdGGiyrPJ6ahJ529fT4mxL9YpZFVy8MdevXoBu//fg8zWZhf4MkoTz8727wwYvhQqFtH7ZWoZ9QT5xHH9OnSwq0bl/nnz5SHoVhj6hgTQ5gIDRZ79/llAPiu2yia0Y5/PAmXum5ao+yokcOhV8+ucs3Bg79Ds5ZtZVtb0WaBbdKslUGdPu1aahMBIkAEEgsBMoQllidJ90EEiAARIAJEgAgQgS9AQBtOiKdQhmaZe0o0xFy7GgLp0qXjGQaLFS9h0MMKDWYH9u2SW6MOVP6CjrKtrbjXqAa+a1bIbjQWuJQsEy3sTRmCaEwf7Ojh/VC0SJSIeqfO3WG7nz/YF8gPgQGH+XmEyL45Bh8R2ua7bgP0+WWgvE6snGT7FWD7ilKxcg24eu26aJo8Cg8nMdFcfbDAwJPg6dUEcthkhwvng/lyzOgILLTybmjU+VGUPq9dIbG90WMe5rEVdj9S/0obLqrVI8PzhpwL4gYe78bN4OixE5HXoPEGNPTsldkPzQ0n/XXEUOjNvMtiKv6vd/MxMYR169oJxo35VW43d95CGDNugmwrKxnSp2fGuyjj6TX22ajAPiOiKEONsU87LuaJo9LD01xuYi0diQARIAKJhQAZwhLLk6T7IAJEgAgQASJABIjAFyKgzVqHxhE7ZjRRhh0aO3Wqn1LCieOHIUcOG0DvrhJu5aIZqZTrUVD8ycMwqRH27t1fkIdlLdQraGC7dfMKpEr1kxweP2EyzJozX7axojXo3bl7D0qVrqCaIxpKQX2lN9q2LeuhQvly8PHjR8jOQiWxaAXohYFJ7NWvb08YNnQwY/UfFHZwiibqrjTOKc8l1ps6btqwFqpUjsr6V6VaTbh0+Wq0ZVqD2Tim+TWbaX9NmjAWOnVspwpVFYY73OTvv/+GnHkKRNtP2YGhpJs3+nI2wqizYtlildfWyFFjYcHCJXLZ3l07oATzrHv69BkUcXSR/T7zZkHjRg1l25CxZumi+VC/fqSX3i0zxfyvXjoHWbJkZokIrrKEBDXlOWJTiYkhDLNp3r93U3p5nQoKhrqe3rqXoc2eOmLkGFi4eKlqrjLk1ZjhUmu0tURbTXVCahABIkAEEjgBMoQl8AdIl08EiAARIAJEgAgQgS9NoEqlCrCRGVy+++47eSo0+DRiGQD1RNnlJFZBz5+D+3dDpkwZeXfrth1hz979yim6daWWEXrwFCxcTBU+JxatXbUMataM8pAxJOavDSFbtmwlDB42Umwjj4WY3lYA090SJSj4NNSp1xDQM+cmy96HDHwWLIJfR0cKrivF13GNMqOfMhRUL0Oh9lw3btyEchWriVObdRSGNjFZL+RvxdJFULduLTGFH9EIiMZAYURB8XX09MPit30TlC1TmtfxL9eSZaWnl+z8XEGPpENM4yxr1iy8R+iubd28DipWKC+nF3V0hSdPn/J2/196w9AhkZ5x2tA8rfi71rCIG6Ah6dqVEGn8NJUpEddgSGXwqeNYhZ69foENm7bwemz/UhrCcK+MWXKatWVQ4FHIly/SmIqfb+cSpXWNwxfPB4GNjQ3fE+flzmvPQkb/Vp1jysRx0KFDW9k3cNBQWLFqrWyLCmZBxWyoohhKViHG6UgEiAARSKwEyBCWWJ8s3RcRIAJEgAgQASJABOKQQMf2bWHypHGqHVH3qW37TqrMjGICGitmTJ/MhfHReITeTp26dNfNEinWKI+oE7ZzxxZpfLty9RrUqFFbGt6KFC7EwyHRy0wU9HDx8m6m66l2+OAecHR0EFPBkOeUMvwRJ6OH07gJE+HY4QNQqFBB+PDhA+TKWwA+ffqP74VaVej9JMripcth2PBR4FaqBKC3VsqUKeH169fc6+nDh49iGj8OHTwA+veLND5hh6X6YLgGvbEe3A+VIvKhoXfArWwlHAL0xPNdu1Jl1OID7K+SpcpDsWIOsGSxD+9SCuLjte/aGZmVEAfvhYVB3Xre0pCFfWhY6tG9CzRt0giSJ0+OXXDo9yPQtHlrXl/G9vX0rMvr+JcLM/TcD38A7du2gimTJ/DnqueRtGHdaqhWtTJf9/jxE3BxLS2fOXZmZzpwx44cgPTMMInFXNF7kaQBP4fZc9rqfkb4hkb+whDc9Cy0N3ny73lWTTTAov6bspw+cxZ+ZxwePX7MPvOf4MLFi3D79h3lFF7HJAkH9u+Sn289L7UuLPnDhPGj5Vrx2ZIdnyspUiSH20z7DD9rWNCLr4iDM/Pye/d5BkD+/HYsDPeIPN/t26FQulwkZzmJKkSACBABKyFAhjAredB0m0SACBABIkAEiAARiC2BsaNHQLeuneUv02I/NC7gL9YvXr6AH39IyTxdbLmhQIyjQcPdoy4zDjwRXWYdRw4fDH1695Rz379/D1evXmd7p2G/2OeT14GeMkuZh9fQ4VG6S3LR54pSG0kZ2qidh+2IsFvwIzPkYXn755/8mCZ1aq4t1aVbT9i2fSfvE38JrypsYyhfeMQDbijCNoaquZUuD0+fPcemqvj7bYHSbqVkn9IYJTvNqKDYPhpMhMceGoeesZBDzA6YLFkyvgMK/js7F5dz8L5+YoaTpEmTMn2u4+DNvPuUZca0SdCmdUvZhZpqxwMCWbjqd+DI9hWGKJyA99ideZPt3XdAzkdPwHNnTvL9sfPFixd87Oeff+ZHQ557tnnyQOCJw9Kwh+dFT7JXr15z78K0adPKe8AMptXda8ODh4/4nsb+Crtzg3uQHTl6HBo1Ud+rsXXKMeXnQtlvrG4sy6o2UUJ4RARPDoCf8/rMiFjLIyp88354ODMmljV4qurVqsC6tSslGzSGTZ8xi3v9uTg7Q/duneSzwM9oceeSup9JgyegASJABIhAIiJAhrBE9DDpVogAESACRIAIEAEi8KUJoGfJssULoDDzyDJV0Aiweo0vTJk2I0YeOLg/aiT9NmOq9HZRnhMNYJglr//AIfD4SWTYnXJcWb/NBMeF8WbT5q3QvWdf5bCq7sE8fVYsWySNSDiIxgMv76ZwKui0ai420Dvq94N7ZaiemIDeWbjGkAFQqe/14MFDKO7iJpZafERDyKoVS6R3ltgAjVT9+g3iYv+tWzaDmYylsjx79gcPfdSG2+GcXj26whDmtZYiRQrlEllHY9qOHTth4OBh0kNODrJKm1bNYeqUidIAI8YOHDgELdu0N/iZQG/AxQvnq7KAirV4RK88/117oHfvfipvMeUcZb1C+TKwbctG3mUoU6hyvqG6MITh50780ZuLBknxx5DYv1g3aMAvMJD9EUZM0a88+vvvgY5duukyVs6rVLEcrPddLY2IyjFRx3DYep5eZAQTQOhIBIiAVRIgQ5hVPna6aSJABIgAESACRIAIxI4AGhe8GtRnmRQLQK5cOVk2yLQ8JOvFi5fcO2zmrDlwPuRi7E7yeTWG/zk7OfFww3x2tixU7z6gdtd55uVkSqNMXACGPDb0qs8MAM9g2fJVotvgMU3qVNCAibGnSPED93RDg5sy1ExvoaNDEWjRrCm8ZiGjBw4egnPnL+hNk33pGbN2LFQwadJkzKNtBbx6/UaOxbSCSQFq1/KANGlSw7HjJ2A/MzopCwqmo6EPPbPevv0TtmzbZtAgJdbhfIeiRXiyg3/++cBDJTdv2RpN+F/M1x5xPYYVhobeBT9/f10tLO0abGMYZIMGnpAlcyb4jxmf7rPnfp3pqAUFn9GbbrBPJDlAw51tvsIG532rgSyZM8KoX0dw78B06Vno5fffs3DaN3Dx4iWYPHW6bvIDQ9eKySP69u3FP+s//5yBG5DfMWPo3bthMH/BQrNDkw3tT/1EgAgQgcRAgAxhieEp0j0QASJABIgAESACRIAIEAEiEI0AhnI+irjLvft8122APr9EivRHm0gdRIAIEAEiYDUEyBBmNY+abpQIEAEiQASIABEgAkSACFgXgWZNG8Hc2TP5TRd3LmWWnph1EaK7JQJEgAhYHwEyhFnfM6c7JgJEgAgQASJABIgAESACVkHgyKG9PGlAbDXYrAIW3SQRIAJEwEoIkCHMSh403SYRIAJEgAgQASJABIgAEbAmAqiHFnH/NheinzR5Gsz4bY413T7dKxEgAkSACBggQIYwA2ComwgQASJABIgAESACRIAIEIGES6BPr+4wcsRQnuExd1570MuMmXDvjq6cCBABIkAEYkqADGExJUfriAARIAJEgAgQASJABIgAEYi3BM4EB0DePHl49sWqNWrH2+ukCyMCRIAIEIGvS4AMYV+XN52NCBABIkAEiAARIAJEgAgQgS9MIH26tHD75hV+lk6du8N2P/8vfEbanggQASJABBIKATKEJZQnRddJBIgAESACRIAIEAEiQASIgFkEOrZvC5MnjYOPHz9C9px2Zq2hSUSACBABImAdBMgQZh3Pme6SCBABIkAEiAARIAJEgAhYDYE8uXPBhnWrYfGSZbB85RqruW+6USJABIgAETBNgAxhphnRDCJABIgAESACRIAIEAEiQASIABEgAkSACBCBRECADGGJ4CHSLRABIkAEiAARIAJEgAgQASJABIgAESACRIAImCZAhjDTjGgGESACRIAIEAEiQASIABEgAkSACBABIkAEiEAiIPD/hUO81rqoAzgAAAAASUVORK5CYII=;" vertex="1" parent="1">
          <mxGeometry x="306" y="650" width="428" height="125.1" as="geometry" />
        </mxCell>
      </root>
    </mxGraphModel>
  </diagram>
</mxfile>
